Urbanist-SemiBold.ufo
<glyph name="exclam" format="2">
  <advance width="420.0"/>
  <unicode hex="0021"/>
  <outline>
    <contour>
      <point x="101.0" y="420.0" type="line"/>
      <point x="279.6" y="420.0" type="line"/>
      <point x="279.6" y="1400.0" type="line"/>
      <point x="101.0" y="1400.0" type="line"/>
    </contour>
    <contour>
      <point x="191.0" y="-26.0" type="curve" smooth="yes"/>
      <point x="251.4" y="-26.0"/>
      <point x="300.0" y="22.6"/>
      <point x="300.0" y="86.4" type="curve" smooth="yes"/>
      <point x="300.0" y="146.8"/>
      <point x="251.4" y="195.4"/>
      <point x="191.0" y="195.4" type="curve" smooth="yes"/>
      <point x="128.6" y="195.4"/>
      <point x="80.0" y="146.8"/>
      <point x="80.0" y="86.4" type="curve" smooth="yes"/>
      <point x="80.0" y="22.6"/>
      <point x="128.6" y="-26.0"/>
    </contour>
  </outline>
</glyph>
<glyph name="numbersign" format="2">
  <advance width="1552.75"/>
  <unicode hex="0023"/>
  <outline>
    <contour>
      <point x="1418.0" y="894.4" type="line"/>
      <point x="1472.6" y="1097.4" type="line"/>
      <point x="1294.6" y="1097.4" type="line"/>
      <point x="1374.6" y="1400.0" type="line"/>
      <point x="1164.6" y="1400.0" type="line"/>
      <point x="1084.6" y="1097.4" type="line"/>
      <point x="681.8" y="1097.4" type="line"/>
      <point x="762.6" y="1400.0" type="line"/>
      <point x="552.6" y="1400.0" type="line"/>
      <point x="471.8" y="1097.4" type="line"/>
      <point x="292.6" y="1097.4" type="line"/>
      <point x="238.0" y="894.4" type="line"/>
      <point x="418.0" y="894.4" type="line"/>
      <point x="312.6" y="506.8" type="line"/>
      <point x="134.6" y="506.8" type="line"/>
      <point x="80.0" y="303.8" type="line"/>
      <point x="258.6" y="303.8" type="line"/>
      <point x="178.0" y="0.0" type="line"/>
      <point x="388.0" y="0.0" type="line"/>
      <point x="468.6" y="303.8" type="line"/>
      <point x="872.0" y="303.8" type="line"/>
      <point x="790.0" y="0.0" type="line"/>
      <point x="1000.0" y="0.0" type="line"/>
      <point x="1082.0" y="303.8" type="line"/>
      <point x="1260.0" y="303.8" type="line"/>
      <point x="1314.6" y="506.8" type="line"/>
      <point x="1134.6" y="506.8" type="line"/>
      <point x="1240.0" y="894.4" type="line"/>
    </contour>
    <contour>
      <point x="924.6" y="506.8" type="line"/>
      <point x="522.6" y="506.8" type="line"/>
      <point x="628.0" y="894.4" type="line"/>
      <point x="1030.0" y="894.4" type="line"/>
    </contour>
  </outline>
</glyph>
<glyph name="dollar" format="2">
  <advance width="1199.25"/>
  <unicode hex="0024"/>
  <outline>
    <contour>
      <point x="599.4" y="1211.6" type="curve"/>
      <point x="748.6" y="1211.6"/>
      <point x="887.6" y="1144.6"/>
      <point x="921.4" y="1049.4" type="curve"/>
      <point x="1119.4" y="1120.8" type="line"/>
      <point x="1057.0" y="1291.4"/>
      <point x="870.8" y="1398.0"/>
      <point x="673.6" y="1418.8" type="curve"/>
      <point x="673.6" y="1624.0" type="line"/>
      <point x="526.4" y="1624.0" type="line"/>
      <point x="526.4" y="1418.8" type="line"/>
      <point x="284.0" y="1392.4"/>
      <point x="83.6" y="1235.6"/>
      <point x="83.6" y="1008.4" type="curve"/>
      <point x="83.6" y="742.8"/>
      <point x="305.0" y="640.8"/>
      <point x="599.4" y="593.8" type="curve"/>
      <point x="750.4" y="568.8"/>
      <point x="905.8" y="514.6"/>
      <point x="905.8" y="388.6" type="curve"/>
      <point x="905.8" y="265.8"/>
      <point x="759.0" y="184.0"/>
      <point x="599.4" y="184.0" type="curve"/>
      <point x="449.6" y="184.0"/>
      <point x="310.6" y="252.4"/>
      <point x="277.4" y="347.6" type="curve"/>
      <point x="80.0" y="274.8" type="line"/>
      <point x="140.8" y="107.4"/>
      <point x="323.6" y="-0.7999999999999998"/>
      <point x="526.4" y="-21.0" type="curve"/>
      <point x="526.4" y="-224.0" type="line"/>
      <point x="673.6" y="-224.0" type="line"/>
      <point x="673.6" y="-21.0" type="line"/>
      <point x="916.0" y="6.0"/>
      <point x="1115.8" y="161.6"/>
      <point x="1115.8" y="388.6" type="curve"/>
      <point x="1115.8" y="634.6"/>
      <point x="876.0" y="760.6"/>
      <point x="599.4" y="805.0" type="curve"/>
      <point x="428.4" y="833.8"/>
      <point x="293.6" y="859.6"/>
      <point x="293.6" y="1008.4" type="curve"/>
      <point x="293.6" y="1128.4"/>
      <point x="441.4" y="1213.0"/>
    </contour>
  </outline>
</glyph>
<glyph name="percent" format="2">
  <advance width="1434.25"/>
  <unicode hex="0025"/>
  <outline>
    <contour>
      <point x="191.8" y="0.0" type="line"/>
      <point x="434.0" y="0.0" type="line"/>
      <point x="1242.0" y="1400.0" type="line"/>
      <point x="999.8" y="1400.0" type="line"/>
    </contour>
    <contour>
      <point x="360.6" y="812.8" type="curve" smooth="yes"/>
      <point x="510.8" y="812.8"/>
      <point x="640.4" y="933.8"/>
      <point x="640.4" y="1092.0" type="curve" smooth="yes"/>
      <point x="640.4" y="1248.0"/>
      <point x="514.4" y="1372.4"/>
      <point x="360.6" y="1372.4" type="curve" smooth="yes"/>
      <point x="209.6" y="1372.4"/>
      <point x="80.0" y="1251.6"/>
      <point x="80.0" y="1092.0" type="curve" smooth="yes"/>
      <point x="80.0" y="936.0"/>
      <point x="207.4" y="812.8"/>
    </contour>
    <contour>
      <point x="360.6" y="960.0" type="curve" smooth="yes"/>
      <point x="286.6" y="960.0"/>
      <point x="227.8" y="1018.6"/>
      <point x="227.8" y="1092.0" type="curve" smooth="yes"/>
      <point x="227.8" y="1166.0"/>
      <point x="286.6" y="1224.6"/>
      <point x="360.6" y="1224.6" type="curve" smooth="yes"/>
      <point x="433.8" y="1224.6"/>
      <point x="492.6" y="1166.0"/>
      <point x="492.6" y="1092.0" type="curve" smooth="yes"/>
      <point x="492.6" y="1018.6"/>
      <point x="433.8" y="960.0"/>
    </contour>
    <contour>
      <point x="1073.8" y="26.799999999999997" type="curve" smooth="yes"/>
      <point x="1228.4" y="26.799999999999997"/>
      <point x="1354.4" y="153.4"/>
      <point x="1354.4" y="306.6" type="curve" smooth="yes"/>
      <point x="1354.4" y="456.8"/>
      <point x="1233.4" y="587.8"/>
      <point x="1073.8" y="587.8" type="curve" smooth="yes"/>
      <point x="923.6" y="587.8"/>
      <point x="793.4" y="465.4"/>
      <point x="793.4" y="306.6" type="curve" smooth="yes"/>
      <point x="793.4" y="158.4"/>
      <point x="917.8" y="26.799999999999997"/>
    </contour>
    <contour>
      <point x="1073.8" y="174.0" type="curve" smooth="yes"/>
      <point x="1000.6" y="174.0"/>
      <point x="940.6" y="234.0"/>
      <point x="940.6" y="306.6" type="curve" smooth="yes"/>
      <point x="940.6" y="380.0"/>
      <point x="1000.6" y="440.0"/>
      <point x="1073.8" y="440.0" type="curve" smooth="yes"/>
      <point x="1146.6" y="440.0"/>
      <point x="1206.6" y="380.0"/>
      <point x="1206.6" y="306.6" type="curve" smooth="yes"/>
      <point x="1206.6" y="234.0"/>
      <point x="1146.6" y="174.0"/>
    </contour>
  </outline>
</glyph>
<glyph name="ampersand" format="2">
  <advance width="1426.0"/>
  <unicode hex="0026"/>
  <outline>
    <contour>
      <point x="502.4" y="-26.0" type="curve" smooth="yes"/>
      <point x="672.4" y="-26.0"/>
      <point x="729.8" y="25.8"/>
      <point x="950.8" y="246.8" type="curve"/>
      <point x="1197.6" y="0.0" type="line"/>
      <point x="1346.0" y="148.4" type="line"/>
      <point x="1098.0" y="395.8" type="line"/>
      <point x="1192.6" y="490.4" type="line"/>
      <point x="1192.6" y="786.6" type="line"/>
      <point x="950.8" y="545.4" type="line"/>
      <point x="651.4" y="844.8" type="line"/>
      <point x="770.8" y="963.6"/>
      <point x="810.8" y="1015.8"/>
      <point x="810.8" y="1130.4" type="curve" smooth="yes"/>
      <point x="810.8" y="1302.6"/>
      <point x="671.8" y="1438.8"/>
      <point x="502.4" y="1438.8" type="curve" smooth="yes"/>
      <point x="337.8" y="1438.8"/>
      <point x="196.0" y="1305.6"/>
      <point x="196.0" y="1130.4" type="curve" smooth="yes"/>
      <point x="196.0" y="1018.4"/>
      <point x="231.4" y="968.0"/>
      <point x="354.0" y="844.8" type="curve"/>
      <point x="137.0" y="627.8"/>
      <point x="80.0" y="568.0"/>
      <point x="80.0" y="397.0" type="curve" smooth="yes"/>
      <point x="80.0" y="174.0"/>
      <point x="259.0" y="-26.0"/>
    </contour>
    <contour>
      <point x="502.4" y="184.0" type="curve" smooth="yes"/>
      <point x="389.0" y="184.0"/>
      <point x="290.6" y="274.4"/>
      <point x="290.6" y="395.8" type="curve" smooth="yes"/>
      <point x="290.6" y="499.6"/>
      <point x="328.0" y="521.4"/>
      <point x="502.4" y="696.4" type="curve"/>
      <point x="802.4" y="396.4" type="line"/>
      <point x="634.6" y="227.4"/>
      <point x="608.0" y="184.0"/>
    </contour>
    <contour>
      <point x="502.4" y="964.0" type="curve"/>
      <point x="408.4" y="1057.8"/>
      <point x="381.0" y="1072.8"/>
      <point x="381.0" y="1134.0" type="curve" smooth="yes"/>
      <point x="381.0" y="1200.4"/>
      <point x="436.0" y="1256.0"/>
      <point x="502.4" y="1256.0" type="curve" smooth="yes"/>
      <point x="563.4" y="1256.0"/>
      <point x="624.4" y="1207.8"/>
      <point x="624.4" y="1134.0" type="curve" smooth="yes"/>
      <point x="624.4" y="1073.4"/>
      <point x="603.8" y="1063.4"/>
    </contour>
  </outline>
</glyph>
<glyph name="quotesingle" format="2">
  <advance width="282.5"/>
  <unicode hex="0027"/>
  <outline>
    <contour>
      <point x="67.8" y="878.0" type="line"/>
      <point x="215.0" y="878.0" type="line"/>
      <point x="215.0" y="1400.0" type="line"/>
      <point x="67.8" y="1400.0" type="line"/>
    </contour>
  </outline>
</glyph>
<glyph name="parenleft" format="2">
  <advance width="720.25"/>
  <unicode hex="0028"/>
  <outline>
    <contour>
      <point x="410.4" y="-112.0" type="curve"/>
      <point x="620.4" y="-112.0" type="line"/>
      <point x="468.0" y="57.4"/>
      <point x="334.8" y="330.8"/>
      <point x="330.0" y="644.0" type="curve" smooth="yes"/>
      <point x="334.8" y="909.0"/>
      <point x="472.0" y="1281.6"/>
      <point x="620.4" y="1400.0" type="curve"/>
      <point x="410.4" y="1400.0" type="line"/>
      <point x="234.4" y="1297.4"/>
      <point x="120.0" y="894.8"/>
      <point x="120.0" y="644.0" type="curve" smooth="yes"/>
      <point x="120.0" y="340.4"/>
      <point x="204.6" y="86.0"/>
    </contour>
  </outline>
</glyph>
<glyph name="parenright" format="2">
  <advance width="720.25"/>
  <unicode hex="0029"/>
  <outline>
    <contour>
      <point x="100.0" y="-112.0" type="curve"/>
      <point x="310.0" y="-112.0" type="line"/>
      <point x="515.8" y="86.0"/>
      <point x="600.4" y="340.4"/>
      <point x="600.4" y="644.0" type="curve" smooth="yes"/>
      <point x="600.4" y="894.8"/>
      <point x="486.0" y="1297.4"/>
      <point x="310.0" y="1400.0" type="curve"/>
      <point x="100.0" y="1400.0" type="line"/>
      <point x="248.4" y="1281.6"/>
      <point x="385.6" y="909.0"/>
      <point x="390.4" y="644.0" type="curve" smooth="yes"/>
      <point x="385.6" y="330.8"/>
      <point x="252.4" y="57.4"/>
    </contour>
  </outline>
</glyph>
<glyph name="asterisk" format="2">
  <advance width="717.5"/>
  <unicode hex="002A"/>
  <outline>
    <contour>
      <point x="234.6" y="841.0" type="line"/>
      <point x="343.6" y="990.4" type="line"/>
      <point x="450.6" y="841.0" type="line"/>
      <point x="570.6" y="928.4" type="line"/>
      <point x="461.6" y="1076.6" type="line"/>
      <point x="637.8" y="1132.6" type="line"/>
      <point x="592.0" y="1273.6" type="line"/>
      <point x="417.8" y="1217.4" type="line"/>
      <point x="417.8" y="1400.0" type="line"/>
      <point x="270.0" y="1400.0" type="line"/>
      <point x="270.0" y="1217.4" type="line"/>
      <point x="94.4" y="1273.6" type="line"/>
      <point x="50.0" y="1132.6" type="line"/>
      <point x="223.6" y="1076.6" type="line"/>
      <point x="115.8" y="928.4" type="line"/>
    </contour>
  </outline>
</glyph>
<glyph name="period" format="2">
  <advance width="421.25"/>
  <unicode hex="002E"/>
  <outline>
    <contour>
      <point x="190.4" y="-26.0" type="curve" smooth="yes"/>
      <point x="251.4" y="-26.0"/>
      <point x="301.4" y="22.6"/>
      <point x="301.4" y="85.0" type="curve" smooth="yes"/>
      <point x="301.4" y="145.4"/>
      <point x="251.4" y="195.4"/>
      <point x="190.4" y="195.4" type="curve" smooth="yes"/>
      <point x="128.6" y="195.4"/>
      <point x="80.0" y="145.4"/>
      <point x="80.0" y="85.0" type="curve" smooth="yes"/>
      <point x="80.0" y="22.6"/>
      <point x="128.6" y="-26.0"/>
    </contour>
  </outline>
</glyph>
<glyph name="slash" format="2">
  <advance width="775.25"/>
  <unicode hex="002F"/>
  <outline>
    <contour>
      <point x="695.4" y="1400.0" type="line"/>
      <point x="485.4" y="1400.0" type="line"/>
      <point x="80.0" y="-112.0" type="line"/>
      <point x="290.0" y="-112.0" type="line"/>
    </contour>
  </outline>
</glyph>
<glyph name="zero" format="2">
  <advance width="1203.0"/>
  <unicode hex="0030"/>
  <outline>
    <contour>
      <point x="602.8" y="-26.0" type="curve" smooth="yes"/>
      <point x="930.0" y="-26.0"/>
      <point x="1143.0" y="300.0"/>
      <point x="1143.0" y="700.0" type="curve" smooth="yes"/>
      <point x="1143.0" y="1100.6"/>
      <point x="930.0" y="1426.0"/>
      <point x="602.8" y="1426.0" type="curve" smooth="yes"/>
      <point x="274.4" y="1426.0"/>
      <point x="60.0" y="1100.6"/>
      <point x="60.0" y="700.0" type="curve" smooth="yes"/>
      <point x="60.0" y="300.0"/>
      <point x="274.4" y="-26.0"/>
    </contour>
    <contour>
      <point x="602.8" y="184.0" type="curve" smooth="yes"/>
      <point x="373.8" y="184.0"/>
      <point x="257.8" y="427.0"/>
      <point x="257.8" y="700.0" type="curve" smooth="yes"/>
      <point x="257.8" y="970.8"/>
      <point x="368.8" y="1216.0"/>
      <point x="602.8" y="1216.0" type="curve" smooth="yes"/>
      <point x="825.8" y="1216.0"/>
      <point x="945.8" y="987.0"/>
      <point x="945.8" y="700.0" type="curve" smooth="yes"/>
      <point x="945.8" y="427.4"/>
      <point x="832.6" y="184.0"/>
    </contour>
  </outline>
</glyph>
<glyph name="one" format="2">
  <advance width="617.5"/>
  <unicode hex="0031"/>
  <outline>
    <contour>
      <point x="247.8" y="0.0" type="line"/>
      <point x="457.8" y="0.0" type="line"/>
      <point x="457.8" y="1400.0" type="line"/>
      <point x="137.8" y="1400.0" type="line"/>
      <point x="80.0" y="1190.0" type="line"/>
      <point x="247.8" y="1190.0" type="line"/>
    </contour>
  </outline>
</glyph>
<glyph name="two" format="2">
  <advance width="1125.5"/>
  <unicode hex="0032"/>
  <outline>
    <contour>
      <point x="80.0" y="0.0" type="line"/>
      <point x="1005.8" y="0.0" type="line"/>
      <point x="1005.8" y="210.0" type="line"/>
      <point x="461.6" y="210.0" type="line"/>
      <point x="732.6" y="467.6"/>
      <point x="993.8" y="741.4"/>
      <point x="993.8" y="972.4" type="curve" smooth="yes"/>
      <point x="993.8" y="1223.8"/>
      <point x="790.8" y="1426.0"/>
      <point x="542.8" y="1426.0" type="curve" smooth="yes"/>
      <point x="296.4" y="1426.0"/>
      <point x="89.8" y="1227.4"/>
      <point x="89.8" y="972.4" type="curve"/>
      <point x="299.8" y="972.4" type="line"/>
      <point x="299.8" y="1105.6"/>
      <point x="409.0" y="1216.0"/>
      <point x="542.8" y="1216.0" type="curve" smooth="yes"/>
      <point x="676.0" y="1216.0"/>
      <point x="783.8" y="1105.6"/>
      <point x="783.8" y="972.4" type="curve" smooth="yes"/>
      <point x="783.8" y="775.6"/>
      <point x="316.4" y="379.8"/>
      <point x="80.0" y="187.0" type="curve"/>
    </contour>
  </outline>
</glyph>
<glyph name="three" format="2">
  <advance width="1009.5"/>
  <unicode hex="0033"/>
  <outline>
    <contour>
      <point x="504.6" y="-26.0" type="curve" smooth="yes"/>
      <point x="745.4" y="-26.0"/>
      <point x="949.8" y="170.6"/>
      <point x="949.8" y="411.4" type="curve" smooth="yes"/>
      <point x="949.8" y="552.4"/>
      <point x="879.6" y="694.4"/>
      <point x="746.8" y="741.6" type="curve"/>
      <point x="849.0" y="785.4"/>
      <point x="909.4" y="903.8"/>
      <point x="909.4" y="1022.4" type="curve" smooth="yes"/>
      <point x="909.4" y="1246.8"/>
      <point x="716.0" y="1427.4"/>
      <point x="495.8" y="1427.4" type="curve" smooth="yes"/>
      <point x="271.6" y="1427.4"/>
      <point x="69.6" y="1245.4"/>
      <point x="69.6" y="1022.4" type="curve"/>
      <point x="279.6" y="1022.4" type="line"/>
      <point x="279.6" y="1128.6"/>
      <point x="389.8" y="1217.4"/>
      <point x="498.0" y="1217.4" type="curve" smooth="yes"/>
      <point x="604.8" y="1217.4"/>
      <point x="699.4" y="1128.6"/>
      <point x="699.4" y="1022.4" type="curve" smooth="yes"/>
      <point x="699.4" y="886.4"/>
      <point x="586.0" y="816.0"/>
      <point x="410.6" y="816.0" type="curve"/>
      <point x="410.6" y="651.0" type="line"/>
      <point x="604.8" y="651.0"/>
      <point x="739.8" y="571.8"/>
      <point x="739.8" y="411.4" type="curve" smooth="yes"/>
      <point x="739.8" y="286.8"/>
      <point x="628.6" y="184.0"/>
      <point x="504.6" y="184.0" type="curve" smooth="yes"/>
      <point x="365.0" y="184.0"/>
      <point x="270.0" y="286.8"/>
      <point x="270.0" y="411.4" type="curve"/>
      <point x="60.0" y="411.4" type="line"/>
      <point x="60.0" y="169.8"/>
      <point x="250.8" y="-26.0"/>
    </contour>
  </outline>
</glyph>
<glyph name="four" format="2">
  <advance width="1136.25"/>
  <unicode hex="0034"/>
  <outline>
    <contour>
      <point x="678.6" y="0.0" type="line"/>
      <point x="888.6" y="0.0" type="line"/>
      <point x="888.6" y="356.8" type="line"/>
      <point x="1016.4" y="356.8" type="line"/>
      <point x="1016.4" y="566.8" type="line"/>
      <point x="888.6" y="566.8" type="line"/>
      <point x="888.6" y="1400.0" type="line"/>
      <point x="628.6" y="1400.0" type="line"/>
      <point x="80.0" y="568.0" type="line"/>
      <point x="80.0" y="356.8" type="line"/>
      <point x="678.6" y="356.8" type="line"/>
    </contour>
    <contour>
      <point x="324.6" y="568.0" type="line"/>
      <point x="677.4" y="1110.6" type="line"/>
      <point x="678.6" y="566.8" type="line"/>
    </contour>
  </outline>
</glyph>
<glyph name="five" format="2">
  <advance width="1135.25"/>
  <unicode hex="0035"/>
  <outline>
    <contour>
      <point x="543.4" y="-26.0" type="curve" smooth="yes"/>
      <point x="804.0" y="-26.0"/>
      <point x="1015.4" y="187.0"/>
      <point x="1015.4" y="446.0" type="curve" smooth="yes"/>
      <point x="1015.4" y="713.4"/>
      <point x="816.6" y="913.0"/>
      <point x="532.0" y="920.8" type="curve"/>
      <point x="412.8" y="921.6" type="line"/>
      <point x="466.8" y="1190.0" type="line"/>
      <point x="973.8" y="1190.0" type="line"/>
      <point x="973.8" y="1400.0" type="line"/>
      <point x="296.0" y="1400.0" type="line"/>
      <point x="153.8" y="711.6" type="line"/>
      <point x="507.0" y="711.6" type="line" smooth="yes"/>
      <point x="710.6" y="711.6"/>
      <point x="805.4" y="591.0"/>
      <point x="805.4" y="446.0" type="curve" smooth="yes"/>
      <point x="805.4" y="301.0"/>
      <point x="687.0" y="184.0"/>
      <point x="543.4" y="184.0" type="curve" smooth="yes"/>
      <point x="397.8" y="184.0"/>
      <point x="280.0" y="301.0"/>
      <point x="280.0" y="446.0" type="curve"/>
      <point x="70.0" y="446.0" type="line"/>
      <point x="70.0" y="189.8"/>
      <point x="277.4" y="-26.0"/>
    </contour>
  </outline>
</glyph>
<glyph name="six" format="2">
  <advance width="1091.25"/>
  <unicode hex="0036"/>
  <outline>
    <contour>
      <point x="539.0" y="-26.0" type="curve" smooth="yes"/>
      <point x="811.0" y="-26.0"/>
      <point x="1031.4" y="195.8"/>
      <point x="1031.4" y="465.0" type="curve" smooth="yes"/>
      <point x="1031.4" y="763.6"/>
      <point x="760.4" y="980.4"/>
      <point x="484.8" y="929.4" type="curve"/>
      <point x="756.8" y="1400.0" type="line"/>
      <point x="512.6" y="1400.0" type="line"/>
      <point x="119.0" y="716.8" type="line" smooth="yes"/>
      <point x="72.4" y="632.8"/>
      <point x="50.0" y="560.0"/>
      <point x="50.0" y="465.0" type="curve" smooth="yes"/>
      <point x="50.0" y="194.4"/>
      <point x="271.8" y="-26.0"/>
    </contour>
    <contour>
      <point x="539.0" y="184.0" type="curve" smooth="yes"/>
      <point x="392.0" y="184.0"/>
      <point x="260.0" y="304.6"/>
      <point x="260.0" y="464.8" type="curve" smooth="yes"/>
      <point x="260.0" y="612.0"/>
      <point x="377.8" y="745.4"/>
      <point x="541.0" y="745.4" type="curve" smooth="yes"/>
      <point x="697.6" y="745.4"/>
      <point x="821.4" y="618.6"/>
      <point x="821.4" y="464.8" type="curve" smooth="yes"/>
      <point x="821.4" y="319.8"/>
      <point x="702.4" y="184.0"/>
    </contour>
  </outline>
</glyph>
<glyph name="seven" format="2">
  <advance width="1089.75"/>
  <unicode hex="0037"/>
  <outline>
    <contour>
      <point x="120.4" y="0.0" type="line"/>
      <point x="362.0" y="0.0" type="line"/>
      <point x="1049.6" y="1190.0" type="line"/>
      <point x="1049.6" y="1400.0" type="line"/>
      <point x="40.0" y="1400.0" type="line"/>
      <point x="40.0" y="1190.0" type="line"/>
      <point x="806.0" y="1190.0" type="line"/>
    </contour>
  </outline>
</glyph>
<glyph name="eight" format="2">
  <advance width="1077.75"/>
  <unicode hex="0038"/>
  <outline>
    <contour>
      <point x="538.4" y="-26.0" type="curve" smooth="yes"/>
      <point x="792.8" y="-26.0"/>
      <point x="997.6" y="167.0"/>
      <point x="997.6" y="405.0" type="curve" smooth="yes"/>
      <point x="997.6" y="539.6"/>
      <point x="927.0" y="661.6"/>
      <point x="815.4" y="736.6" type="curve"/>
      <point x="904.4" y="804.0"/>
      <point x="964.6" y="908.6"/>
      <point x="964.6" y="1026.0" type="curve" smooth="yes"/>
      <point x="964.6" y="1246.8"/>
      <point x="773.0" y="1426.0"/>
      <point x="538.4" y="1426.0" type="curve" smooth="yes"/>
      <point x="303.8" y="1426.0"/>
      <point x="111.6" y="1246.8"/>
      <point x="111.6" y="1026.0" type="curve" smooth="yes"/>
      <point x="111.6" y="908.6"/>
      <point x="172.4" y="804.0"/>
      <point x="261.4" y="736.6" type="curve"/>
      <point x="151.8" y="661.6"/>
      <point x="80.0" y="539.6"/>
      <point x="80.0" y="405.0" type="curve" smooth="yes"/>
      <point x="80.0" y="165.6"/>
      <point x="284.0" y="-26.0"/>
    </contour>
    <contour>
      <point x="538.4" y="184.0" type="curve" smooth="yes"/>
      <point x="408.4" y="184.0"/>
      <point x="301.0" y="282.6"/>
      <point x="301.0" y="405.0" type="curve" smooth="yes"/>
      <point x="301.0" y="527.4"/>
      <point x="408.4" y="626.0"/>
      <point x="538.4" y="626.0" type="curve" smooth="yes"/>
      <point x="669.6" y="626.0"/>
      <point x="775.8" y="527.4"/>
      <point x="775.8" y="405.0" type="curve" smooth="yes"/>
      <point x="775.8" y="282.6"/>
      <point x="669.6" y="184.0"/>
    </contour>
    <contour>
      <point x="538.4" y="836.0" type="curve" smooth="yes"/>
      <point x="425.0" y="836.0"/>
      <point x="334.0" y="921.4"/>
      <point x="334.0" y="1026.0" type="curve" smooth="yes"/>
      <point x="334.0" y="1130.6"/>
      <point x="425.0" y="1216.0"/>
      <point x="538.4" y="1216.0" type="curve" smooth="yes"/>
      <point x="651.8" y="1216.0"/>
      <point x="742.8" y="1130.6"/>
      <point x="742.8" y="1026.0" type="curve" smooth="yes"/>
      <point x="742.8" y="921.4"/>
      <point x="651.8" y="836.0"/>
    </contour>
  </outline>
</glyph>
<glyph name="nine" format="2">
  <advance width="1082.5"/>
  <unicode hex="0039"/>
  <outline>
    <contour>
      <point x="310.0" y="0.0" type="line"/>
      <point x="553.0" y="0.0" type="line"/>
      <point x="954.4" y="697.6" type="line" smooth="yes"/>
      <point x="1000.4" y="780.4"/>
      <point x="1022.8" y="851.4"/>
      <point x="1022.8" y="944.0" type="curve" smooth="yes"/>
      <point x="1022.8" y="1209.8"/>
      <point x="804.6" y="1426.0"/>
      <point x="542.8" y="1426.0" type="curve" smooth="yes"/>
      <point x="275.6" y="1426.0"/>
      <point x="60.0" y="1208.4"/>
      <point x="60.0" y="944.0" type="curve" smooth="yes"/>
      <point x="60.0" y="652.6"/>
      <point x="322.6" y="440.6"/>
      <point x="592.8" y="488.0" type="curve"/>
    </contour>
    <contour>
      <point x="540.8" y="672.0" type="curve" smooth="yes"/>
      <point x="388.4" y="672.0"/>
      <point x="268.8" y="794.6"/>
      <point x="268.8" y="944.8" type="curve" smooth="yes"/>
      <point x="268.8" y="1085.6"/>
      <point x="383.6" y="1216.6"/>
      <point x="542.8" y="1216.6" type="curve" smooth="yes"/>
      <point x="685.0" y="1216.6"/>
      <point x="813.4" y="1099.6"/>
      <point x="813.4" y="944.8" type="curve" smooth="yes"/>
      <point x="813.4" y="801.8"/>
      <point x="699.8" y="672.0"/>
    </contour>
  </outline>
</glyph>
<glyph name="colon" format="2">
  <advance width="421.25"/>
  <unicode hex="003A"/>
  <outline>
    <contour>
      <point x="190.4" y="778.6" type="curve" smooth="yes"/>
      <point x="251.4" y="778.6"/>
      <point x="301.4" y="827.8"/>
      <point x="301.4" y="889.6" type="curve" smooth="yes"/>
      <point x="301.4" y="950.0"/>
      <point x="251.4" y="1000.0"/>
      <point x="190.4" y="1000.0" type="curve" smooth="yes"/>
      <point x="128.6" y="1000.0"/>
      <point x="80.0" y="950.0"/>
      <point x="80.0" y="889.6" type="curve" smooth="yes"/>
      <point x="80.0" y="827.8"/>
      <point x="128.6" y="778.6"/>
    </contour>
    <contour>
      <point x="190.4" y="-26.0" type="curve" smooth="yes"/>
      <point x="251.4" y="-26.0"/>
      <point x="301.4" y="22.6"/>
      <point x="301.4" y="85.0" type="curve" smooth="yes"/>
      <point x="301.4" y="145.4"/>
      <point x="251.4" y="195.4"/>
      <point x="190.4" y="195.4" type="curve" smooth="yes"/>
      <point x="128.6" y="195.4"/>
      <point x="80.0" y="145.4"/>
      <point x="80.0" y="85.0" type="curve" smooth="yes"/>
      <point x="80.0" y="22.6"/>
      <point x="128.6" y="-26.0"/>
    </contour>
  </outline>
</glyph>
<glyph name="semicolon" format="2">
  <advance width="476.5"/>
  <unicode hex="003B"/>
  <outline>
    <contour>
      <point x="80.0" y="-112.0" type="line"/>
      <point x="220.0" y="-112.0" type="line"/>
      <point x="352.0" y="226.0" type="line"/>
      <point x="142.0" y="226.0" type="line"/>
    </contour>
    <contour>
      <point x="246.4" y="778.6" type="curve" smooth="yes"/>
      <point x="306.8" y="778.6"/>
      <point x="356.8" y="827.8"/>
      <point x="356.8" y="889.0" type="curve" smooth="yes"/>
      <point x="356.8" y="950.0"/>
      <point x="306.8" y="1000.0"/>
      <point x="246.4" y="1000.0" type="curve" smooth="yes"/>
      <point x="184.0" y="1000.0"/>
      <point x="135.4" y="950.0"/>
      <point x="135.4" y="889.0" type="curve" smooth="yes"/>
      <point x="135.4" y="827.8"/>
      <point x="184.0" y="778.6"/>
    </contour>
  </outline>
</glyph>
<glyph name="less" format="2">
  <advance width="1160.0"/>
  <unicode hex="003C"/>
  <outline>
    <contour>
      <point x="1080.0" y="140.8" type="line"/>
      <point x="1080.0" y="358.6" type="line"/>
      <point x="234.0" y="600.0" type="line"/>
      <point x="1080.0" y="840.8" type="line"/>
      <point x="1080.0" y="1059.8" type="line"/>
      <point x="80.0" y="773.8" type="line"/>
      <point x="80.0" y="424.8" type="line"/>
    </contour>
  </outline>
</glyph>
<glyph name="equal" format="2">
  <advance width="1160.0"/>
  <unicode hex="003D"/>
  <outline>
    <contour>
      <point x="80.0" y="284.4" type="line"/>
      <point x="1080.0" y="284.4" type="line"/>
      <point x="1080.0" y="494.4" type="line"/>
      <point x="80.0" y="494.4" type="line"/>
    </contour>
    <contour>
      <point x="80.0" y="705.6" type="line"/>
      <point x="1080.0" y="705.6" type="line"/>
      <point x="1080.0" y="915.6" type="line"/>
      <point x="80.0" y="915.6" type="line"/>
    </contour>
  </outline>
</glyph>
<glyph name="question" format="2">
  <advance width="1073.25"/>
  <unicode hex="003F"/>
  <outline>
    <contour>
      <point x="425.4" y="445.6" type="curve"/>
      <point x="635.4" y="445.6" type="line"/>
      <point x="635.4" y="513.4"/>
      <point x="670.4" y="572.4"/>
      <point x="729.4" y="603.8" type="curve" smooth="yes"/>
      <point x="868.4" y="678.0"/>
      <point x="953.4" y="826.4"/>
      <point x="953.4" y="991.0" type="curve" smooth="yes"/>
      <point x="953.4" y="1231.0"/>
      <point x="757.8" y="1426.6"/>
      <point x="516.4" y="1426.6" type="curve" smooth="yes"/>
      <point x="275.6" y="1426.6"/>
      <point x="80.0" y="1231.0"/>
      <point x="80.0" y="991.0" type="curve"/>
      <point x="290.0" y="991.0" type="line"/>
      <point x="290.0" y="1116.8"/>
      <point x="391.8" y="1216.6"/>
      <point x="516.4" y="1216.6" type="curve" smooth="yes"/>
      <point x="641.0" y="1216.6"/>
      <point x="743.4" y="1116.8"/>
      <point x="743.4" y="991.0" type="curve" smooth="yes"/>
      <point x="743.4" y="903.4"/>
      <point x="700.4" y="826.4"/>
      <point x="630.0" y="788.6" type="curve" smooth="yes"/>
      <point x="502.4" y="719.4"/>
      <point x="425.4" y="590.4"/>
    </contour>
    <contour>
      <point x="535.0" y="-26.0" type="curve" smooth="yes"/>
      <point x="596.0" y="-26.0"/>
      <point x="644.6" y="23.8"/>
      <point x="644.6" y="86.4" type="curve" smooth="yes"/>
      <point x="644.6" y="146.8"/>
      <point x="596.0" y="195.4"/>
      <point x="535.0" y="195.4" type="curve" smooth="yes"/>
      <point x="473.8" y="195.4"/>
      <point x="424.6" y="146.8"/>
      <point x="424.6" y="86.4" type="curve" smooth="yes"/>
      <point x="424.6" y="23.8"/>
      <point x="473.8" y="-26.0"/>
    </contour>
  </outline>
</glyph>
<glyph name="at" format="2">
  <advance width="1800.375"/>
  <unicode hex="0040"/>
  <outline>
    <contour>
      <point x="900.6" y="-229.6" type="curve"/>
      <point x="900.6" y="-19.599999999999998" type="line"/>
      <point x="562.6" y="-19.599999999999998"/>
      <point x="290.0" y="213.0"/>
      <point x="290.0" y="550.6" type="curve" smooth="yes"/>
      <point x="290.0" y="889.2"/>
      <point x="565.4" y="1161.0"/>
      <point x="900.6" y="1161.0" type="curve" smooth="yes"/>
      <point x="1234.4" y="1161.0"/>
      <point x="1510.6" y="889.0"/>
      <point x="1510.6" y="550.6" type="curve" smooth="yes"/>
      <point x="1510.6" y="435.8"/>
      <point x="1468.8" y="263.6"/>
      <point x="1368.8" y="263.6" type="curve" smooth="yes"/>
      <point x="1316.0" y="263.6"/>
      <point x="1274.6" y="300.4"/>
      <point x="1274.6" y="355.4" type="curve" smooth="yes"/>
      <point x="1274.6" y="896.2" type="line"/>
      <point x="1114.6" y="927.6" type="line"/>
      <point x="1114.6" y="855.6" type="line"/>
      <point x="1064.4" y="912.4"/>
      <point x="966.8" y="948.0"/>
      <point x="875.4" y="948.0" type="curve" smooth="yes"/>
      <point x="656.4" y="948.0"/>
      <point x="478.4" y="770.0"/>
      <point x="478.4" y="550.6" type="curve" smooth="yes"/>
      <point x="478.4" y="331.0"/>
      <point x="656.4" y="152.6"/>
      <point x="875.4" y="152.6" type="curve" smooth="yes"/>
      <point x="972.6" y="152.6"/>
      <point x="1051.2" y="191.4"/>
      <point x="1104.6" y="253.6" type="curve"/>
      <point x="1121.4" y="142.8"/>
      <point x="1260.6" y="53.599999999999994"/>
      <point x="1381.0" y="53.599999999999994" type="curve" smooth="yes"/>
      <point x="1598.0" y="53.599999999999994"/>
      <point x="1720.6" y="307.4"/>
      <point x="1720.6" y="550.6" type="curve" smooth="yes"/>
      <point x="1720.6" y="1000.4"/>
      <point x="1357.0" y="1371.0"/>
      <point x="900.6" y="1371.0" type="curve" smooth="yes"/>
      <point x="447.2" y="1371.0"/>
      <point x="80.0" y="1003.8"/>
      <point x="80.0" y="550.6" type="curve" smooth="yes"/>
      <point x="80.0" y="97.4"/>
      <point x="446.8" y="-229.6"/>
    </contour>
    <contour>
      <point x="891.8" y="311.6" type="curve" smooth="yes"/>
      <point x="762.0" y="311.6"/>
      <point x="653.4" y="417.8"/>
      <point x="653.4" y="550.6" type="curve" smooth="yes"/>
      <point x="653.4" y="683.0"/>
      <point x="759.6" y="788.4"/>
      <point x="891.8" y="788.4" type="curve" smooth="yes"/>
      <point x="1028.8" y="788.4"/>
      <point x="1113.4" y="680.6"/>
      <point x="1113.4" y="557.2" type="curve" smooth="yes"/>
      <point x="1113.4" y="430.4"/>
      <point x="1023.4" y="311.6"/>
    </contour>
  </outline>
</glyph>
<glyph name="A" format="2">
  <advance width="1423.25"/>
  <unicode hex="0041"/>
  <outline>
    <contour>
      <point x="588.6" y="1400.0" type="line"/>
      <point x="80.0" y="0.0" type="line"/>
      <point x="302.6" y="0.0" type="line"/>
      <point x="399.4" y="265.0" type="line"/>
      <point x="1024.0" y="265.0" type="line"/>
      <point x="1120.8" y="0.0" type="line"/>
      <point x="1343.4" y="0.0" type="line"/>
      <point x="834.8" y="1400.0" type="line"/>
    </contour>
    <contour>
      <point x="476.4" y="475.0" type="line"/>
      <point x="711.0" y="1121.4" type="line"/>
      <point x="947.0" y="475.0" type="line"/>
    </contour>
  </outline>
</glyph>
<glyph name="B" format="2">
  <advance width="1155.0"/>
  <unicode hex="0042"/>
  <outline>
    <contour>
      <point x="120.0" y="0.0" type="line"/>
      <point x="676.4" y="0.0" type="line" smooth="yes"/>
      <point x="895.8" y="0.0"/>
      <point x="1075.0" y="163.4"/>
      <point x="1075.0" y="389.8" type="curve" smooth="yes"/>
      <point x="1075.0" y="528.8"/>
      <point x="1027.0" y="724.6"/>
      <point x="855.6" y="769.2" type="curve"/>
      <point x="949.4" y="803.4"/>
      <point x="1004.8" y="920.6"/>
      <point x="1004.8" y="1031.4" type="curve" smooth="yes"/>
      <point x="1004.8" y="1260.6"/>
      <point x="833.8" y="1399.4"/>
      <point x="617.6" y="1399.4" type="curve" smooth="yes"/>
      <point x="120.0" y="1399.4" type="line"/>
    </contour>
    <contour>
      <point x="330.0" y="181.4" type="line"/>
      <point x="330.0" y="668.2" type="line"/>
      <point x="656.4" y="668.2" type="line" smooth="yes"/>
      <point x="783.8" y="668.2"/>
      <point x="886.4" y="551.6"/>
      <point x="886.4" y="428.4" type="curve" smooth="yes"/>
      <point x="886.4" y="286.0"/>
      <point x="783.8" y="181.4"/>
      <point x="656.4" y="181.4" type="curve" smooth="yes"/>
    </contour>
    <contour>
      <point x="330.0" y="846.8" type="line"/>
      <point x="330.0" y="1216.6" type="line"/>
      <point x="595.4" y="1216.6" type="line" smooth="yes"/>
      <point x="704.8" y="1216.6"/>
      <point x="794.8" y="1155.0"/>
      <point x="794.8" y="1032.8" type="curve" smooth="yes"/>
      <point x="794.8" y="917.8"/>
      <point x="704.8" y="846.8"/>
      <point x="595.4" y="846.8" type="curve" smooth="yes"/>
    </contour>
  </outline>
</glyph>
<glyph name="C" format="2">
  <advance width="1398.0"/>
  <unicode hex="0043"/>
  <outline>
    <contour>
      <point x="748.0" y="-26.0" type="curve"/>
      <point x="974.0" y="-26.0"/>
      <point x="1172.0" y="87.4"/>
      <point x="1298.0" y="262.0" type="curve"/>
      <point x="1111.0" y="363.6" type="line"/>
      <point x="1026.0" y="255.8"/>
      <point x="894.8" y="184.0"/>
      <point x="748.0" y="184.0" type="curve"/>
      <point x="484.8" y="184.0"/>
      <point x="270.0" y="415.6"/>
      <point x="270.0" y="700.0" type="curve"/>
      <point x="270.0" y="981.6"/>
      <point x="482.4" y="1216.0"/>
      <point x="748.0" y="1216.0" type="curve"/>
      <point x="890.6" y="1216.0"/>
      <point x="1024.8" y="1146.0"/>
      <point x="1111.0" y="1036.6" type="curve"/>
      <point x="1298.0" y="1137.4" type="line"/>
      <point x="1172.0" y="1312.0"/>
      <point x="974.0" y="1426.0"/>
      <point x="748.0" y="1426.0" type="curve"/>
      <point x="368.0" y="1426.0"/>
      <point x="60.0" y="1101.4"/>
      <point x="60.0" y="700.0" type="curve"/>
      <point x="60.0" y="299.4"/>
      <point x="368.0" y="-26.0"/>
    </contour>
  </outline>
</glyph>
<glyph name="D" format="2">
  <advance width="1343.25"/>
  <unicode hex="0044"/>
  <outline>
    <contour>
      <point x="120.0" y="0.0" type="line"/>
      <point x="583.4" y="0.0" type="line" smooth="yes"/>
      <point x="970.0" y="0.0"/>
      <point x="1283.4" y="314.0"/>
      <point x="1283.4" y="700.0" type="curve" smooth="yes"/>
      <point x="1283.4" y="1086.0"/>
      <point x="970.0" y="1400.0"/>
      <point x="583.4" y="1400.0" type="curve" smooth="yes"/>
      <point x="120.0" y="1400.0" type="line"/>
    </contour>
    <contour>
      <point x="330.0" y="210.0" type="line"/>
      <point x="330.0" y="1190.0" type="line"/>
      <point x="583.4" y="1190.0" type="line" smooth="yes"/>
      <point x="852.4" y="1190.0"/>
      <point x="1073.4" y="970.4"/>
      <point x="1073.4" y="700.0" type="curve" smooth="yes"/>
      <point x="1073.4" y="428.8"/>
      <point x="851.6" y="210.0"/>
      <point x="583.4" y="210.0" type="curve" smooth="yes"/>
    </contour>
  </outline>
</glyph>
<glyph name="E" format="2">
  <advance width="1089.5"/>
  <unicode hex="0045"/>
  <outline>
    <contour>
      <point x="120.0" y="0.0" type="line"/>
      <point x="989.8" y="0.0" type="line"/>
      <point x="989.8" y="210.0" type="line"/>
      <point x="330.0" y="210.0" type="line"/>
      <point x="330.0" y="645.0" type="line"/>
      <point x="861.0" y="645.0" type="line"/>
      <point x="861.0" y="855.0" type="line"/>
      <point x="330.0" y="855.0" type="line"/>
      <point x="330.0" y="1190.0" type="line"/>
      <point x="989.8" y="1190.0" type="line"/>
      <point x="989.8" y="1400.0" type="line"/>
      <point x="120.0" y="1400.0" type="line"/>
    </contour>
  </outline>
</glyph>
<glyph name="F" format="2">
  <advance width="964.5"/>
  <unicode hex="0046"/>
  <outline>
    <contour>
      <point x="120.0" y="0.0" type="line"/>
      <point x="330.0" y="0.0" type="line"/>
      <point x="330.0" y="645.0" type="line"/>
      <point x="848.8" y="645.0" type="line"/>
      <point x="848.8" y="855.0" type="line"/>
      <point x="330.0" y="855.0" type="line"/>
      <point x="330.0" y="1190.0" type="line"/>
      <point x="944.8" y="1190.0" type="line"/>
      <point x="944.8" y="1400.0" type="line"/>
      <point x="120.0" y="1400.0" type="line"/>
    </contour>
  </outline>
</glyph>
<glyph name="G" format="2">
  <advance width="1496.625"/>
  <unicode hex="0047"/>
  <outline>
    <contour>
      <point x="748.6" y="-26.0" type="curve" smooth="yes"/>
      <point x="1131.4" y="-26.0"/>
      <point x="1439.8" y="303.4"/>
      <point x="1436.0" y="703.4" type="curve"/>
      <point x="894.6" y="703.4" type="line"/>
      <point x="894.6" y="518.4" type="line"/>
      <point x="1189.4" y="518.4" type="line"/>
      <point x="1120.6" y="317.0"/>
      <point x="945.4" y="184.0"/>
      <point x="751.4" y="184.0" type="curve" smooth="yes"/>
      <point x="485.6" y="184.0"/>
      <point x="270.0" y="413.8"/>
      <point x="270.0" y="697.8" type="curve" smooth="yes"/>
      <point x="270.0" y="991.6"/>
      <point x="493.0" y="1216.0"/>
      <point x="750.0" y="1216.0" type="curve" smooth="yes"/>
      <point x="882.8" y="1216.0"/>
      <point x="1014.6" y="1154.8"/>
      <point x="1111.0" y="1035.8" type="curve"/>
      <point x="1298.6" y="1136.6" type="line"/>
      <point x="1156.8" y="1328.4"/>
      <point x="957.6" y="1424.6"/>
      <point x="752.8" y="1424.6" type="curve" smooth="yes"/>
      <point x="386.6" y="1424.6"/>
      <point x="60.0" y="1118.6"/>
      <point x="60.0" y="701.4" type="curve" smooth="yes"/>
      <point x="60.0" y="302.8"/>
      <point x="360.8" y="-26.0"/>
    </contour>
  </outline>
</glyph>
<glyph name="H" format="2">
  <advance width="1290.25"/>
  <unicode hex="0048"/>
  <outline>
    <contour>
      <point x="960.4" y="1400.0" type="line"/>
      <point x="960.4" y="855.0" type="line"/>
      <point x="330.0" y="855.0" type="line"/>
      <point x="330.0" y="1400.0" type="line"/>
      <point x="120.0" y="1400.0" type="line"/>
      <point x="120.0" y="0.0" type="line"/>
      <point x="330.0" y="0.0" type="line"/>
      <point x="330.0" y="645.0" type="line"/>
      <point x="960.4" y="645.0" type="line"/>
      <point x="960.4" y="0.0" type="line"/>
      <point x="1170.4" y="0.0" type="line"/>
      <point x="1170.4" y="1400.0" type="line"/>
    </contour>
  </outline>
</glyph>
<glyph name="J" format="2">
  <advance width="860.5"/>
  <unicode hex="004A"/>
  <outline>
    <contour>
      <point x="312.6" y="-26.0" type="curve" smooth="yes"/>
      <point x="548.6" y="-26.0"/>
      <point x="740.8" y="173.4"/>
      <point x="740.8" y="408.8" type="curve" smooth="yes"/>
      <point x="740.8" y="1400.0" type="line"/>
      <point x="530.8" y="1400.0" type="line"/>
      <point x="530.8" y="408.8" type="line" smooth="yes"/>
      <point x="530.8" y="289.0"/>
      <point x="432.4" y="184.0"/>
      <point x="312.6" y="184.0" type="curve" smooth="yes"/>
      <point x="254.6" y="184.0"/>
      <point x="207.8" y="206.6"/>
      <point x="174.4" y="234.8" type="curve"/>
      <point x="40.0" y="73.8" type="line"/>
      <point x="115.6" y="8.4"/>
      <point x="213.4" y="-26.0"/>
    </contour>
  </outline>
</glyph>
<glyph name="K" format="2">
  <advance width="1137.75"/>
  <unicode hex="004B"/>
  <outline>
    <contour>
      <point x="1102.6" y="0.0" type="line"/>
      <point x="551.6" y="739.4" type="line"/>
      <point x="1106.8" y="1400.0" type="line"/>
      <point x="832.4" y="1400.0" type="line"/>
      <point x="330.0" y="800.4" type="line"/>
      <point x="330.0" y="1400.0" type="line"/>
      <point x="120.0" y="1400.0" type="line"/>
      <point x="120.0" y="0.0" type="line"/>
      <point x="330.0" y="0.0" type="line"/>
      <point x="330.0" y="473.6" type="line"/>
      <point x="414.4" y="575.0" type="line"/>
      <point x="829.4" y="0.0" type="line"/>
    </contour>
  </outline>
</glyph>
<glyph name="L" format="2">
  <advance width="1032.5"/>
  <unicode hex="004C"/>
  <outline>
    <contour>
      <point x="120.0" y="0.0" type="line"/>
      <point x="932.8" y="0.0" type="line"/>
      <point x="932.8" y="210.0" type="line"/>
      <point x="330.0" y="210.0" type="line"/>
      <point x="330.0" y="1400.0" type="line"/>
      <point x="120.0" y="1400.0" type="line"/>
    </contour>
  </outline>
</glyph>
<glyph name="M" format="2">
  <advance width="1837.0"/>
  <unicode hex="004D"/>
  <outline>
    <contour>
      <point x="120.0" y="0.0" type="line"/>
      <point x="333.6" y="0.0" type="line"/>
      <point x="514.4" y="933.0" type="line"/>
      <point x="847.8" y="51.6" type="line"/>
      <point x="988.6" y="51.6" type="line"/>
      <point x="1322.0" y="933.0" type="line"/>
      <point x="1502.8" y="0.0" type="line"/>
      <point x="1717.0" y="0.0" type="line"/>
      <point x="1445.0" y="1400.0" type="line"/>
      <point x="1275.4" y="1400.0" type="line"/>
      <point x="918.8" y="459.4" type="line"/>
      <point x="561.0" y="1400.0" type="line"/>
      <point x="391.4" y="1400.0" type="line"/>
    </contour>
  </outline>
</glyph>
<glyph name="N" format="2">
  <advance width="1339.25"/>
  <unicode hex="004E"/>
  <outline>
    <contour>
      <point x="131.4" y="0.0" type="line"/>
      <point x="341.4" y="0.0" type="line"/>
      <point x="341.4" y="1020.6" type="line"/>
      <point x="981.8" y="0.0" type="line"/>
      <point x="1208.0" y="0.0" type="line"/>
      <point x="1208.0" y="1400.0" type="line"/>
      <point x="998.0" y="1400.0" type="line"/>
      <point x="998.0" y="379.4" type="line"/>
      <point x="358.8" y="1400.0" type="line"/>
      <point x="131.4" y="1400.0" type="line"/>
    </contour>
  </outline>
</glyph>
<glyph name="O" format="2">
  <advance width="1540.0"/>
  <unicode hex="004F"/>
  <outline>
    <contour>
      <point x="770.0" y="-26.0" type="curve" smooth="yes"/>
      <point x="1150.0" y="-26.0"/>
      <point x="1460.0" y="300.0"/>
      <point x="1460.0" y="700.0" type="curve" smooth="yes"/>
      <point x="1460.0" y="1100.0"/>
      <point x="1150.0" y="1426.0"/>
      <point x="770.0" y="1426.0" type="curve" smooth="yes"/>
      <point x="390.0" y="1426.0"/>
      <point x="80.0" y="1100.0"/>
      <point x="80.0" y="700.0" type="curve" smooth="yes"/>
      <point x="80.0" y="300.0"/>
      <point x="390.0" y="-26.0"/>
    </contour>
    <contour>
      <point x="770.0" y="184.0" type="curve" smooth="yes"/>
      <point x="505.6" y="184.0"/>
      <point x="290.0" y="416.8"/>
      <point x="290.0" y="700.0" type="curve" smooth="yes"/>
      <point x="290.0" y="981.4"/>
      <point x="504.4" y="1216.0"/>
      <point x="770.0" y="1216.0" type="curve" smooth="yes"/>
      <point x="1034.4" y="1216.0"/>
      <point x="1250.0" y="982.6"/>
      <point x="1250.0" y="700.0" type="curve" smooth="yes"/>
      <point x="1250.0" y="418.6"/>
      <point x="1035.6" y="184.0"/>
    </contour>
  </outline>
</glyph>
<glyph name="P" format="2">
  <advance width="1087.5"/>
  <unicode hex="0050"/>
  <outline>
    <contour>
      <point x="120.0" y="0.0" type="line"/>
      <point x="330.0" y="0.0" type="line"/>
      <point x="330.0" y="565.0" type="line"/>
      <point x="603.0" y="565.0" type="line" smooth="yes"/>
      <point x="822.0" y="565.0"/>
      <point x="1007.8" y="748.6"/>
      <point x="1007.8" y="982.8" type="curve" smooth="yes"/>
      <point x="1007.8" y="1213.0"/>
      <point x="829.4" y="1400.0"/>
      <point x="603.0" y="1400.0" type="curve" smooth="yes"/>
      <point x="120.0" y="1400.0" type="line"/>
    </contour>
    <contour>
      <point x="330.0" y="775.0" type="line"/>
      <point x="330.0" y="1217.8" type="line"/>
      <point x="581.6" y="1217.8" type="line" smooth="yes"/>
      <point x="700.0" y="1217.8"/>
      <point x="797.8" y="1121.0"/>
      <point x="797.8" y="996.4" type="curve" smooth="yes"/>
      <point x="797.8" y="871.8"/>
      <point x="700.0" y="775.0"/>
      <point x="581.6" y="775.0" type="curve" smooth="yes"/>
    </contour>
  </outline>
</glyph>
<glyph name="Q" format="2">
  <advance width="1566.75"/>
  <unicode hex="0051"/>
  <outline>
    <contour>
      <point x="1337.0" y="-36.4" type="line"/>
      <point x="1485.4" y="112.0" type="line"/>
      <point x="1322.4" y="274.4" type="line"/>
      <point x="1407.8" y="394.4"/>
      <point x="1459.4" y="542.8"/>
      <point x="1459.4" y="705.0" type="curve" smooth="yes"/>
      <point x="1459.4" y="1105.0"/>
      <point x="1150.0" y="1431.0"/>
      <point x="770.0" y="1431.0" type="curve" smooth="yes"/>
      <point x="389.4" y="1431.0"/>
      <point x="80.0" y="1105.0"/>
      <point x="80.0" y="705.0" type="curve" smooth="yes"/>
      <point x="80.0" y="303.6"/>
      <point x="389.4" y="-21.0"/>
      <point x="770.0" y="-21.0" type="curve" smooth="yes"/>
      <point x="923.0" y="-21.0"/>
      <point x="1064.8" y="32.4"/>
      <point x="1177.4" y="122.4" type="curve"/>
    </contour>
    <contour>
      <point x="770.0" y="189.0" type="curve" smooth="yes"/>
      <point x="506.8" y="189.0"/>
      <point x="290.0" y="420.4"/>
      <point x="290.0" y="705.0" type="curve" smooth="yes"/>
      <point x="290.0" y="985.8"/>
      <point x="504.4" y="1221.0"/>
      <point x="770.0" y="1221.0" type="curve" smooth="yes"/>
      <point x="1032.6" y="1221.0"/>
      <point x="1249.4" y="988.8"/>
      <point x="1249.4" y="705.0" type="curve" smooth="yes"/>
      <point x="1249.4" y="606.0"/>
      <point x="1220.0" y="509.6"/>
      <point x="1166.8" y="430.6" type="curve"/>
      <point x="1019.6" y="577.8" type="line"/>
      <point x="871.8" y="428.8" type="line"/>
      <point x="1024.8" y="275.8" type="line"/>
      <point x="953.4" y="220.8"/>
      <point x="861.8" y="189.0"/>
    </contour>
  </outline>
</glyph>
<glyph name="R" format="2">
  <advance width="1192.5"/>
  <unicode hex="0052"/>
  <outline>
    <contour>
      <point x="131.4" y="0.0" type="line"/>
      <point x="341.4" y="0.0" type="line"/>
      <point x="341.4" y="565.0" type="line"/>
      <point x="530.6" y="565.0" type="line"/>
      <point x="858.6" y="0.0" type="line"/>
      <point x="1101.4" y="0.0" type="line"/>
      <point x="763.4" y="583.4" type="line"/>
      <point x="931.4" y="634.4"/>
      <point x="1051.4" y="788.4"/>
      <point x="1051.4" y="982.8" type="curve" smooth="yes"/>
      <point x="1051.4" y="1214.4"/>
      <point x="874.4" y="1400.0"/>
      <point x="648.0" y="1400.0" type="curve" smooth="yes"/>
      <point x="131.4" y="1400.0" type="line"/>
    </contour>
    <contour>
      <point x="341.4" y="775.0" type="line"/>
      <point x="341.4" y="1217.8" type="line"/>
      <point x="625.8" y="1217.8" type="line" smooth="yes"/>
      <point x="743.6" y="1217.8"/>
      <point x="841.4" y="1121.0"/>
      <point x="841.4" y="996.4" type="curve" smooth="yes"/>
      <point x="841.4" y="871.8"/>
      <point x="743.6" y="775.0"/>
      <point x="625.8" y="775.0" type="curve" smooth="yes"/>
    </contour>
  </outline>
</glyph>
<glyph name="S" format="2">
  <advance width="1239.25"/>
  <unicode hex="0053"/>
  <outline>
    <contour>
      <point x="619.4" y="-26.0" type="curve" smooth="yes"/>
      <point x="895.8" y="-26.0"/>
      <point x="1135.8" y="138.6"/>
      <point x="1135.8" y="388.6" type="curve" smooth="yes"/>
      <point x="1135.8" y="634.6"/>
      <point x="896.0" y="760.6"/>
      <point x="619.4" y="805.0" type="curve" smooth="yes"/>
      <point x="448.4" y="833.8"/>
      <point x="313.6" y="859.6"/>
      <point x="313.6" y="1008.4" type="curve" smooth="yes"/>
      <point x="313.6" y="1128.4"/>
      <point x="461.4" y="1213.0"/>
      <point x="619.4" y="1211.6" type="curve" smooth="yes"/>
      <point x="768.6" y="1211.6"/>
      <point x="907.6" y="1144.6"/>
      <point x="941.4" y="1049.4" type="curve"/>
      <point x="1139.4" y="1120.8" type="line"/>
      <point x="1069.4" y="1312.8"/>
      <point x="844.6" y="1423.0"/>
      <point x="619.4" y="1423.0" type="curve" smooth="yes"/>
      <point x="346.4" y="1423.0"/>
      <point x="103.6" y="1258.4"/>
      <point x="103.6" y="1008.4" type="curve" smooth="yes"/>
      <point x="103.6" y="742.8"/>
      <point x="325.0" y="640.8"/>
      <point x="619.4" y="593.8" type="curve" smooth="yes"/>
      <point x="770.4" y="568.8"/>
      <point x="925.8" y="514.6"/>
      <point x="925.8" y="388.6" type="curve" smooth="yes"/>
      <point x="925.8" y="265.8"/>
      <point x="779.0" y="184.0"/>
      <point x="619.4" y="184.0" type="curve" smooth="yes"/>
      <point x="469.6" y="184.0"/>
      <point x="330.6" y="252.4"/>
      <point x="297.4" y="347.6" type="curve"/>
      <point x="100.0" y="274.8" type="line"/>
      <point x="167.8" y="86.6"/>
      <point x="390.0" y="-26.0"/>
    </contour>
  </outline>
</glyph>
<glyph name="T" format="2">
  <advance width="1259.25"/>
  <unicode hex="0054"/>
  <outline>
    <contour>
      <point x="1179.4" y="1400.0" type="line"/>
      <point x="80.0" y="1400.0" type="line"/>
      <point x="80.0" y="1190.0" type="line"/>
      <point x="524.4" y="1190.0" type="line"/>
      <point x="524.4" y="0.0" type="line"/>
      <point x="734.4" y="0.0" type="line"/>
      <point x="734.4" y="1190.0" type="line"/>
      <point x="1179.4" y="1190.0" type="line"/>
    </contour>
  </outline>
</glyph>
<glyph name="U" format="2">
  <advance width="1348.75"/>
  <unicode hex="0055"/>
  <outline>
    <contour>
      <point x="675.0" y="-26.0" type="curve" smooth="yes"/>
      <point x="1011.0" y="-26.0"/>
      <point x="1228.6" y="246.0"/>
      <point x="1228.6" y="584.0" type="curve" smooth="yes"/>
      <point x="1228.6" y="1400.0" type="line"/>
      <point x="1018.6" y="1400.0" type="line"/>
      <point x="1018.6" y="584.0" type="line" smooth="yes"/>
      <point x="1018.6" y="365.8"/>
      <point x="898.0" y="184.0"/>
      <point x="675.0" y="184.0" type="curve" smooth="yes"/>
      <point x="454.6" y="184.0"/>
      <point x="330.0" y="365.4"/>
      <point x="330.0" y="584.0" type="curve" smooth="yes"/>
      <point x="330.0" y="1400.0" type="line"/>
      <point x="120.0" y="1400.0" type="line"/>
      <point x="120.0" y="584.0" type="line" smooth="yes"/>
      <point x="120.0" y="246.0"/>
      <point x="339.0" y="-26.0"/>
    </contour>
  </outline>
</glyph>
<glyph name="V" format="2">
  <advance width="1321.75"/>
  <unicode hex="0056"/>
  <outline>
    <contour>
      <point x="528.0" y="0.0" type="line"/>
      <point x="793.0" y="0.0" type="line"/>
      <point x="1301.6" y="1400.0" type="line"/>
      <point x="1079.0" y="1400.0" type="line"/>
      <point x="660.8" y="249.8" type="line"/>
      <point x="242.6" y="1400.0" type="line"/>
      <point x="20.0" y="1400.0" type="line"/>
    </contour>
  </outline>
</glyph>
<glyph name="W" format="2">
  <advance width="1867.0"/>
  <unicode hex="0057"/>
  <outline>
    <contour>
      <point x="458.0" y="0.0" type="line"/>
      <point x="698.8" y="0.0" type="line"/>
      <point x="933.8" y="922.8" type="line"/>
      <point x="1169.6" y="0.0" type="line"/>
      <point x="1411.0" y="0.0" type="line"/>
      <point x="1767.0" y="1400.0" type="line"/>
      <point x="1550.0" y="1400.0" type="line"/>
      <point x="1289.6" y="377.4" type="line"/>
      <point x="1028.6" y="1400.0" type="line"/>
      <point x="838.4" y="1400.0" type="line"/>
      <point x="578.0" y="377.4" type="line"/>
      <point x="317.0" y="1400.0" type="line"/>
      <point x="100.0" y="1400.0" type="line"/>
    </contour>
  </outline>
</glyph>
<glyph name="X" format="2">
  <advance width="1405.0"/>
  <unicode hex="0058"/>
  <outline>
    <contour>
      <point x="60.0" y="0.0" type="line"/>
      <point x="321.0" y="0.0" type="line"/>
      <point x="702.8" y="524.8" type="line"/>
      <point x="1084.6" y="0.0" type="line"/>
      <point x="1345.0" y="0.0" type="line"/>
      <point x="833.0" y="704.0" type="line"/>
      <point x="1341.0" y="1402.0" type="line"/>
      <point x="1082.0" y="1402.0" type="line"/>
      <point x="702.8" y="881.8" type="line"/>
      <point x="323.0" y="1402.0" type="line"/>
      <point x="64.0" y="1402.0" type="line"/>
      <point x="572.6" y="704.0" type="line"/>
    </contour>
  </outline>
</glyph>
<glyph name="Y" format="2">
  <advance width="1285.5"/>
  <unicode hex="0059"/>
  <outline>
    <contour>
      <point x="978.0" y="1400.0" type="line"/>
      <point x="642.6" y="860.6" type="line"/>
      <point x="307.8" y="1400.0" type="line"/>
      <point x="60.0" y="1400.0" type="line"/>
      <point x="537.6" y="632.4" type="line"/>
      <point x="537.6" y="0.0" type="line"/>
      <point x="747.6" y="0.0" type="line"/>
      <point x="747.6" y="632.4" type="line"/>
      <point x="1225.8" y="1400.0" type="line"/>
    </contour>
  </outline>
</glyph>
<glyph name="Z" format="2">
  <advance width="1372.0"/>
  <unicode hex="005A"/>
  <outline>
    <contour>
      <point x="120.0" y="0.0" type="line"/>
      <point x="1252.0" y="0.0" type="line"/>
      <point x="1252.0" y="210.0" type="line"/>
      <point x="403.0" y="210.0" type="line"/>
      <point x="1252.0" y="1190.0" type="line"/>
      <point x="1252.0" y="1400.0" type="line"/>
      <point x="120.0" y="1400.0" type="line"/>
      <point x="120.0" y="1190.0" type="line"/>
      <point x="969.0" y="1190.0" type="line"/>
      <point x="120.0" y="210.0" type="line"/>
    </contour>
  </outline>
</glyph>
<glyph name="bracketleft" format="2">
  <advance width="607.5"/>
  <unicode hex="005B"/>
  <outline>
    <contour>
      <point x="507.8" y="98.0" type="line"/>
      <point x="330.0" y="98.0" type="line"/>
      <point x="330.0" y="1190.0" type="line"/>
      <point x="507.8" y="1190.0" type="line"/>
      <point x="507.8" y="1400.0" type="line"/>
      <point x="120.0" y="1400.0" type="line"/>
      <point x="120.0" y="-112.0" type="line"/>
      <point x="507.8" y="-112.0" type="line"/>
    </contour>
  </outline>
</glyph>
<glyph name="backslash" format="2">
  <advance width="774.75"/>
  <unicode hex="005C"/>
  <outline>
    <contour>
      <point x="484.6" y="-112.0" type="line"/>
      <point x="694.6" y="-112.0" type="line"/>
      <point x="290.0" y="1400.0" type="line"/>
      <point x="80.0" y="1400.0" type="line"/>
    </contour>
  </outline>
</glyph>
<glyph name="bracketright" format="2">
  <advance width="608.75"/>
  <unicode hex="005D"/>
  <outline>
    <contour>
      <point x="100.0" y="-112.0" type="line"/>
      <point x="488.6" y="-112.0" type="line"/>
      <point x="488.6" y="1400.0" type="line"/>
      <point x="100.0" y="1400.0" type="line"/>
      <point x="100.0" y="1190.0" type="line"/>
      <point x="278.6" y="1190.0" type="line"/>
      <point x="278.6" y="98.0" type="line"/>
      <point x="100.0" y="98.0" type="line"/>
    </contour>
  </outline>
</glyph>
<glyph name="asciicircum" format="2">
  <advance width="902.0"/>
  <unicode hex="005E"/>
  <outline>
    <contour>
      <point x="80.0" y="1000.0" type="line"/>
      <point x="303.4" y="1000.0" type="line"/>
      <point x="451.0" y="1405.6" type="line"/>
      <point x="598.0" y="1000.0" type="line"/>
      <point x="822.0" y="1000.0" type="line"/>
      <point x="586.0" y="1650.0" type="line"/>
      <point x="316.0" y="1650.0" type="line"/>
    </contour>
  </outline>
</glyph>
<glyph name="a" format="2">
  <advance width="1237.75"/>
  <unicode hex="0061"/>
  <outline>
    <contour>
      <point x="907.6" y="1000.0" type="line"/>
      <point x="916.8" y="853.0" type="line"/>
      <point x="843.4" y="955.4"/>
      <point x="731.8" y="1028.0"/>
      <point x="587.4" y="1028.0" type="curve"/>
      <point x="301.4" y="1028.0"/>
      <point x="70.4" y="795.6"/>
      <point x="71.4" y="508.6" type="curve"/>
      <point x="70.4" y="213.6"/>
      <point x="309.6" y="-26.0"/>
      <point x="604.6" y="-26.0" type="curve"/>
      <point x="740.0" y="-26.0"/>
      <point x="840.2" y="41.6"/>
      <point x="898.6" y="144.0" type="curve"/>
      <point x="907.2" y="0.0" type="line"/>
      <point x="1117.6" y="0.0" type="line"/>
      <point x="1117.6" y="1000.0" type="line"/>
    </contour>
    <contour>
      <point x="610.6" y="176.8" type="curve"/>
      <point x="444.2" y="176.8"/>
      <point x="296.4" y="316.6"/>
      <point x="283.6" y="491.4" type="curve"/>
      <point x="273.2" y="675.8"/>
      <point x="409.8" y="824.4"/>
      <point x="586.4" y="824.4" type="curve"/>
      <point x="755.4" y="824.4"/>
      <point x="879.6" y="684.8"/>
      <point x="891.4" y="508.6" type="curve"/>
      <point x="901.8" y="326.8"/>
      <point x="788.6" y="176.8"/>
    </contour>
  </outline>
</glyph>
<glyph name="b" format="2">
  <advance width="1227.75"/>
  <unicode hex="0062"/>
  <outline>
    <contour>
      <point x="640.8" y="1028.0" type="curve"/>
      <point x="501.8" y="1028.0"/>
      <point x="395.6" y="957.6"/>
      <point x="330.0" y="855.8" type="curve"/>
      <point x="330.0" y="1500.0" type="line"/>
      <point x="120.0" y="1500.0" type="line"/>
      <point x="120.0" y="0.0" type="line"/>
      <point x="330.0" y="0.0" type="line"/>
      <point x="330.0" y="146.8" type="line"/>
      <point x="395.6" y="44.4"/>
      <point x="501.8" y="-26.0"/>
      <point x="640.8" y="-26.0" type="curve"/>
      <point x="931.6" y="-26.0"/>
      <point x="1167.6" y="210.0"/>
      <point x="1167.6" y="501.4" type="curve"/>
      <point x="1167.6" y="792.0"/>
      <point x="931.6" y="1028.0"/>
    </contour>
    <contour>
      <point x="638.0" y="177.6" type="curve"/>
      <point x="466.8" y="177.6"/>
      <point x="347.6" y="321.4"/>
      <point x="347.6" y="501.4" type="curve"/>
      <point x="347.6" y="678.8"/>
      <point x="465.0" y="825.8"/>
      <point x="638.0" y="825.8" type="curve"/>
      <point x="809.4" y="825.8"/>
      <point x="952.6" y="681.8"/>
      <point x="952.6" y="501.4" type="curve"/>
      <point x="952.6" y="322.6"/>
      <point x="812.4" y="177.6"/>
    </contour>
  </outline>
</glyph>
<glyph name="c" format="2">
  <advance width="1019.25"/>
  <unicode hex="0063"/>
  <outline>
    <contour>
      <point x="771.0" y="284.8" type="line"/>
      <point x="719.4" y="224.4"/>
      <point x="642.8" y="184.0"/>
      <point x="560.0" y="184.0" type="curve"/>
      <point x="398.0" y="184.0"/>
      <point x="270.0" y="329.8"/>
      <point x="270.0" y="500.0" type="curve"/>
      <point x="270.0" y="670.4"/>
      <point x="395.6" y="818.0"/>
      <point x="560.0" y="818.0" type="curve"/>
      <point x="638.0" y="818.0"/>
      <point x="716.4" y="781.8"/>
      <point x="771.0" y="716.4" type="curve"/>
      <point x="959.4" y="818.0" type="line"/>
      <point x="868.0" y="946.0"/>
      <point x="723.4" y="1028.0"/>
      <point x="560.0" y="1028.0" type="curve"/>
      <point x="284.0" y="1028.0"/>
      <point x="60.0" y="792.0"/>
      <point x="60.0" y="500.0" type="curve"/>
      <point x="60.0" y="210.0"/>
      <point x="284.0" y="-26.0"/>
      <point x="560.0" y="-26.0" type="curve"/>
      <point x="723.4" y="-26.0"/>
      <point x="868.0" y="56.0"/>
      <point x="959.4" y="182.6" type="curve"/>
    </contour>
  </outline>
</glyph>
<glyph name="d" format="2">
  <advance width="1226.5"/>
  <unicode hex="0064"/>
  <outline>
    <contour>
      <point x="897.6" y="1500.0" type="line"/>
      <point x="897.6" y="855.8" type="line"/>
      <point x="832.0" y="957.6"/>
      <point x="726.4" y="1026.6"/>
      <point x="586.0" y="1026.6" type="curve"/>
      <point x="296.0" y="1026.6"/>
      <point x="60.0" y="790.6"/>
      <point x="60.0" y="500.0" type="curve"/>
      <point x="60.0" y="210.0"/>
      <point x="296.0" y="-26.0"/>
      <point x="586.0" y="-26.0" type="curve"/>
      <point x="726.4" y="-26.0"/>
      <point x="832.0" y="43.0"/>
      <point x="897.6" y="145.4" type="curve"/>
      <point x="897.6" y="0.0" type="line"/>
      <point x="1107.6" y="0.0" type="line"/>
      <point x="1107.6" y="1500.0" type="line"/>
    </contour>
    <contour>
      <point x="588.8" y="176.8" type="curve"/>
      <point x="418.8" y="176.8"/>
      <point x="275.0" y="319.4"/>
      <point x="275.0" y="500.0" type="curve"/>
      <point x="275.0" y="679.4"/>
      <point x="416.4" y="824.4"/>
      <point x="588.8" y="824.4" type="curve"/>
      <point x="761.4" y="824.4"/>
      <point x="880.0" y="680.6"/>
      <point x="880.0" y="500.0" type="curve"/>
      <point x="880.0" y="321.8"/>
      <point x="762.6" y="176.8"/>
    </contour>
  </outline>
</glyph>
<glyph name="e" format="2">
  <advance width="1119.25"/>
  <unicode hex="0065"/>
  <outline>
    <contour>
      <point x="560.0" y="-26.0" type="curve" smooth="yes"/>
      <point x="760.0" y="-26.0"/>
      <point x="932.0" y="98.0"/>
      <point x="1012.4" y="276.0" type="curve"/>
      <point x="798.8" y="325.4" type="line"/>
      <point x="745.6" y="237.8"/>
      <point x="660.0" y="183.6"/>
      <point x="560.0" y="184.0" type="curve" smooth="yes"/>
      <point x="415.4" y="185.4"/>
      <point x="310.0" y="288.6"/>
      <point x="285.0" y="426.8" type="curve"/>
      <point x="1053.4" y="426.8" type="line"/>
      <point x="1088.8" y="750.8"/>
      <point x="866.4" y="1028.0"/>
      <point x="560.0" y="1028.0" type="curve" smooth="yes"/>
      <point x="284.0" y="1028.0"/>
      <point x="60.0" y="792.0"/>
      <point x="60.0" y="500.4" type="curve" smooth="yes"/>
      <point x="60.0" y="210.0"/>
      <point x="284.0" y="-26.0"/>
    </contour>
    <contour>
      <point x="278.2" y="586.8" type="line"/>
      <point x="302.4" y="731.6"/>
      <point x="417.4" y="843.0"/>
      <point x="560.0" y="843.0" type="curve" smooth="yes"/>
      <point x="702.4" y="843.0"/>
      <point x="820.4" y="728.6"/>
      <point x="841.6" y="586.8" type="curve"/>
    </contour>
  </outline>
</glyph>
<glyph name="f" format="2">
  <advance width="708.75"/>
  <unicode hex="0066"/>
  <outline>
    <contour>
      <point x="378.0" y="1226.4" type="line"/>
      <point x="378.0" y="1275.0"/>
      <point x="418.4" y="1314.0"/>
      <point x="467.0" y="1314.0" type="curve"/>
      <point x="493.8" y="1314.0"/>
      <point x="521.2" y="1301.0"/>
      <point x="536.6" y="1277.4" type="curve"/>
      <point x="687.8" y="1425.8" type="line"/>
      <point x="627.6" y="1491.8"/>
      <point x="547.0" y="1524.0"/>
      <point x="467.0" y="1524.0" type="curve"/>
      <point x="301.6" y="1524.0"/>
      <point x="168.0" y="1390.4"/>
      <point x="168.0" y="1226.4" type="curve"/>
      <point x="168.0" y="1000.0" type="line"/>
      <point x="50.0" y="1000.0" type="line"/>
      <point x="50.0" y="790.0" type="line"/>
      <point x="168.0" y="790.0" type="line"/>
      <point x="168.0" y="0.0" type="line"/>
      <point x="378.0" y="0.0" type="line"/>
      <point x="378.0" y="790.0" type="line"/>
      <point x="660.0" y="790.0" type="line"/>
      <point x="660.0" y="1000.0" type="line"/>
      <point x="378.0" y="1000.0" type="line"/>
    </contour>
  </outline>
</glyph>
<glyph name="g" format="2">
  <advance width="1209.75"/>
  <unicode hex="0067"/>
  <outline>
    <contour>
      <point x="879.6" y="1000.0" type="line"/>
      <point x="879.6" y="858.6" type="line"/>
      <point x="814.8" y="959.0"/>
      <point x="710.6" y="1026.6"/>
      <point x="576.4" y="1026.6" type="curve" smooth="yes"/>
      <point x="291.8" y="1026.6"/>
      <point x="60.0" y="790.6"/>
      <point x="60.0" y="500.0" type="curve" smooth="yes"/>
      <point x="60.0" y="210.0"/>
      <point x="291.8" y="-26.0"/>
      <point x="576.4" y="-26.0" type="curve" smooth="yes"/>
      <point x="710.6" y="-26.0"/>
      <point x="814.8" y="41.6"/>
      <point x="879.6" y="142.0" type="curve"/>
      <point x="879.6" y="-25.0" type="line" smooth="yes"/>
      <point x="879.6" y="-181.4"/>
      <point x="722.6" y="-288.6"/>
      <point x="559.4" y="-288.6" type="curve" smooth="yes"/>
      <point x="433.6" y="-288.6"/>
      <point x="308.6" y="-200.0"/>
      <point x="269.6" y="-76.4" type="curve"/>
      <point x="77.8" y="-163.8" type="line"/>
      <point x="149.6" y="-355.0"/>
      <point x="348.6" y="-500.0"/>
      <point x="559.4" y="-500.0" type="curve" smooth="yes"/>
      <point x="837.6" y="-500.0"/>
      <point x="1089.6" y="-302.0"/>
      <point x="1089.6" y="-25.0" type="curve" smooth="yes"/>
      <point x="1089.6" y="1000.0" type="line"/>
    </contour>
    <contour>
      <point x="578.6" y="176.8" type="curve" smooth="yes"/>
      <point x="412.8" y="176.8"/>
      <point x="275.0" y="320.0"/>
      <point x="275.0" y="500.0" type="curve" smooth="yes"/>
      <point x="275.0" y="679.4"/>
      <point x="410.4" y="824.4"/>
      <point x="578.6" y="824.4" type="curve" smooth="yes"/>
      <point x="747.6" y="824.4"/>
      <point x="866.8" y="677.6"/>
      <point x="866.8" y="500.0" type="curve" smooth="yes"/>
      <point x="866.8" y="324.8"/>
      <point x="749.4" y="176.8"/>
    </contour>
  </outline>
</glyph>
<glyph name="h" format="2">
  <advance width="1125.5"/>
  <unicode hex="0068"/>
  <outline>
    <contour>
      <point x="1045.8" y="522.6" type="line"/>
      <point x="1041.8" y="797.4"/>
      <point x="866.6" y="1026.6"/>
      <point x="596.6" y="1026.6" type="curve"/>
      <point x="478.6" y="1026.6"/>
      <point x="385.6" y="990.6"/>
      <point x="330.0" y="884.6" type="curve"/>
      <point x="330.0" y="1500.0" type="line"/>
      <point x="120.0" y="1500.0" type="line"/>
      <point x="120.0" y="0.0" type="line"/>
      <point x="331.4" y="0.0" type="line"/>
      <point x="331.4" y="518.6" type="line"/>
      <point x="331.4" y="687.8"/>
      <point x="420.6" y="824.4"/>
      <point x="576.6" y="824.4" type="curve"/>
      <point x="719.6" y="824.4"/>
      <point x="835.8" y="687.8"/>
      <point x="835.8" y="518.6" type="curve"/>
      <point x="835.8" y="0.0" type="line"/>
      <point x="1045.8" y="0.0" type="line"/>
    </contour>
  </outline>
</glyph>
<glyph name="i" format="2">
  <advance width="462.5"/>
  <unicode hex="0069"/>
  <outline>
    <contour>
      <point x="123.8" y="1000.0" type="line"/>
      <point x="123.8" y="0.0" type="line"/>
      <point x="333.8" y="0.0" type="line"/>
      <point x="333.8" y="1000.0" type="line"/>
    </contour>
    <contour>
      <point x="230.4" y="1137.8" type="curve"/>
      <point x="291.6" y="1137.8"/>
      <point x="341.4" y="1187.6"/>
      <point x="341.4" y="1247.6" type="curve"/>
      <point x="341.4" y="1308.0"/>
      <point x="291.6" y="1358.6"/>
      <point x="230.4" y="1358.6" type="curve"/>
      <point x="170.0" y="1358.6"/>
      <point x="120.0" y="1308.0"/>
      <point x="120.0" y="1247.6" type="curve"/>
      <point x="120.0" y="1187.6"/>
      <point x="170.0" y="1137.8"/>
    </contour>
  </outline>
</glyph>
<glyph name="j" format="2">
  <advance width="508.25"/>
  <unicode hex="006A"/>
  <outline>
    <contour>
      <point x="-80.0" y="-500.0" type="line"/>
      <point x="163.4" y="-500.0"/>
      <point x="352.4" y="-309.0"/>
      <point x="352.4" y="-73.0" type="curve"/>
      <point x="352.4" y="1000.0" type="line"/>
      <point x="142.4" y="1000.0" type="line"/>
      <point x="142.4" y="-73.0" type="line"/>
      <point x="142.4" y="-195.4"/>
      <point x="44.599999999999994" y="-290.0"/>
      <point x="-80.0" y="-290.0" type="curve"/>
    </contour>
    <contour>
      <point x="247.4" y="1137.8" type="curve"/>
      <point x="307.8" y="1137.8"/>
      <point x="358.4" y="1187.8"/>
      <point x="358.4" y="1247.6" type="curve"/>
      <point x="358.4" y="1309.4"/>
      <point x="307.8" y="1358.6"/>
      <point x="247.4" y="1358.6" type="curve"/>
      <point x="185.6" y="1358.6"/>
      <point x="137.0" y="1309.4"/>
      <point x="137.0" y="1247.6" type="curve"/>
      <point x="137.0" y="1187.8"/>
      <point x="185.6" y="1137.8"/>
    </contour>
  </outline>
</glyph>
<glyph name="k" format="2">
  <advance width="1052.75"/>
  <unicode hex="006B"/>
  <outline>
    <contour>
      <point x="987.6" y="0.0" type="line"/>
      <point x="644.6" y="593.4" type="line"/>
      <point x="985.6" y="1000.0" type="line"/>
      <point x="711.8" y="1000.0" type="line"/>
      <point x="341.4" y="558.4" type="line"/>
      <point x="341.4" y="1500.0" type="line"/>
      <point x="131.4" y="1500.0" type="line"/>
      <point x="131.4" y="0.0" type="line"/>
      <point x="341.4" y="0.0" type="line"/>
      <point x="341.4" y="231.6" type="line"/>
      <point x="501.0" y="422.0" type="line"/>
      <point x="746.0" y="0.0" type="line"/>
    </contour>
  </outline>
</glyph>
<glyph name="l" format="2">
  <advance width="472.5"/>
  <unicode hex="006C"/>
  <outline>
    <contour>
      <point x="131.4" y="0.6" type="line"/>
      <point x="341.4" y="0.6" type="line"/>
      <point x="341.4" y="1500.0" type="line"/>
      <point x="131.4" y="1500.0" type="line"/>
    </contour>
  </outline>
</glyph>
<glyph name="m" format="2">
  <advance width="1725.75"/>
  <unicode hex="006D"/>
  <outline>
    <contour>
      <point x="87.8" y="0.0" type="line"/>
      <point x="297.8" y="0.0" type="line"/>
      <point x="297.8" y="531.4" type="line" smooth="yes"/>
      <point x="297.8" y="676.8"/>
      <point x="393.4" y="802.6"/>
      <point x="524.4" y="802.6" type="curve" smooth="yes"/>
      <point x="661.0" y="802.6"/>
      <point x="757.8" y="684.6"/>
      <point x="757.8" y="538.6" type="curve" smooth="yes"/>
      <point x="757.8" y="0.0" type="line"/>
      <point x="967.8" y="0.0" type="line"/>
      <point x="967.8" y="538.6" type="line" smooth="yes"/>
      <point x="967.8" y="684.6"/>
      <point x="1064.6" y="802.6"/>
      <point x="1201.8" y="802.6" type="curve" smooth="yes"/>
      <point x="1338.8" y="802.6"/>
      <point x="1428.4" y="684.6"/>
      <point x="1428.4" y="538.6" type="curve" smooth="yes"/>
      <point x="1428.4" y="0.0" type="line"/>
      <point x="1638.4" y="0.0" type="line"/>
      <point x="1638.4" y="538.6" type="line" smooth="yes"/>
      <point x="1638.4" y="797.4"/>
      <point x="1457.4" y="1012.6"/>
      <point x="1201.8" y="1012.6" type="curve" smooth="yes"/>
      <point x="1057.8" y="1012.6"/>
      <point x="941.2" y="944.6"/>
      <point x="862.8" y="827.2" type="curve"/>
      <point x="785.4" y="942.8"/>
      <point x="670.8" y="1012.6"/>
      <point x="524.4" y="1012.6" type="curve" smooth="yes"/>
      <point x="426.6" y="1012.6"/>
      <point x="359.6" y="970.4"/>
      <point x="297.8" y="891.6" type="curve"/>
      <point x="297.8" y="1000.0" type="line"/>
      <point x="87.8" y="1000.0" type="line"/>
    </contour>
  </outline>
</glyph>
<glyph name="n" format="2">
  <advance width="1149.25"/>
  <unicode hex="006E"/>
  <outline>
    <contour>
      <point x="1049.4" y="524.0" type="line"/>
      <point x="1046.8" y="798.8"/>
      <point x="871.6" y="1028.0"/>
      <point x="601.6" y="1028.0" type="curve"/>
      <point x="478.6" y="1028.0"/>
      <point x="379.8" y="965.6"/>
      <point x="310.0" y="866.0" type="curve"/>
      <point x="310.0" y="1000.0" type="line"/>
      <point x="100.0" y="1000.0" type="line"/>
      <point x="100.0" y="0.0" type="line"/>
      <point x="310.0" y="0.0" type="line"/>
      <point x="310.0" y="520.0" type="line"/>
      <point x="310.0" y="687.8"/>
      <point x="413.4" y="825.8"/>
      <point x="568.0" y="825.8" type="curve"/>
      <point x="724.6" y="825.8"/>
      <point x="839.4" y="687.8"/>
      <point x="839.4" y="520.0" type="curve"/>
      <point x="839.4" y="0.0" type="line"/>
      <point x="1049.4" y="0.0" type="line"/>
    </contour>
  </outline>
</glyph>
<glyph name="o" format="2">
  <advance width="1120.0"/>
  <unicode hex="006F"/>
  <outline>
    <contour>
      <point x="560.0" y="-26.0" type="curve" smooth="yes"/>
      <point x="836.0" y="-26.0"/>
      <point x="1060.0" y="210.0"/>
      <point x="1060.0" y="500.0" type="curve" smooth="yes"/>
      <point x="1060.0" y="792.0"/>
      <point x="836.0" y="1028.0"/>
      <point x="560.0" y="1028.0" type="curve" smooth="yes"/>
      <point x="284.0" y="1028.0"/>
      <point x="60.0" y="792.0"/>
      <point x="60.0" y="500.0" type="curve" smooth="yes"/>
      <point x="60.0" y="210.0"/>
      <point x="284.0" y="-26.0"/>
    </contour>
    <contour>
      <point x="560.0" y="184.0" type="curve" smooth="yes"/>
      <point x="402.8" y="184.0"/>
      <point x="270.0" y="322.8"/>
      <point x="270.0" y="500.0" type="curve" smooth="yes"/>
      <point x="270.0" y="670.6"/>
      <point x="396.4" y="818.0"/>
      <point x="560.0" y="818.0" type="curve" smooth="yes"/>
      <point x="720.8" y="818.0"/>
      <point x="850.0" y="673.4"/>
      <point x="850.0" y="500.0" type="curve" smooth="yes"/>
      <point x="850.0" y="330.0"/>
      <point x="724.4" y="184.0"/>
    </contour>
  </outline>
</glyph>
<glyph name="p" format="2">
  <advance width="1246.5"/>
  <unicode hex="0070"/>
  <outline>
    <contour>
      <point x="330.0" y="-500.0" type="line"/>
      <point x="330.0" y="144.8" type="line"/>
      <point x="395.6" y="42.4"/>
      <point x="500.4" y="-28.0"/>
      <point x="640.8" y="-28.0" type="curve"/>
      <point x="931.6" y="-28.0"/>
      <point x="1166.8" y="208.0"/>
      <point x="1166.8" y="500.0" type="curve"/>
      <point x="1166.8" y="790.0"/>
      <point x="931.6" y="1026.0"/>
      <point x="640.8" y="1026.0" type="curve"/>
      <point x="500.4" y="1026.0"/>
      <point x="395.6" y="955.6"/>
      <point x="330.0" y="853.8" type="curve"/>
      <point x="330.0" y="1000.0" type="line"/>
      <point x="120.0" y="1000.0" type="line"/>
      <point x="120.0" y="-500.0" type="line"/>
    </contour>
    <contour>
      <point x="638.0" y="823.8" type="curve"/>
      <point x="812.4" y="823.8"/>
      <point x="952.6" y="677.4"/>
      <point x="952.6" y="500.0" type="curve"/>
      <point x="952.6" y="318.8"/>
      <point x="809.4" y="175.6"/>
      <point x="638.0" y="175.6" type="curve"/>
      <point x="465.0" y="175.6"/>
      <point x="347.6" y="321.8"/>
      <point x="347.6" y="500.0" type="curve"/>
      <point x="347.6" y="678.6"/>
      <point x="466.8" y="823.8"/>
    </contour>
  </outline>
</glyph>
<glyph name="q" format="2">
  <advance width="1246.5"/>
  <unicode hex="0071"/>
  <outline>
    <contour>
      <point x="606.0" y="-28.0" type="curve"/>
      <point x="746.4" y="-28.0"/>
      <point x="850.6" y="42.4"/>
      <point x="916.8" y="144.8" type="curve"/>
      <point x="916.8" y="-500.0" type="line"/>
      <point x="1126.8" y="-500.0" type="line"/>
      <point x="1126.8" y="1000.0" type="line"/>
      <point x="916.8" y="1000.0" type="line"/>
      <point x="916.8" y="853.8" type="line"/>
      <point x="850.6" y="955.6"/>
      <point x="746.4" y="1026.0"/>
      <point x="606.0" y="1026.0" type="curve"/>
      <point x="316.0" y="1026.0"/>
      <point x="80.0" y="790.0"/>
      <point x="80.0" y="500.0" type="curve"/>
      <point x="80.0" y="208.0"/>
      <point x="316.0" y="-28.0"/>
    </contour>
    <contour>
      <point x="608.8" y="823.8" type="curve"/>
      <point x="781.4" y="823.8"/>
      <point x="898.6" y="678.6"/>
      <point x="898.6" y="500.0" type="curve"/>
      <point x="898.6" y="321.8"/>
      <point x="782.6" y="175.6"/>
      <point x="608.8" y="175.6" type="curve"/>
      <point x="437.4" y="175.6"/>
      <point x="295.0" y="318.8"/>
      <point x="295.0" y="500.0" type="curve"/>
      <point x="295.0" y="677.4"/>
      <point x="434.4" y="823.8"/>
    </contour>
  </outline>
</glyph>
<glyph name="r" format="2">
  <advance width="775.75"/>
  <unicode hex="0072"/>
  <outline>
    <contour>
      <point x="712.0" y="788.6" type="curve"/>
      <point x="745.6" y="1012.8" type="line"/>
      <point x="708.0" y="1024.8"/>
      <point x="666.4" y="1026.6"/>
      <point x="622.8" y="1026.6" type="curve" smooth="yes"/>
      <point x="499.8" y="1026.6"/>
      <point x="399.8" y="964.8"/>
      <point x="330.0" y="866.0" type="curve"/>
      <point x="330.0" y="998.6" type="line"/>
      <point x="120.0" y="998.6" type="line"/>
      <point x="120.0" y="0.0" type="line"/>
      <point x="331.4" y="0.0" type="line"/>
      <point x="331.4" y="518.6" type="line" smooth="yes"/>
      <point x="331.4" y="687.8"/>
      <point x="433.4" y="824.4"/>
      <point x="588.6" y="824.4" type="curve" smooth="yes"/>
      <point x="636.0" y="824.4"/>
      <point x="677.8" y="810.6"/>
    </contour>
  </outline>
</glyph>
<glyph name="s" format="2">
  <advance width="885.75"/>
  <unicode hex="0073"/>
  <outline>
    <contour>
      <point x="430.0" y="-18.6" type="curve" smooth="yes"/>
      <point x="632.4" y="-31.4"/>
      <point x="824.4" y="96.6"/>
      <point x="824.4" y="285.8" type="curve" smooth="yes"/>
      <point x="828.0" y="455.4"/>
      <point x="663.0" y="540.8"/>
      <point x="485.0" y="598.0" type="curve" smooth="yes"/>
      <point x="386.4" y="629.4"/>
      <point x="280.0" y="638.0"/>
      <point x="280.0" y="726.0" type="curve" smooth="yes"/>
      <point x="280.0" y="815.0"/>
      <point x="365.6" y="856.8"/>
      <point x="468.6" y="852.6" type="curve" smooth="yes"/>
      <point x="548.8" y="849.0"/>
      <point x="628.0" y="803.4"/>
      <point x="658.6" y="744.6" type="curve"/>
      <point x="825.6" y="843.8" type="line"/>
      <point x="754.0" y="962.0"/>
      <point x="612.4" y="1034.0"/>
      <point x="452.8" y="1034.0" type="curve" smooth="yes"/>
      <point x="258.4" y="1034.0"/>
      <point x="82.8" y="913.8"/>
      <point x="82.8" y="721.0" type="curve" smooth="yes"/>
      <point x="82.8" y="543.6"/>
      <point x="242.8" y="456.4"/>
      <point x="440.0" y="411.6" type="curve" smooth="yes"/>
      <point x="526.6" y="389.8"/>
      <point x="629.4" y="369.0"/>
      <point x="629.4" y="283.0" type="curve" smooth="yes"/>
      <point x="629.4" y="203.0"/>
      <point x="542.4" y="161.4"/>
      <point x="451.4" y="161.4" type="curve" smooth="yes"/>
      <point x="355.4" y="161.4"/>
      <point x="265.4" y="218.4"/>
      <point x="238.8" y="272.8" type="curve"/>
      <point x="60.0" y="196.0" type="line"/>
      <point x="115.6" y="69.6"/>
      <point x="270.8" y="-10.0"/>
    </contour>
  </outline>
</glyph>
<glyph name="t" format="2">
  <advance width="707.5"/>
  <unicode hex="0074"/>
  <outline>
    <contour>
      <point x="648.4" y="790.0" type="line"/>
      <point x="648.4" y="1000.0" type="line"/>
      <point x="439.4" y="1000.0" type="line"/>
      <point x="438.8" y="1314.0" type="line"/>
      <point x="228.8" y="1314.0" type="line"/>
      <point x="229.4" y="1000.0" type="line"/>
      <point x="70.6" y="1000.0" type="line"/>
      <point x="70.6" y="790.0" type="line"/>
      <point x="229.4" y="790.0" type="line"/>
      <point x="228.8" y="0.0" type="line"/>
      <point x="438.8" y="0.0" type="line"/>
      <point x="439.4" y="790.0" type="line"/>
    </contour>
  </outline>
</glyph>
<glyph name="u" format="2">
  <advance width="1189.25"/>
  <unicode hex="0075"/>
  <outline>
    <contour>
      <point x="120.0" y="478.0" type="line"/>
      <point x="122.6" y="202.4"/>
      <point x="297.8" y="-27.4"/>
      <point x="567.8" y="-27.4" type="curve"/>
      <point x="690.8" y="-27.4"/>
      <point x="789.6" y="36.4"/>
      <point x="859.4" y="134.6" type="curve"/>
      <point x="859.4" y="0.0" type="line"/>
      <point x="1069.4" y="0.0" type="line"/>
      <point x="1069.4" y="1000.0" type="line"/>
      <point x="859.4" y="1000.0" type="line"/>
      <point x="859.4" y="482.0" type="line"/>
      <point x="859.4" y="313.4"/>
      <point x="756.0" y="176.8"/>
      <point x="601.4" y="176.8" type="curve"/>
      <point x="444.8" y="176.8"/>
      <point x="330.0" y="313.4"/>
      <point x="330.0" y="482.0" type="curve"/>
      <point x="330.0" y="1000.0" type="line"/>
      <point x="120.0" y="1000.0" type="line"/>
    </contour>
  </outline>
</glyph>
<glyph name="v" format="2">
  <advance width="1119.0"/>
  <unicode hex="0076"/>
  <outline>
    <contour>
      <point x="694.4" y="0.0" type="line"/>
      <point x="1059.0" y="1001.8" type="line"/>
      <point x="835.0" y="1001.8" type="line"/>
      <point x="559.8" y="242.60000000000002" type="line"/>
      <point x="284.0" y="1001.8" type="line"/>
      <point x="60.0" y="1001.8" type="line"/>
      <point x="424.6" y="0.0" type="line"/>
    </contour>
  </outline>
</glyph>
<glyph name="w" format="2">
  <advance width="1679.0"/>
  <unicode hex="0077"/>
  <outline>
    <contour>
      <point x="604.0" y="0.0" type="line"/>
      <point x="838.6" y="703.6" type="line"/>
      <point x="1074.4" y="0.0" type="line"/>
      <point x="1284.4" y="0.0" type="line"/>
      <point x="1619.0" y="1000.6" type="line"/>
      <point x="1412.6" y="1000.6" type="line"/>
      <point x="1178.4" y="300.6" type="line"/>
      <point x="945.0" y="1000.6" type="line"/>
      <point x="734.0" y="1000.6" type="line"/>
      <point x="500.6" y="300.6" type="line"/>
      <point x="265.8" y="1000.6" type="line"/>
      <point x="60.0" y="1000.6" type="line"/>
      <point x="394.6" y="0.0" type="line"/>
    </contour>
  </outline>
</glyph>
<glyph name="x" format="2">
  <advance width="1151.0"/>
  <unicode hex="0078"/>
  <outline>
    <contour>
      <point x="80.0" y="0.0" type="line"/>
      <point x="339.0" y="0.0" type="line"/>
      <point x="575.4" y="324.8" type="line"/>
      <point x="812.0" y="0.0" type="line"/>
      <point x="1071.0" y="0.0" type="line"/>
      <point x="705.0" y="502.0" type="line"/>
      <point x="1068.8" y="1001.8" type="line"/>
      <point x="809.8" y="1001.8" type="line"/>
      <point x="575.4" y="681.8" type="line"/>
      <point x="341.8" y="1001.8" type="line"/>
      <point x="82.8" y="1001.8" type="line"/>
      <point x="446.0" y="502.0" type="line"/>
    </contour>
  </outline>
</glyph>
<glyph name="y" format="2">
  <advance width="1108.5"/>
  <unicode hex="0079"/>
  <outline>
    <contour>
      <point x="805.4" y="1000.0" type="line"/>
      <point x="544.4" y="287.6" type="line"/>
      <point x="309.6" y="1000.0" type="line"/>
      <point x="80.0" y="1000.0" type="line"/>
      <point x="439.4" y="0.6" type="line"/>
      <point x="258.8" y="-500.0" type="line"/>
      <point x="481.4" y="-500.0" type="line"/>
      <point x="1028.8" y="1000.0" type="line"/>
    </contour>
  </outline>
</glyph>
<glyph name="z" format="2">
  <advance width="1079.0"/>
  <unicode hex="007A"/>
  <outline>
    <contour>
      <point x="966.8" y="790.0" type="line"/>
      <point x="966.8" y="1000.0" type="line"/>
      <point x="112.8" y="1000.0" type="line"/>
      <point x="112.8" y="790.0" type="line"/>
      <point x="665.4" y="790.0" type="line"/>
      <point x="112.8" y="210.0" type="line"/>
      <point x="112.8" y="0.0" type="line"/>
      <point x="966.8" y="0.0" type="line"/>
      <point x="966.8" y="210.0" type="line"/>
      <point x="413.6" y="210.0" type="line"/>
    </contour>
  </outline>
</glyph>
<glyph name="braceleft" format="2">
  <advance width="815.0"/>
  <unicode hex="007B"/>
  <outline>
    <contour>
      <point x="618.4" y="-112.6" type="curve" smooth="yes"/>
      <point x="715.0" y="-112.6" type="line"/>
      <point x="715.0" y="97.4" type="line"/>
      <point x="618.4" y="97.4" type="line" smooth="yes"/>
      <point x="540.6" y="97.4"/>
      <point x="478.4" y="159.6"/>
      <point x="478.4" y="237.4" type="curve" smooth="yes"/>
      <point x="478.4" y="490.4" type="line" smooth="yes"/>
      <point x="474.4" y="562.8"/>
      <point x="418.0" y="580.4"/>
      <point x="374.8" y="643.4" type="curve" smooth="yes"/>
      <point x="416.8" y="701.6"/>
      <point x="474.4" y="726.0"/>
      <point x="478.4" y="797.0" type="curve" smooth="yes"/>
      <point x="478.4" y="1050.0" type="line" smooth="yes"/>
      <point x="478.4" y="1127.8"/>
      <point x="541.8" y="1190.0"/>
      <point x="618.4" y="1190.0" type="curve" smooth="yes"/>
      <point x="715.0" y="1190.0" type="line"/>
      <point x="715.0" y="1400.0" type="line"/>
      <point x="618.4" y="1400.0" type="line" smooth="yes"/>
      <point x="424.4" y="1400.0"/>
      <point x="268.4" y="1242.0"/>
      <point x="268.4" y="1050.0" type="curve" smooth="yes"/>
      <point x="268.4" y="804.0" type="line" smooth="yes"/>
      <point x="266.0" y="732.6"/>
      <point x="120.0" y="725.4"/>
      <point x="120.0" y="643.4" type="curve" smooth="yes"/>
      <point x="120.0" y="559.4"/>
      <point x="266.0" y="559.8"/>
      <point x="268.4" y="482.0" type="curve" smooth="yes"/>
      <point x="268.4" y="237.4" type="line" smooth="yes"/>
      <point x="268.4" y="44.0"/>
      <point x="424.4" y="-112.6"/>
    </contour>
  </outline>
</glyph>
<glyph name="braceright" format="2">
  <advance width="815.0"/>
  <unicode hex="007D"/>
  <outline>
    <contour>
      <point x="100.0" y="-112.6" type="line"/>
      <point x="196.6" y="-112.6" type="line" smooth="yes"/>
      <point x="390.6" y="-112.6"/>
      <point x="546.6" y="44.0"/>
      <point x="546.6" y="237.4" type="curve" smooth="yes"/>
      <point x="546.6" y="482.0" type="line" smooth="yes"/>
      <point x="549.0" y="559.8"/>
      <point x="695.0" y="559.4"/>
      <point x="695.0" y="643.4" type="curve" smooth="yes"/>
      <point x="695.0" y="725.4"/>
      <point x="549.0" y="732.6"/>
      <point x="546.6" y="804.0" type="curve" smooth="yes"/>
      <point x="546.6" y="1050.0" type="line" smooth="yes"/>
      <point x="546.6" y="1242.0"/>
      <point x="390.6" y="1400.0"/>
      <point x="196.6" y="1400.0" type="curve" smooth="yes"/>
      <point x="100.0" y="1400.0" type="line"/>
      <point x="100.0" y="1190.0" type="line"/>
      <point x="196.6" y="1190.0" type="line" smooth="yes"/>
      <point x="273.8" y="1190.0"/>
      <point x="336.6" y="1127.8"/>
      <point x="336.6" y="1050.0" type="curve" smooth="yes"/>
      <point x="336.6" y="797.0" type="line"/>
      <point x="340.6" y="726.0"/>
      <point x="398.8" y="701.6"/>
      <point x="440.8" y="643.4" type="curve" smooth="yes"/>
      <point x="397.0" y="580.4"/>
      <point x="340.6" y="562.8"/>
      <point x="336.6" y="490.4" type="curve"/>
      <point x="336.6" y="237.4" type="line" smooth="yes"/>
      <point x="336.6" y="159.6"/>
      <point x="274.4" y="97.4"/>
      <point x="196.6" y="97.4" type="curve" smooth="yes"/>
      <point x="100.0" y="97.4" type="line"/>
    </contour>
  </outline>
</glyph>
<glyph name="asciitilde" format="2">
  <advance width="1278.5"/>
  <unicode hex="007E"/>
  <outline>
    <contour>
      <point x="940.2" y="406.2" type="curve" smooth="yes"/>
      <point x="1114.8" y="406.2"/>
      <point x="1225.2" y="561.4"/>
      <point x="1192.8" y="735.6" type="curve"/>
      <point x="987.6" y="733.4" type="line"/>
      <point x="998.4" y="662.4"/>
      <point x="959.4" y="599.6"/>
      <point x="887.2" y="599.6" type="curve" smooth="yes"/>
      <point x="742.4" y="599.6"/>
      <point x="536.8" y="793.8"/>
      <point x="367.8" y="793.8" type="curve" smooth="yes"/>
      <point x="190.2" y="793.8"/>
      <point x="53.8" y="630.4"/>
      <point x="84.4" y="461.6" type="curve"/>
      <point x="290.2" y="461.4" type="line"/>
      <point x="279.4" y="529.8"/>
      <point x="315.6" y="596.6"/>
      <point x="387.2" y="595.4" type="curve" smooth="yes"/>
      <point x="524.2" y="596.6"/>
      <point x="767.6" y="406.2"/>
    </contour>
  </outline>
</glyph>
<glyph name="exclamdown" format="2">
  <advance width="405.0"/>
  <unicode hex="00A1"/>
  <outline>
    <contour>
      <point x="189.0" y="1026.0" type="curve"/>
      <point x="128.6" y="1026.0"/>
      <point x="80.0" y="977.4"/>
      <point x="80.0" y="913.6" type="curve"/>
      <point x="80.0" y="853.8"/>
      <point x="128.6" y="804.6"/>
      <point x="189.0" y="804.6" type="curve"/>
      <point x="251.4" y="804.6"/>
      <point x="300.0" y="853.8"/>
      <point x="300.0" y="913.6" type="curve"/>
      <point x="300.0" y="977.4"/>
      <point x="251.4" y="1026.0"/>
    </contour>
    <contour>
      <point x="279.0" y="580.0" type="line"/>
      <point x="100.4" y="580.0" type="line"/>
      <point x="100.4" y="-400.0" type="line"/>
      <point x="279.0" y="-400.0" type="line"/>
    </contour>
  </outline>
</glyph>
<glyph name="cent" format="2">
  <advance width="1092.0"/>
  <unicode hex="00A2"/>
  <outline>
    <contour>
      <point x="506.6" y="0.0" type="line"/>
      <point x="654.4" y="0.0" type="line"/>
      <point x="654.4" y="205.0" type="line"/>
      <point x="805.8" y="225.8"/>
      <point x="935.8" y="314.8"/>
      <point x="1012.0" y="440.0" type="curve"/>
      <point x="830.0" y="545.0" type="line"/>
      <point x="777.0" y="462.0"/>
      <point x="680.6" y="408.0"/>
      <point x="582.0" y="408.0" type="curve" smooth="yes"/>
      <point x="424.0" y="408.0"/>
      <point x="290.0" y="538.4"/>
      <point x="290.0" y="702.0" type="curve" smooth="yes"/>
      <point x="290.0" y="862.4"/>
      <point x="422.8" y="994.0"/>
      <point x="582.0" y="994.0" type="curve" smooth="yes"/>
      <point x="680.6" y="994.0"/>
      <point x="777.0" y="940.0"/>
      <point x="830.0" y="857.0" type="curve"/>
      <point x="1012.0" y="962.0" type="line"/>
      <point x="935.8" y="1087.8"/>
      <point x="805.8" y="1176.8"/>
      <point x="654.4" y="1197.0" type="curve"/>
      <point x="654.4" y="1400.0" type="line"/>
      <point x="506.6" y="1400.0" type="line"/>
      <point x="506.6" y="1197.0" type="line"/>
      <point x="266.0" y="1161.8"/>
      <point x="80.0" y="953.0"/>
      <point x="80.0" y="702.0" type="curve" smooth="yes"/>
      <point x="80.0" y="449.6"/>
      <point x="266.0" y="241.6"/>
      <point x="506.6" y="205.0" type="curve"/>
    </contour>
  </outline>
</glyph>
<glyph name="sterling" format="2">
  <advance width="1184.0"/>
  <unicode hex="00A3"/>
  <outline>
    <contour>
      <point x="104.0" y="0.0" type="line"/>
      <point x="1087.6" y="0.0" type="line"/>
      <point x="1087.6" y="210.0" type="line"/>
      <point x="515.4" y="210.0" type="line"/>
      <point x="549.8" y="231.0"/>
      <point x="589.0" y="288.4"/>
      <point x="589.0" y="347.8" type="curve" smooth="yes"/>
      <point x="589.0" y="641.8"/>
      <point x="290.0" y="640.8"/>
      <point x="290.0" y="915.0" type="curve" smooth="yes"/>
      <point x="290.0" y="1080.4"/>
      <point x="425.6" y="1216.0"/>
      <point x="591.0" y="1216.0" type="curve" smooth="yes"/>
      <point x="758.4" y="1216.0"/>
      <point x="894.0" y="1080.4"/>
      <point x="894.0" y="915.0" type="curve"/>
      <point x="1104.0" y="915.0" type="line"/>
      <point x="1104.0" y="1196.6"/>
      <point x="873.8" y="1426.0"/>
      <point x="591.0" y="1426.0" type="curve" smooth="yes"/>
      <point x="310.8" y="1426.0"/>
      <point x="80.0" y="1195.8"/>
      <point x="80.0" y="915.0" type="curve" smooth="yes"/>
      <point x="80.0" y="663.8"/>
      <point x="334.0" y="591.8"/>
      <point x="370.4" y="407.8" type="curve" smooth="yes"/>
      <point x="411.8" y="286.4"/>
      <point x="245.6" y="210.0"/>
      <point x="104.0" y="210.0" type="curve"/>
    </contour>
    <contour>
      <point x="104.0" y="447.0" type="line"/>
      <point x="867.8" y="447.0" type="line"/>
      <point x="867.8" y="594.8" type="line"/>
      <point x="104.0" y="594.8" type="line"/>
    </contour>
  </outline>
</glyph>
<glyph name="currency" format="2">
  <advance width="1012.5"/>
  <unicode hex="00A4"/>
  <outline>
    <contour>
      <point x="184.8" y="273.6" type="line"/>
      <point x="310.6" y="400.6" type="line"/>
      <point x="430.8" y="318.2"/>
      <point x="583.4" y="318.4"/>
      <point x="704.4" y="398.6" type="curve"/>
      <point x="829.4" y="273.6" type="line"/>
      <point x="932.8" y="377.8" type="line"/>
      <point x="808.4" y="502.8" type="line"/>
      <point x="887.6" y="620.4"/>
      <point x="887.6" y="778.4"/>
      <point x="806.4" y="896.6" type="curve"/>
      <point x="932.8" y="1023.6" type="line"/>
      <point x="829.4" y="1126.4" type="line"/>
      <point x="701.0" y="999.4" type="line"/>
      <point x="586.0" y="1075.8"/>
      <point x="427.4" y="1075.2"/>
      <point x="313.8" y="997.4" type="curve"/>
      <point x="184.8" y="1126.4" type="line"/>
      <point x="80.0" y="1023.6" type="line"/>
      <point x="209.8" y="893.2" type="line"/>
      <point x="130.0" y="776.4"/>
      <point x="130.0" y="622.4"/>
      <point x="207.8" y="506.2" type="curve"/>
      <point x="80.0" y="377.8" type="line"/>
    </contour>
    <contour>
      <point x="508.8" y="486.2" type="curve" smooth="yes"/>
      <point x="394.4" y="484.8"/>
      <point x="296.6" y="579.8"/>
      <point x="296.6" y="698.4" type="curve" smooth="yes"/>
      <point x="296.6" y="810.8"/>
      <point x="387.8" y="910.6"/>
      <point x="508.8" y="909.2" type="curve" smooth="yes"/>
      <point x="622.6" y="907.8"/>
      <point x="719.6" y="820.8"/>
      <point x="719.6" y="698.4" type="curve" smooth="yes"/>
      <point x="719.6" y="580.2"/>
      <point x="625.0" y="487.6"/>
    </contour>
  </outline>
</glyph>
<glyph name="yen" format="2">
  <advance width="1300.5"/>
  <unicode hex="00A5"/>
  <outline>
    <contour>
      <point x="545.4" y="0.0" type="line"/>
      <point x="755.4" y="0.0" type="line"/>
      <point x="755.4" y="162.4" type="line"/>
      <point x="1014.4" y="162.4" type="line"/>
      <point x="1014.4" y="310.2" type="line"/>
      <point x="755.4" y="310.2" type="line"/>
      <point x="755.4" y="428.4" type="line"/>
      <point x="1014.4" y="428.4" type="line"/>
      <point x="1014.4" y="576.2" type="line"/>
      <point x="755.4" y="576.2" type="line"/>
      <point x="755.4" y="632.4" type="line"/>
      <point x="1233.0" y="1400.0" type="line"/>
      <point x="985.8" y="1400.0" type="line"/>
      <point x="650.4" y="860.6" type="line"/>
      <point x="315.0" y="1400.0" type="line"/>
      <point x="67.8" y="1400.0" type="line"/>
      <point x="545.4" y="632.4" type="line"/>
      <point x="545.4" y="576.2" type="line"/>
      <point x="286.4" y="576.2" type="line"/>
      <point x="286.4" y="428.4" type="line"/>
      <point x="545.4" y="428.4" type="line"/>
      <point x="545.4" y="310.2" type="line"/>
      <point x="286.4" y="310.2" type="line"/>
      <point x="286.4" y="162.4" type="line"/>
      <point x="545.4" y="162.4" type="line"/>
    </contour>
  </outline>
</glyph>
<glyph name="section" format="2">
  <advance width="1093.5"/>
  <unicode hex="00A7"/>
  <outline>
    <contour>
      <point x="543.8" y="-381.8" type="curve" smooth="yes"/>
      <point x="737.6" y="-381.8"/>
      <point x="913.8" y="-261.0"/>
      <point x="913.8" y="-68.8" type="curve" smooth="yes"/>
      <point x="913.8" y="30.6"/>
      <point x="862.0" y="99.0"/>
      <point x="760.6" y="140.0" type="curve"/>
      <point x="886.6" y="206.6"/>
      <point x="973.8" y="345.4"/>
      <point x="973.8" y="499.4" type="curve" smooth="yes"/>
      <point x="973.8" y="740.6"/>
      <point x="814.8" y="899.4"/>
      <point x="578.6" y="946.6" type="curve" smooth="yes"/>
      <point x="476.0" y="968.4"/>
      <point x="377.8" y="986.6"/>
      <point x="377.8" y="1073.8" type="curve" smooth="yes"/>
      <point x="377.8" y="1162.8"/>
      <point x="463.4" y="1204.0"/>
      <point x="566.4" y="1200.4" type="curve" smooth="yes"/>
      <point x="646.0" y="1196.8"/>
      <point x="725.8" y="1150.6"/>
      <point x="756.4" y="1092.4" type="curve"/>
      <point x="923.4" y="1191.0" type="line"/>
      <point x="851.8" y="1309.8"/>
      <point x="709.6" y="1381.8"/>
      <point x="550.0" y="1381.8" type="curve" smooth="yes"/>
      <point x="355.6" y="1381.8"/>
      <point x="180.0" y="1261.0"/>
      <point x="180.0" y="1068.8" type="curve" smooth="yes"/>
      <point x="180.0" y="968.8"/>
      <point x="230.6" y="900.4"/>
      <point x="331.8" y="860.8" type="curve"/>
      <point x="205.4" y="793.0"/>
      <point x="120.0" y="653.4"/>
      <point x="120.0" y="499.4" type="curve" smooth="yes"/>
      <point x="120.0" y="274.8"/>
      <point x="284.4" y="90.0"/>
      <point x="511.0" y="54.8" type="curve" smooth="yes"/>
      <point x="611.6" y="36.4"/>
      <point x="716.0" y="14.8"/>
      <point x="716.0" y="-73.8" type="curve" smooth="yes"/>
      <point x="716.0" y="-162.8"/>
      <point x="630.4" y="-204.0"/>
      <point x="527.4" y="-200.39999999999998" type="curve" smooth="yes"/>
      <point x="447.8" y="-196.8"/>
      <point x="368.0" y="-150.6"/>
      <point x="337.4" y="-92.4" type="curve"/>
      <point x="170.4" y="-191.0" type="line"/>
      <point x="242.0" y="-309.8"/>
      <point x="383.6" y="-381.8"/>
    </contour>
    <contour>
      <point x="555.8" y="247.4" type="curve" smooth="yes"/>
      <point x="416.8" y="247.4"/>
      <point x="306.4" y="357.6"/>
      <point x="306.4" y="499.4" type="curve" smooth="yes"/>
      <point x="306.4" y="631.0"/>
      <point x="413.8" y="752.6"/>
      <point x="533.0" y="752.6" type="curve" smooth="yes"/>
      <point x="674.4" y="752.6"/>
      <point x="787.4" y="652.6"/>
      <point x="787.4" y="497.0" type="curve" smooth="yes"/>
      <point x="787.4" y="366.6"/>
      <point x="681.4" y="247.4"/>
    </contour>
  </outline>
</glyph>
<glyph name="copyright" format="2">
  <advance width="1872.75"/>
  <unicode hex="00A9"/>
  <outline>
    <contour>
      <point x="935.6" y="-285.8" type="curve" smooth="yes"/>
      <point x="1409.0" y="-285.8"/>
      <point x="1792.6" y="97.0"/>
      <point x="1792.6" y="570.4" type="curve" smooth="yes"/>
      <point x="1792.6" y="1044.6"/>
      <point x="1409.0" y="1426.0"/>
      <point x="935.6" y="1426.0" type="curve" smooth="yes"/>
      <point x="462.8" y="1426.0"/>
      <point x="80.0" y="1043.8"/>
      <point x="80.0" y="570.4" type="curve" smooth="yes"/>
      <point x="80.0" y="97.0"/>
      <point x="462.8" y="-285.8"/>
    </contour>
    <contour>
      <point x="935.6" y="-75.8" type="curve" smooth="yes"/>
      <point x="586.4" y="-75.8"/>
      <point x="290.0" y="205.8"/>
      <point x="290.0" y="570.4" type="curve" smooth="yes"/>
      <point x="290.0" y="921.4"/>
      <point x="574.0" y="1214.8"/>
      <point x="935.6" y="1216.0" type="curve" smooth="yes"/>
      <point x="1292.6" y="1217.8"/>
      <point x="1582.6" y="926.0"/>
      <point x="1582.6" y="570.4" type="curve" smooth="yes"/>
      <point x="1582.6" y="220.6"/>
      <point x="1299.6" y="-75.8"/>
    </contour>
    <component base="c" xOffset="380.4" yOffset="70.4"/>
  </outline>
</glyph>
<glyph name="logicalnot" format="2">
  <advance width="1006.5"/>
  <unicode hex="00AC"/>
  <outline>
    <contour>
      <point x="716.8" y="297.8" type="line"/>
      <point x="926.8" y="297.8" type="line"/>
      <point x="926.8" y="902.8" type="line"/>
      <point x="80.0" y="902.8" type="line"/>
      <point x="80.0" y="692.8" type="line"/>
      <point x="716.8" y="692.8" type="line"/>
    </contour>
  </outline>
</glyph>
<glyph name="registered" format="2">
  <advance width="1082.25"/>
  <unicode hex="00AE"/>
  <outline>
    <contour>
      <point x="540.8" y="419.8" type="curve" smooth="yes"/>
      <point x="804.0" y="420.4"/>
      <point x="1022.4" y="634.8"/>
      <point x="1022.4" y="901.4" type="curve" smooth="yes"/>
      <point x="1022.4" y="1159.0"/>
      <point x="811.6" y="1381.6"/>
      <point x="540.8" y="1381.6" type="curve" smooth="yes"/>
      <point x="274.8" y="1381.6"/>
      <point x="60.0" y="1165.0"/>
      <point x="60.0" y="901.4" type="curve" smooth="yes"/>
      <point x="60.0" y="637.0"/>
      <point x="273.6" y="420.4"/>
    </contour>
    <contour>
      <point x="540.8" y="573.4" type="curve" smooth="yes"/>
      <point x="360.8" y="573.4"/>
      <point x="213.6" y="720.0"/>
      <point x="213.6" y="901.4" type="curve" smooth="yes"/>
      <point x="213.6" y="1081.4"/>
      <point x="360.8" y="1228.0"/>
      <point x="540.8" y="1228.0" type="curve" smooth="yes"/>
      <point x="721.6" y="1228.0"/>
      <point x="868.8" y="1081.4"/>
      <point x="868.8" y="901.4" type="curve" smooth="yes"/>
      <point x="868.8" y="720.0"/>
      <point x="721.6" y="573.4"/>
    </contour>
    <contour>
      <point x="408.0" y="704.0" type="line"/>
      <point x="499.4" y="704.0" type="line"/>
      <point x="499.4" y="862.4" type="line"/>
      <point x="522.8" y="862.4" type="line"/>
      <point x="615.4" y="704.0" type="line"/>
      <point x="720.4" y="704.0" type="line"/>
      <point x="620.8" y="875.8" type="line"/>
      <point x="663.8" y="894.4"/>
      <point x="692.8" y="939.8"/>
      <point x="692.8" y="991.8" type="curve" smooth="yes"/>
      <point x="692.8" y="1063.8"/>
      <point x="637.6" y="1121.8"/>
      <point x="568.8" y="1121.8" type="curve" smooth="yes"/>
      <point x="408.0" y="1121.8" type="line"/>
    </contour>
    <contour>
      <point x="499.4" y="953.8" type="line"/>
      <point x="499.4" y="1030.4" type="line"/>
      <point x="568.8" y="1030.4" type="line" smooth="yes"/>
      <point x="586.4" y="1030.4"/>
      <point x="601.4" y="1013.4"/>
      <point x="601.4" y="991.8" type="curve" smooth="yes"/>
      <point x="601.4" y="970.8"/>
      <point x="586.4" y="953.8"/>
      <point x="568.8" y="953.8" type="curve" smooth="yes"/>
    </contour>
  </outline>
</glyph>
<glyph name="degree" format="2">
  <advance width="845.25"/>
  <unicode hex="00B0"/>
  <outline>
    <contour>
      <point x="423.4" y="738.0" type="curve" smooth="yes"/>
      <point x="608.0" y="738.0"/>
      <point x="765.4" y="885.4"/>
      <point x="765.4" y="1080.0" type="curve" smooth="yes"/>
      <point x="765.4" y="1262.4"/>
      <point x="618.0" y="1422.0"/>
      <point x="423.4" y="1422.0" type="curve" smooth="yes"/>
      <point x="232.4" y="1422.0"/>
      <point x="80.0" y="1266.0"/>
      <point x="80.0" y="1080.0" type="curve" smooth="yes"/>
      <point x="80.0" y="897.6"/>
      <point x="229.6" y="738.0"/>
    </contour>
    <contour>
      <point x="423.4" y="948.0" type="curve" smooth="yes"/>
      <point x="349.4" y="948.0"/>
      <point x="290.0" y="1006.0"/>
      <point x="290.0" y="1080.0" type="curve" smooth="yes"/>
      <point x="290.0" y="1154.0"/>
      <point x="349.4" y="1212.0"/>
      <point x="423.4" y="1212.0" type="curve" smooth="yes"/>
      <point x="496.0" y="1212.0"/>
      <point x="555.4" y="1154.0"/>
      <point x="555.4" y="1080.0" type="curve" smooth="yes"/>
      <point x="555.4" y="1006.0"/>
      <point x="496.0" y="948.0"/>
    </contour>
  </outline>
</glyph>
<glyph name="plusminus" format="2">
  <advance width="1160.0"/>
  <unicode hex="00B1"/>
  <outline>
    <contour>
      <point x="475.0" y="362.8" type="line"/>
      <point x="685.0" y="362.8" type="line"/>
      <point x="685.0" y="757.8" type="line"/>
      <point x="1080.0" y="757.8" type="line"/>
      <point x="1080.0" y="967.8" type="line"/>
      <point x="685.0" y="967.8" type="line"/>
      <point x="685.0" y="1362.8" type="line"/>
      <point x="475.0" y="1362.8" type="line"/>
      <point x="475.0" y="967.8" type="line"/>
      <point x="80.0" y="967.8" type="line"/>
      <point x="80.0" y="757.8" type="line"/>
      <point x="475.0" y="757.8" type="line"/>
    </contour>
    <contour>
      <point x="80.0" y="0.6" type="line"/>
      <point x="1080.0" y="0.6" type="line"/>
      <point x="1080.0" y="210.6" type="line"/>
      <point x="80.0" y="210.6" type="line"/>
    </contour>
  </outline>
</glyph>
<glyph name="twosuperior" format="2">
  <advance width="705.625"/>
  <unicode hex="00B2"/>
  <outline>
    <contour>
      <point x="96.0" y="818.0" type="line"/>
      <point x="554.2" y="818.0" type="line"/>
      <point x="554.2" y="950.0" type="line"/>
      <point x="333.4" y="950.0" type="line"/>
      <point x="434.2" y="1029.0"/>
      <point x="561.4" y="1136.8"/>
      <point x="561.4" y="1245.8" type="curve"/>
      <point x="561.4" y="1374.8"/>
      <point x="458.2" y="1468.0"/>
      <point x="330.2" y="1468.0" type="curve"/>
      <point x="200.6" y="1468.0"/>
      <point x="96.0" y="1374.8"/>
      <point x="96.0" y="1245.8" type="curve"/>
      <point x="228.0" y="1245.8" type="line"/>
      <point x="228.0" y="1302.6"/>
      <point x="273.4" y="1343.8"/>
      <point x="330.2" y="1343.8" type="curve"/>
      <point x="385.6" y="1343.8"/>
      <point x="429.4" y="1302.6"/>
      <point x="429.4" y="1245.8" type="curve"/>
      <point x="384.4" y="1117.2"/>
      <point x="204.4" y="1010.6"/>
      <point x="96.0" y="937.0" type="curve"/>
    </contour>
  </outline>
</glyph>
<glyph name="threesuperior" format="2">
  <advance width="570.0"/>
  <unicode hex="00B3"/>
  <outline>
    <contour>
      <point x="286.0" y="798.0" type="curve" smooth="yes"/>
      <point x="401.8" y="798.0"/>
      <point x="498.0" y="882.8"/>
      <point x="498.0" y="1001.0" type="curve" smooth="yes"/>
      <point x="498.0" y="1062.4"/>
      <point x="475.6" y="1110.6"/>
      <point x="430.6" y="1151.0" type="curve"/>
      <point x="460.0" y="1180.4"/>
      <point x="480.4" y="1229.8"/>
      <point x="480.4" y="1280.0" type="curve" smooth="yes"/>
      <point x="480.4" y="1389.6"/>
      <point x="391.6" y="1467.4"/>
      <point x="281.0" y="1467.4" type="curve" smooth="yes"/>
      <point x="171.4" y="1467.4"/>
      <point x="82.6" y="1389.6"/>
      <point x="82.6" y="1280.0" type="curve"/>
      <point x="214.6" y="1280.0" type="line"/>
      <point x="214.6" y="1316.4"/>
      <point x="245.6" y="1342.6"/>
      <point x="281.0" y="1342.6" type="curve" smooth="yes"/>
      <point x="317.4" y="1342.6"/>
      <point x="348.4" y="1316.4"/>
      <point x="348.4" y="1280.0" type="curve" smooth="yes"/>
      <point x="348.4" y="1234.8"/>
      <point x="317.6" y="1193.6"/>
      <point x="236.2" y="1193.6" type="curve"/>
      <point x="236.2" y="1101.2" type="line"/>
      <point x="321.0" y="1101.2"/>
      <point x="366.0" y="1054.6"/>
      <point x="366.0" y="1001.0" type="curve" smooth="yes"/>
      <point x="366.0" y="954.6"/>
      <point x="330.6" y="922.8"/>
      <point x="286.0" y="922.8" type="curve" smooth="yes"/>
      <point x="239.4" y="922.8"/>
      <point x="204.0" y="954.6"/>
      <point x="204.0" y="1001.0" type="curve"/>
      <point x="72.0" y="1001.0" type="line"/>
      <point x="72.0" y="882.8"/>
      <point x="168.8" y="798.0"/>
    </contour>
  </outline>
</glyph>
<glyph name="periodcentered" format="2">
  <advance width="381.25"/>
  <unicode hex="00B7"/>
  <outline>
    <contour>
      <point x="190.4" y="489.6" type="curve" smooth="yes"/>
      <point x="251.4" y="489.6"/>
      <point x="301.4" y="538.2"/>
      <point x="301.4" y="600.6" type="curve" smooth="yes"/>
      <point x="301.4" y="660.4"/>
      <point x="251.4" y="710.4"/>
      <point x="190.4" y="710.4" type="curve" smooth="yes"/>
      <point x="128.6" y="710.4"/>
      <point x="80.0" y="660.4"/>
      <point x="80.0" y="600.6" type="curve" smooth="yes"/>
      <point x="80.0" y="538.2"/>
      <point x="128.6" y="489.6"/>
    </contour>
  </outline>
</glyph>
<glyph name="onesuperior" format="2">
  <advance width="441.625"/>
  <unicode hex="00B9"/>
  <outline>
    <contour>
      <point x="165.4" y="818.0" type="line"/>
      <point x="297.4" y="818.0" type="line"/>
      <point x="297.4" y="1449.0" type="line"/>
      <point x="114.6" y="1449.0" type="line"/>
      <point x="96.0" y="1317.0" type="line"/>
      <point x="165.4" y="1317.0" type="line"/>
    </contour>
  </outline>
</glyph>
<glyph name="questiondown" format="2">
  <advance width="1059.0"/>
  <unicode hex="00BF"/>
  <outline>
    <contour>
      <point x="517.0" y="-426.6" type="curve" smooth="yes"/>
      <point x="758.4" y="-426.6"/>
      <point x="954.0" y="-231.0"/>
      <point x="954.0" y="9.0" type="curve"/>
      <point x="744.0" y="9.0" type="line"/>
      <point x="744.0" y="-115.6"/>
      <point x="641.6" y="-216.6"/>
      <point x="517.0" y="-216.6" type="curve" smooth="yes"/>
      <point x="392.4" y="-216.6"/>
      <point x="290.0" y="-115.6"/>
      <point x="290.0" y="9.0" type="curve" smooth="yes"/>
      <point x="290.0" y="96.6"/>
      <point x="333.0" y="173.6"/>
      <point x="403.4" y="212.0" type="curve" smooth="yes"/>
      <point x="531.0" y="281.8"/>
      <point x="608.0" y="411.4"/>
      <point x="608.0" y="555.0" type="curve"/>
      <point x="398.0" y="555.0" type="line"/>
      <point x="398.0" y="487.2"/>
      <point x="362.4" y="427.6"/>
      <point x="304.0" y="396.8" type="curve" smooth="yes"/>
      <point x="165.0" y="322.6"/>
      <point x="80.0" y="173.6"/>
      <point x="80.0" y="9.0" type="curve" smooth="yes"/>
      <point x="80.0" y="-231.0"/>
      <point x="275.6" y="-426.6"/>
    </contour>
    <contour>
      <point x="498.4" y="804.6" type="curve" smooth="yes"/>
      <point x="559.6" y="804.6"/>
      <point x="608.8" y="853.8"/>
      <point x="608.8" y="913.6" type="curve" smooth="yes"/>
      <point x="608.8" y="977.4"/>
      <point x="559.6" y="1026.0"/>
      <point x="498.4" y="1026.0" type="curve" smooth="yes"/>
      <point x="437.4" y="1026.0"/>
      <point x="388.8" y="977.4"/>
      <point x="388.8" y="913.6" type="curve" smooth="yes"/>
      <point x="388.8" y="853.8"/>
      <point x="437.4" y="804.6"/>
    </contour>
  </outline>
</glyph>
<glyph name="AE" format="2">
  <advance width="1659.0"/>
  <unicode hex="00C6"/>
  <outline>
    <contour>
      <point x="80.0" y="0.0" type="line"/>
      <point x="302.6" y="0.0" type="line"/>
      <point x="399.4" y="265.0" type="line"/>
      <point x="829.8" y="265.0" type="line"/>
      <point x="829.8" y="0.0" type="line"/>
      <point x="1559.0" y="0.0" type="line"/>
      <point x="1559.0" y="210.0" type="line"/>
      <point x="1039.8" y="210.0" type="line"/>
      <point x="1039.8" y="595.0" type="line"/>
      <point x="1463.0" y="595.0" type="line"/>
      <point x="1463.0" y="805.0" type="line"/>
      <point x="1039.8" y="805.0" type="line"/>
      <point x="1039.8" y="1190.0" type="line"/>
      <point x="1559.0" y="1190.0" type="line"/>
      <point x="1559.0" y="1400.0" type="line"/>
      <point x="588.6" y="1400.0" type="line"/>
    </contour>
    <contour>
      <point x="476.4" y="475.0" type="line"/>
      <point x="736.8" y="1190.0" type="line"/>
      <point x="829.8" y="1190.0" type="line"/>
      <point x="829.8" y="475.0" type="line"/>
    </contour>
  </outline>
</glyph>
<glyph name="Eth" format="2">
  <advance width="1458.25"/>
  <unicode hex="00D0"/>
  <outline>
    <contour>
      <point x="235.8" y="0.0" type="line"/>
      <point x="698.4" y="0.0" type="line" smooth="yes"/>
      <point x="1084.4" y="0.0"/>
      <point x="1398.4" y="314.0"/>
      <point x="1398.4" y="700.0" type="curve" smooth="yes"/>
      <point x="1398.4" y="1086.0"/>
      <point x="1084.4" y="1400.0"/>
      <point x="698.4" y="1400.0" type="curve" smooth="yes"/>
      <point x="235.8" y="1400.0" type="line"/>
      <point x="235.8" y="855.0" type="line"/>
      <point x="100.0" y="855.0" type="line"/>
      <point x="100.0" y="645.0" type="line"/>
      <point x="235.8" y="645.0" type="line"/>
    </contour>
    <contour>
      <point x="445.8" y="210.0" type="line"/>
      <point x="445.8" y="645.0" type="line"/>
      <point x="743.8" y="645.0" type="line"/>
      <point x="743.8" y="855.0" type="line"/>
      <point x="445.8" y="855.0" type="line"/>
      <point x="445.8" y="1190.0" type="line"/>
      <point x="698.4" y="1190.0" type="line" smooth="yes"/>
      <point x="964.6" y="1190.0"/>
      <point x="1188.4" y="972.8"/>
      <point x="1188.4" y="700.0" type="curve" smooth="yes"/>
      <point x="1188.4" y="432.6"/>
      <point x="970.6" y="210.0"/>
      <point x="698.4" y="210.0" type="curve" smooth="yes"/>
    </contour>
  </outline>
</glyph>
<glyph name="multiply" format="2">
  <advance width="1015.0"/>
  <unicode hex="00D7"/>
  <outline>
    <contour>
      <point x="228.4" y="172.4" type="line"/>
      <point x="506.8" y="451.6" type="line"/>
      <point x="786.0" y="172.4" type="line"/>
      <point x="935.0" y="320.8" type="line"/>
      <point x="654.6" y="600.0" type="line"/>
      <point x="935.0" y="879.8" type="line"/>
      <point x="786.0" y="1027.6" type="line"/>
      <point x="506.8" y="748.4" type="line"/>
      <point x="228.4" y="1027.6" type="line"/>
      <point x="80.0" y="879.8" type="line"/>
      <point x="358.4" y="600.0" type="line"/>
      <point x="80.0" y="320.8" type="line"/>
    </contour>
  </outline>
</glyph>
<glyph name="Oslash" format="2">
  <advance width="1540.0"/>
  <unicode hex="00D8"/>
  <outline>
    <contour>
      <point x="431.0" y="-99.8" type="line"/>
      <point x="506.6" y="32.6" type="line"/>
      <point x="588.0" y="-4.2"/>
      <point x="676.4" y="-26.0"/>
      <point x="770.0" y="-26.0" type="curve" smooth="yes"/>
      <point x="1150.0" y="-26.0"/>
      <point x="1460.0" y="300.0"/>
      <point x="1460.0" y="700.0" type="curve" smooth="yes"/>
      <point x="1460.0" y="923.4"/>
      <point x="1363.0" y="1122.6"/>
      <point x="1211.8" y="1255.4" type="curve"/>
      <point x="1293.0" y="1394.8" type="line"/>
      <point x="1111.0" y="1499.8" type="line"/>
      <point x="1035.4" y="1368.8" type="line"/>
      <point x="954.0" y="1405.4"/>
      <point x="865.6" y="1426.0"/>
      <point x="770.0" y="1426.0" type="curve" smooth="yes"/>
      <point x="390.0" y="1426.0"/>
      <point x="80.0" y="1100.0"/>
      <point x="80.0" y="700.0" type="curve" smooth="yes"/>
      <point x="80.0" y="477.8"/>
      <point x="179.0" y="278.0"/>
      <point x="329.4" y="146.0" type="curve"/>
      <point x="249.0" y="5.200000000000001" type="line"/>
    </contour>
    <contour>
      <point x="440.8" y="338.6" type="line"/>
      <point x="348.6" y="427.8"/>
      <point x="290.0" y="557.0"/>
      <point x="290.0" y="700.0" type="curve" smooth="yes"/>
      <point x="290.0" y="981.4"/>
      <point x="504.4" y="1216.0"/>
      <point x="770.0" y="1216.0" type="curve" smooth="yes"/>
      <point x="826.4" y="1216.0"/>
      <point x="880.4" y="1203.8"/>
      <point x="927.6" y="1181.8" type="curve"/>
    </contour>
    <contour>
      <point x="770.0" y="184.0" type="curve" smooth="yes"/>
      <point x="715.6" y="184.0"/>
      <point x="661.6" y="196.8"/>
      <point x="614.4" y="219.6" type="curve"/>
      <point x="1101.8" y="1062.0" type="line"/>
      <point x="1192.8" y="972.8"/>
      <point x="1250.0" y="843.0"/>
      <point x="1250.0" y="700.0" type="curve" smooth="yes"/>
      <point x="1250.0" y="418.6"/>
      <point x="1035.6" y="184.0"/>
    </contour>
  </outline>
</glyph>
<glyph name="Thorn" format="2">
  <advance width="1087.5"/>
  <unicode hex="00DE"/>
  <outline>
    <contour>
      <point x="120.0" y="0.0" type="line"/>
      <point x="330.0" y="0.0" type="line"/>
      <point x="330.0" y="282.8" type="line"/>
      <point x="603.0" y="282.8" type="line" smooth="yes"/>
      <point x="822.0" y="282.8"/>
      <point x="1007.8" y="466.4"/>
      <point x="1007.8" y="700.0" type="curve" smooth="yes"/>
      <point x="1007.8" y="930.8"/>
      <point x="829.4" y="1117.8"/>
      <point x="603.0" y="1117.8" type="curve" smooth="yes"/>
      <point x="330.0" y="1117.8" type="line"/>
      <point x="330.0" y="1400.0" type="line"/>
      <point x="120.0" y="1400.0" type="line"/>
    </contour>
    <contour>
      <point x="330.0" y="492.8" type="line"/>
      <point x="330.0" y="935.0" type="line"/>
      <point x="581.6" y="935.0" type="line" smooth="yes"/>
      <point x="700.0" y="935.0"/>
      <point x="797.8" y="838.8"/>
      <point x="797.8" y="713.6" type="curve" smooth="yes"/>
      <point x="797.8" y="589.0"/>
      <point x="700.0" y="492.8"/>
      <point x="581.6" y="492.8" type="curve" smooth="yes"/>
    </contour>
  </outline>
</glyph>
<glyph name="germandbls" format="2">
  <advance width="1120.0"/>
  <unicode hex="00DF"/>
  <outline>
    <contour>
      <point x="120.0" y="0.0" type="line"/>
      <point x="330.0" y="0.0" type="line"/>
      <point x="330.0" y="966.8" type="line" smooth="yes"/>
      <point x="330.0" y="1105.4"/>
      <point x="441.8" y="1216.6"/>
      <point x="580.4" y="1216.6" type="curve" smooth="yes"/>
      <point x="689.8" y="1216.6"/>
      <point x="779.8" y="1122.8"/>
      <point x="779.8" y="1007.8" type="curve" smooth="yes"/>
      <point x="779.8" y="892.8"/>
      <point x="689.8" y="807.0"/>
      <point x="580.4" y="798.4" type="curve" smooth="yes"/>
      <point x="554.6" y="795.6" type="line"/>
      <point x="554.6" y="622.0" type="line"/>
      <point x="641.4" y="619.8" type="line" smooth="yes"/>
      <point x="768.8" y="615.6"/>
      <point x="871.4" y="520.8"/>
      <point x="871.4" y="400.6" type="curve" smooth="yes"/>
      <point x="871.4" y="281.0"/>
      <point x="768.8" y="181.4"/>
      <point x="641.4" y="181.4" type="curve" smooth="yes"/>
      <point x="554.6" y="181.4" type="line"/>
      <point x="587.4" y="0.0" type="line"/>
      <point x="661.4" y="0.0" type="line" smooth="yes"/>
      <point x="880.8" y="0.0"/>
      <point x="1060.0" y="167.0"/>
      <point x="1060.0" y="387.0" type="curve" smooth="yes"/>
      <point x="1060.0" y="526.0"/>
      <point x="1008.4" y="692.6"/>
      <point x="840.6" y="724.4" type="curve"/>
      <point x="945.8" y="777.8"/>
      <point x="989.8" y="900.6"/>
      <point x="989.8" y="1007.8" type="curve" smooth="yes"/>
      <point x="989.8" y="1229.8"/>
      <point x="818.8" y="1399.4"/>
      <point x="602.6" y="1399.4" type="curve" smooth="yes"/>
      <point x="335.0" y="1399.4"/>
      <point x="120.0" y="1182.4"/>
      <point x="120.0" y="916.8" type="curve" smooth="yes"/>
    </contour>
  </outline>
</glyph>
<glyph name="ae" format="2">
  <advance width="1851.375"/>
  <unicode hex="00E6"/>
  <outline>
    <contour>
      <point x="487.8" y="-16.4" type="curve" smooth="yes"/>
      <point x="608.4" y="-16.4" type="line" smooth="yes"/>
      <point x="755.0" y="-16.4"/>
      <point x="857.8" y="54.8"/>
      <point x="920.4" y="170.4" type="curve"/>
      <point x="1006.6" y="57.4"/>
      <point x="1140.4" y="-16.4"/>
      <point x="1291.6" y="-16.4" type="curve" smooth="yes"/>
      <point x="1491.6" y="-16.4"/>
      <point x="1663.6" y="107.6"/>
      <point x="1743.6" y="285.6" type="curve"/>
      <point x="1530.0" y="336.0" type="line"/>
      <point x="1477.8" y="247.4"/>
      <point x="1391.6" y="193.6"/>
      <point x="1291.6" y="193.6" type="curve" smooth="yes"/>
      <point x="1146.6" y="195.0"/>
      <point x="1041.6" y="298.8"/>
      <point x="1016.6" y="437.4" type="curve"/>
      <point x="1784.6" y="437.4" type="line"/>
      <point x="1820.0" y="762.8"/>
      <point x="1597.6" y="1037.6"/>
      <point x="1291.6" y="1037.6" type="curve" smooth="yes"/>
      <point x="1137.0" y="1037.6"/>
      <point x="1000.4" y="959.8"/>
      <point x="916.6" y="840.4" type="curve"/>
      <point x="850.8" y="961.8"/>
      <point x="738.0" y="1037.6"/>
      <point x="543.6" y="1037.6" type="curve" smooth="yes"/>
      <point x="371.6" y="1037.6"/>
      <point x="221.8" y="1007.6"/>
      <point x="133.6" y="856.6" type="curve"/>
      <point x="314.8" y="750.8" type="line"/>
      <point x="349.6" y="809.0"/>
      <point x="417.8" y="845.4"/>
      <point x="543.6" y="845.4" type="curve" smooth="yes"/>
      <point x="724.6" y="845.4"/>
      <point x="777.8" y="741.0"/>
      <point x="793.8" y="597.4" type="curve"/>
      <point x="383.8" y="597.4" type="line" smooth="yes"/>
      <point x="216.0" y="597.4"/>
      <point x="80.0" y="507.4"/>
      <point x="76.4" y="334.4" type="curve" smooth="yes"/>
      <point x="77.6" y="108.4"/>
      <point x="242.8" y="-16.4"/>
    </contour>
    <contour>
      <point x="538.0" y="118.6" type="curve" smooth="yes"/>
      <point x="390.6" y="118.6"/>
      <point x="281.8" y="175.6"/>
      <point x="280.0" y="313.0" type="curve" smooth="yes"/>
      <point x="282.4" y="416.6"/>
      <point x="370.0" y="437.4"/>
      <point x="491.0" y="437.4" type="curve" smooth="yes"/>
      <point x="788.0" y="437.4" type="line"/>
      <point x="788.0" y="359.0" type="line" smooth="yes"/>
      <point x="788.0" y="277.8"/>
      <point x="735.8" y="118.6"/>
    </contour>
    <contour>
      <point x="1009.4" y="597.4" type="line"/>
      <point x="1032.6" y="741.6"/>
      <point x="1148.6" y="852.6"/>
      <point x="1291.6" y="852.6" type="curve" smooth="yes"/>
      <point x="1434.0" y="852.6"/>
      <point x="1551.6" y="738.6"/>
      <point x="1572.4" y="597.4" type="curve"/>
    </contour>
  </outline>
</glyph>
<glyph name="idieresis" format="2">
  <advance width="714.4"/>
  <unicode hex="00EF"/>
  <outline>
    <contour>
      <point x="250.6" y="1000.0" type="line"/>
      <point x="250.6" y="0.0" type="line"/>
      <point x="460.6" y="0.0" type="line"/>
      <point x="460.6" y="1000.0" type="line"/>
    </contour>
    <component base="dieresiscomb" xOffset="-340.0"/>
  </outline>
</glyph>
<glyph name="eth" format="2">
  <advance width="1125.25"/>
  <unicode hex="00F0"/>
  <outline>
    <contour>
      <point x="435.8" y="1037.8" type="line"/>
      <point x="872.4" y="1468.6" type="line"/>
      <point x="769.0" y="1573.4" type="line"/>
      <point x="330.4" y="1142.6" type="line"/>
    </contour>
    <component base="partialdiff"/>
  </outline>
</glyph>
<glyph name="divide" format="2">
  <advance width="1160.0"/>
  <unicode hex="00F7"/>
  <outline>
    <contour>
      <point x="80.0" y="495.0" type="line"/>
      <point x="1080.0" y="495.0" type="line"/>
      <point x="1080.0" y="705.0" type="line"/>
      <point x="80.0" y="705.0" type="line"/>
    </contour>
    <contour>
      <point x="580.0" y="1085.4" type="curve"/>
      <point x="509.8" y="1085.4"/>
      <point x="456.4" y="1027.0"/>
      <point x="456.4" y="960.6" type="curve"/>
      <point x="456.4" y="893.0"/>
      <point x="509.8" y="837.0"/>
      <point x="580.0" y="837.0" type="curve"/>
      <point x="647.0" y="837.0"/>
      <point x="703.0" y="893.0"/>
      <point x="703.0" y="960.6" type="curve"/>
      <point x="703.0" y="1027.0"/>
      <point x="647.0" y="1085.4"/>
    </contour>
    <contour>
      <point x="580.0" y="362.4" type="curve"/>
      <point x="509.8" y="362.4"/>
      <point x="456.4" y="304.6"/>
      <point x="456.4" y="237.6" type="curve"/>
      <point x="456.4" y="170.0"/>
      <point x="509.8" y="114.6"/>
      <point x="580.0" y="114.6" type="curve"/>
      <point x="647.0" y="114.6"/>
      <point x="704.8" y="170.0"/>
      <point x="704.8" y="237.6" type="curve"/>
      <point x="704.8" y="304.6"/>
      <point x="647.0" y="362.4"/>
    </contour>
  </outline>
</glyph>
<glyph name="oslash" format="2">
  <advance width="1120.0"/>
  <unicode hex="00F8"/>
  <outline>
    <contour>
      <point x="330.6" y="-68.6" type="line"/>
      <point x="377.4" y="12.399999999999999" type="line"/>
      <point x="433.8" y="-12.0"/>
      <point x="494.6" y="-26.0"/>
      <point x="560.0" y="-26.0" type="curve" smooth="yes"/>
      <point x="836.0" y="-26.0"/>
      <point x="1060.0" y="210.0"/>
      <point x="1060.0" y="500.0" type="curve" smooth="yes"/>
      <point x="1060.0" y="659.8"/>
      <point x="993.8" y="801.4"/>
      <point x="888.8" y="897.4" type="curve"/>
      <point x="939.8" y="985.4" type="line"/>
      <point x="790.0" y="1071.8" type="line"/>
      <point x="741.8" y="990.8" type="line"/>
      <point x="687.4" y="1014.6"/>
      <point x="624.6" y="1028.0"/>
      <point x="560.0" y="1028.0" type="curve" smooth="yes"/>
      <point x="284.0" y="1028.0"/>
      <point x="60.0" y="792.0"/>
      <point x="60.0" y="500.0" type="curve" smooth="yes"/>
      <point x="60.0" y="343.4"/>
      <point x="127.4" y="201.8"/>
      <point x="232.4" y="105.8" type="curve"/>
      <point x="181.4" y="17.8" type="line"/>
    </contour>
    <contour>
      <point x="336.0" y="283.4" type="line"/>
      <point x="286.8" y="334.6"/>
      <point x="255.0" y="406.8"/>
      <point x="255.0" y="488.6" type="curve" smooth="yes"/>
      <point x="255.0" y="712.4"/>
      <point x="453.4" y="881.4"/>
      <point x="646.8" y="822.4" type="curve"/>
    </contour>
    <contour>
      <point x="473.8" y="180.8" type="curve"/>
      <point x="784.6" y="719.8" type="line"/>
      <point x="833.0" y="667.4"/>
      <point x="865.0" y="593.8"/>
      <point x="865.0" y="511.4" type="curve" smooth="yes"/>
      <point x="865.0" y="290.6"/>
      <point x="673.6" y="120.0"/>
    </contour>
  </outline>
</glyph>
<glyph name="thorn" format="2">
  <advance width="1246.5"/>
  <unicode hex="00FE"/>
  <outline>
    <contour>
      <point x="120.0" y="-500.0" type="line"/>
      <point x="330.0" y="-500.0" type="line"/>
      <point x="330.0" y="144.8" type="line"/>
      <point x="395.6" y="42.4"/>
      <point x="500.4" y="-28.0"/>
      <point x="640.8" y="-28.0" type="curve" smooth="yes"/>
      <point x="931.6" y="-28.0"/>
      <point x="1166.8" y="208.0"/>
      <point x="1166.8" y="500.0" type="curve" smooth="yes"/>
      <point x="1166.8" y="790.0"/>
      <point x="931.6" y="1026.0"/>
      <point x="640.8" y="1026.0" type="curve" smooth="yes"/>
      <point x="500.4" y="1026.0"/>
      <point x="395.6" y="955.6"/>
      <point x="330.0" y="853.8" type="curve"/>
      <point x="330.0" y="1400.0" type="line"/>
      <point x="120.0" y="1400.0" type="line"/>
    </contour>
    <contour>
      <point x="638.0" y="175.6" type="curve" smooth="yes"/>
      <point x="465.0" y="175.6"/>
      <point x="347.6" y="321.8"/>
      <point x="347.6" y="500.0" type="curve" smooth="yes"/>
      <point x="347.6" y="678.6"/>
      <point x="466.8" y="823.8"/>
      <point x="638.0" y="823.8" type="curve" smooth="yes"/>
      <point x="812.4" y="823.8"/>
      <point x="952.6" y="677.4"/>
      <point x="952.6" y="500.0" type="curve" smooth="yes"/>
      <point x="952.6" y="318.8"/>
      <point x="809.4" y="175.6"/>
    </contour>
  </outline>
</glyph>
<glyph name="OE" format="2">
  <advance width="2137.25"/>
  <unicode hex="0152"/>
  <outline>
    <contour>
      <point x="770.0" y="-26.0" type="curve" smooth="yes"/>
      <point x="966.4" y="-26.0"/>
      <point x="1142.0" y="70.6"/>
      <point x="1252.8" y="216.8" type="curve"/>
      <point x="1252.8" y="0.0" type="line"/>
      <point x="2037.4" y="0.0" type="line"/>
      <point x="2037.4" y="210.0" type="line"/>
      <point x="1462.8" y="210.0" type="line"/>
      <point x="1462.8" y="595.0" type="line"/>
      <point x="1941.4" y="595.0" type="line"/>
      <point x="1941.4" y="805.0" type="line"/>
      <point x="1462.8" y="805.0" type="line"/>
      <point x="1462.8" y="1190.0" type="line"/>
      <point x="2037.4" y="1190.0" type="line"/>
      <point x="2037.4" y="1400.0" type="line"/>
      <point x="1252.8" y="1400.0" type="line"/>
      <point x="1252.8" y="1183.8" type="line"/>
      <point x="1142.0" y="1329.4"/>
      <point x="966.4" y="1426.0"/>
      <point x="770.0" y="1426.0" type="curve" smooth="yes"/>
      <point x="390.0" y="1426.0"/>
      <point x="80.0" y="1100.0"/>
      <point x="80.0" y="700.0" type="curve" smooth="yes"/>
      <point x="80.0" y="300.0"/>
      <point x="390.0" y="-26.0"/>
    </contour>
    <contour>
      <point x="770.0" y="184.0" type="curve" smooth="yes"/>
      <point x="505.6" y="184.0"/>
      <point x="290.0" y="416.8"/>
      <point x="290.0" y="700.0" type="curve" smooth="yes"/>
      <point x="290.0" y="981.4"/>
      <point x="504.4" y="1216.0"/>
      <point x="770.0" y="1216.0" type="curve" smooth="yes"/>
      <point x="1034.4" y="1216.0"/>
      <point x="1250.0" y="982.6"/>
      <point x="1250.0" y="700.0" type="curve" smooth="yes"/>
      <point x="1250.0" y="418.6"/>
      <point x="1035.6" y="184.0"/>
    </contour>
  </outline>
</glyph>
<glyph name="oe" format="2">
  <advance width="1909.0"/>
  <unicode hex="0153"/>
  <outline>
    <contour>
      <point x="560.0" y="-26.0" type="curve" smooth="yes"/>
      <point x="726.0" y="-26.0"/>
      <point x="872.8" y="64.4"/>
      <point x="955.0" y="197.8" type="curve"/>
      <point x="1037.8" y="64.4"/>
      <point x="1184.0" y="-26.0"/>
      <point x="1350.0" y="-26.0" type="curve" smooth="yes"/>
      <point x="1550.0" y="-26.0"/>
      <point x="1722.0" y="98.0"/>
      <point x="1802.0" y="276.0" type="curve"/>
      <point x="1588.4" y="326.4" type="line"/>
      <point x="1535.6" y="237.8"/>
      <point x="1450.0" y="184.0"/>
      <point x="1350.0" y="184.0" type="curve" smooth="yes"/>
      <point x="1205.0" y="185.4"/>
      <point x="1100.0" y="288.6"/>
      <point x="1075.0" y="427.8" type="curve"/>
      <point x="1843.0" y="427.8" type="line"/>
      <point x="1878.4" y="752.6"/>
      <point x="1656.0" y="1028.0"/>
      <point x="1350.0" y="1028.0" type="curve" smooth="yes"/>
      <point x="1184.0" y="1028.0"/>
      <point x="1037.8" y="937.6"/>
      <point x="955.0" y="803.6" type="curve"/>
      <point x="872.8" y="937.6"/>
      <point x="726.0" y="1028.0"/>
      <point x="560.0" y="1028.0" type="curve" smooth="yes"/>
      <point x="284.0" y="1028.0"/>
      <point x="60.0" y="792.0"/>
      <point x="60.0" y="500.0" type="curve" smooth="yes"/>
      <point x="60.0" y="210.0"/>
      <point x="284.0" y="-26.0"/>
    </contour>
    <contour>
      <point x="560.0" y="184.0" type="curve" smooth="yes"/>
      <point x="402.8" y="184.0"/>
      <point x="270.0" y="322.8"/>
      <point x="270.0" y="500.0" type="curve" smooth="yes"/>
      <point x="270.0" y="670.6"/>
      <point x="396.4" y="818.0"/>
      <point x="560.0" y="818.0" type="curve" smooth="yes"/>
      <point x="720.8" y="818.0"/>
      <point x="850.0" y="673.4"/>
      <point x="850.0" y="500.0" type="curve" smooth="yes"/>
      <point x="850.0" y="330.0"/>
      <point x="724.4" y="184.0"/>
    </contour>
    <contour>
      <point x="1067.8" y="587.8" type="line"/>
      <point x="1091.0" y="732.0"/>
      <point x="1207.0" y="843.0"/>
      <point x="1350.0" y="843.0" type="curve" smooth="yes"/>
      <point x="1492.4" y="843.0"/>
      <point x="1610.0" y="729.0"/>
      <point x="1630.8" y="587.8" type="curve"/>
    </contour>
  </outline>
</glyph>
<glyph name="breve" format="2">
  <advance width="1144.0"/>
  <unicode hex="02D8"/>
  <outline>
    <contour>
      <point x="572.0" y="1128.0" type="curve" smooth="yes"/>
      <point x="753.0" y="1128.0"/>
      <point x="904.0" y="1274.8"/>
      <point x="904.0" y="1460.0" type="curve"/>
      <point x="769.0" y="1460.0" type="line"/>
      <point x="769.0" y="1350.0"/>
      <point x="680.0" y="1263.0"/>
      <point x="572.0" y="1263.0" type="curve" smooth="yes"/>
      <point x="466.4" y="1263.0"/>
      <point x="375.0" y="1349.8"/>
      <point x="375.0" y="1460.0" type="curve"/>
      <point x="240.0" y="1460.0" type="line"/>
      <point x="240.0" y="1278.0"/>
      <point x="390.0" y="1128.0"/>
    </contour>
  </outline>
</glyph>
<glyph name="ogonek" format="2">
  <advance width="1149.0"/>
  <unicode hex="02DB"/>
  <outline>
    <contour>
      <point x="632.4" y="-410.6" type="curve" smooth="yes"/>
      <point x="721.0" y="-410.6" type="line"/>
      <point x="721.0" y="-252.0" type="line"/>
      <point x="629.6" y="-252.0" type="line" smooth="yes"/>
      <point x="521.4" y="-252.0"/>
      <point x="420.6" y="-151.8"/>
      <point x="420.6" y="-44.4" type="curve" smooth="yes"/>
      <point x="420.6" y="62.0" type="line"/>
      <point x="262.0" y="62.0" type="line"/>
      <point x="262.0" y="-41.6" type="line" smooth="yes"/>
      <point x="262.0" y="-245.8"/>
      <point x="427.4" y="-410.6"/>
    </contour>
  </outline>
</glyph>
<glyph name="gravecomb" format="2">
  <unicode hex="0300"/>
  <outline>
    <contour>
      <point x="320.0" y="1426.0" type="line"/>
      <point x="502.8" y="1138.0" type="line"/>
      <point x="610.0" y="1138.0" type="line"/>
      <point x="530.0" y="1426.0" type="line"/>
    </contour>
  </outline>
</glyph>
<glyph name="acutecomb" format="2">
  <unicode hex="0301"/>
  <outline>
    <contour>
      <point x="480.0" y="1138.0" type="line"/>
      <point x="587.8" y="1138.0" type="line"/>
      <point x="770.0" y="1426.0" type="line"/>
      <point x="560.0" y="1426.0" type="line"/>
    </contour>
  </outline>
</glyph>
<glyph name="circumflexcomb" format="2">
  <unicode hex="0302"/>
  <outline>
    <contour>
      <point x="500.6" y="1400.0" type="line"/>
      <point x="400.0" y="1166.0" type="line"/>
      <point x="538.6" y="1166.0" type="line"/>
      <point x="603.4" y="1317.6" type="line"/>
      <point x="665.6" y="1166.0" type="line"/>
      <point x="804.8" y="1166.0" type="line"/>
      <point x="704.8" y="1400.0" type="line"/>
    </contour>
  </outline>
</glyph>
<glyph name="tildecomb" format="2">
  <unicode hex="0303"/>
  <outline>
    <contour>
      <point x="789.6" y="1239.0" type="curve" smooth="yes"/>
      <point x="922.6" y="1239.0"/>
      <point x="1002.6" y="1358.4"/>
      <point x="953.8" y="1508.0" type="curve"/>
      <point x="825.0" y="1466.4" type="line"/>
      <point x="838.4" y="1430.8"/>
      <point x="838.6" y="1376.8"/>
      <point x="797.0" y="1376.8" type="curve" smooth="yes"/>
      <point x="747.4" y="1376.8"/>
      <point x="576.0" y="1520.0"/>
      <point x="477.6" y="1520.0" type="curve" smooth="yes"/>
      <point x="339.4" y="1520.0"/>
      <point x="266.6" y="1397.8"/>
      <point x="316.0" y="1255.8" type="curve"/>
      <point x="442.6" y="1290.4" type="line"/>
      <point x="430.0" y="1336.4"/>
      <point x="441.4" y="1366.4"/>
      <point x="464.4" y="1381.4" type="curve" smooth="yes"/>
      <point x="508.6" y="1410.0"/>
      <point x="689.4" y="1239.0"/>
    </contour>
  </outline>
</glyph>
<glyph name="dotaccentcomb" format="2">
  <unicode hex="0307"/>
  <outline>
    <contour>
      <point x="512.4" y="1163.6" type="curve" smooth="yes"/>
      <point x="573.6" y="1163.6"/>
      <point x="622.8" y="1210.8"/>
      <point x="622.8" y="1274.0" type="curve" smooth="yes"/>
      <point x="622.8" y="1336.4"/>
      <point x="573.6" y="1384.4"/>
      <point x="512.4" y="1384.4" type="curve" smooth="yes"/>
      <point x="448.6" y="1384.4"/>
      <point x="400.0" y="1336.4"/>
      <point x="400.0" y="1274.0" type="curve" smooth="yes"/>
      <point x="400.0" y="1210.8"/>
      <point x="448.6" y="1163.6"/>
    </contour>
  </outline>
</glyph>
<glyph name="dieresiscomb" format="2">
  <unicode hex="0308"/>
  <outline>
    <contour>
      <point x="513.0" y="1163.6" type="curve" smooth="yes"/>
      <point x="574.8" y="1163.6"/>
      <point x="624.0" y="1210.8"/>
      <point x="624.0" y="1274.0" type="curve" smooth="yes"/>
      <point x="624.0" y="1335.8"/>
      <point x="574.8" y="1385.0"/>
      <point x="513.0" y="1385.0" type="curve" smooth="yes"/>
      <point x="449.8" y="1385.0"/>
      <point x="400.0" y="1335.8"/>
      <point x="400.0" y="1274.0" type="curve" smooth="yes"/>
      <point x="400.0" y="1210.8"/>
      <point x="449.8" y="1163.6"/>
    </contour>
    <contour>
      <point x="882.8" y="1163.6" type="curve" smooth="yes"/>
      <point x="944.0" y="1163.6"/>
      <point x="993.8" y="1210.8"/>
      <point x="993.8" y="1274.0" type="curve" smooth="yes"/>
      <point x="993.8" y="1335.8"/>
      <point x="944.0" y="1385.0"/>
      <point x="882.8" y="1385.0" type="curve" smooth="yes"/>
      <point x="819.0" y="1385.0"/>
      <point x="769.8" y="1335.8"/>
      <point x="769.8" y="1274.0" type="curve" smooth="yes"/>
      <point x="769.8" y="1210.8"/>
      <point x="819.0" y="1163.6"/>
    </contour>
  </outline>
</glyph>
<glyph name="ringcomb" format="2">
  <unicode hex="030A"/>
  <outline>
    <contour>
      <point x="576.6" y="1104.8" type="curve" smooth="yes"/>
      <point x="674.0" y="1104.8"/>
      <point x="753.8" y="1184.0"/>
      <point x="753.8" y="1283.4" type="curve" smooth="yes"/>
      <point x="753.8" y="1378.8"/>
      <point x="674.0" y="1458.6"/>
      <point x="576.6" y="1458.6" type="curve" smooth="yes"/>
      <point x="479.8" y="1458.6"/>
      <point x="400.0" y="1378.8"/>
      <point x="400.0" y="1283.4" type="curve" smooth="yes"/>
      <point x="400.0" y="1186.0"/>
      <point x="479.8" y="1104.8"/>
    </contour>
    <contour>
      <point x="576.6" y="1191.4" type="curve" smooth="yes"/>
      <point x="526.6" y="1191.4"/>
      <point x="486.6" y="1231.4"/>
      <point x="486.6" y="1283.4" type="curve" smooth="yes"/>
      <point x="486.6" y="1331.4"/>
      <point x="526.6" y="1371.4"/>
      <point x="576.6" y="1371.4" type="curve" smooth="yes"/>
      <point x="626.6" y="1371.4"/>
      <point x="666.6" y="1331.4"/>
      <point x="666.6" y="1283.4" type="curve" smooth="yes"/>
      <point x="666.6" y="1231.4"/>
      <point x="626.6" y="1191.4"/>
    </contour>
  </outline>
</glyph>
<glyph name="cedillacomb" format="2">
  <unicode hex="0327"/>
  <outline>
    <contour>
      <point x="400.0" y="-306.0" type="line"/>
      <point x="488.6" y="-306.0" type="line" smooth="yes"/>
      <point x="693.6" y="-306.0"/>
      <point x="859.0" y="-140.6"/>
      <point x="859.0" y="63.0" type="curve" smooth="yes"/>
      <point x="859.0" y="151.6" type="line"/>
      <point x="700.4" y="151.6" type="line"/>
      <point x="700.4" y="60.8" type="line" smooth="yes"/>
      <point x="700.4" y="-46.599999999999994"/>
      <point x="599.6" y="-147.4"/>
      <point x="491.4" y="-147.4" type="curve" smooth="yes"/>
      <point x="400.0" y="-147.4" type="line"/>
    </contour>
  </outline>
</glyph>
<glyph name="mu" format="2">
  <advance width="1109.25"/>
  <unicode hex="03BC"/>
  <outline>
    <contour>
      <point x="80.0" y="-432.0" type="line"/>
      <point x="290.0" y="-432.0" type="line"/>
      <point x="290.0" y="78.0" type="line"/>
      <point x="348.4" y="15.0"/>
      <point x="430.6" y="-27.4"/>
      <point x="527.8" y="-27.4" type="curve" smooth="yes"/>
      <point x="650.8" y="-27.4"/>
      <point x="749.6" y="36.4"/>
      <point x="819.4" y="134.6" type="curve"/>
      <point x="819.4" y="0.0" type="line"/>
      <point x="1029.4" y="0.0" type="line"/>
      <point x="1029.4" y="1000.0" type="line"/>
      <point x="819.4" y="1000.0" type="line"/>
      <point x="819.4" y="482.0" type="line" smooth="yes"/>
      <point x="819.4" y="313.4"/>
      <point x="716.0" y="176.8"/>
      <point x="561.4" y="176.8" type="curve" smooth="yes"/>
      <point x="404.8" y="176.8"/>
      <point x="290.0" y="313.4"/>
      <point x="290.0" y="482.0" type="curve" smooth="yes"/>
      <point x="290.0" y="1000.0" type="line"/>
      <point x="80.0" y="1000.0" type="line"/>
    </contour>
  </outline>
</glyph>
<glyph name="Germandbls" format="2">
  <advance width="1180.0"/>
  <unicode hex="1E9E"/>
  <outline>
    <contour>
      <point x="120.0" y="0.0" type="line"/>
      <point x="330.0" y="0.0" type="line"/>
      <point x="330.0" y="966.8" type="line" smooth="yes"/>
      <point x="330.0" y="1105.4"/>
      <point x="442.0" y="1216.6"/>
      <point x="567.0" y="1216.6" type="curve" smooth="yes"/>
      <point x="677.0" y="1216.6"/>
      <point x="775.4" y="1198.4"/>
      <point x="776.0" y="1103.4" type="curve" smooth="yes"/>
      <point x="776.6" y="1037.0"/>
      <point x="560.0" y="819.0"/>
      <point x="563.0" y="700.4" type="curve" smooth="yes"/>
      <point x="564.8" y="619.8" type="line"/>
      <point x="640.8" y="619.8" type="line" smooth="yes"/>
      <point x="767.6" y="619.8"/>
      <point x="931.4" y="560.8"/>
      <point x="931.4" y="401.8" type="curve" smooth="yes"/>
      <point x="931.4" y="241.0"/>
      <point x="768.8" y="181.4"/>
      <point x="641.4" y="181.4" type="curve" smooth="yes"/>
      <point x="554.6" y="181.4" type="line"/>
      <point x="599.6" y="0.0" type="line"/>
      <point x="661.4" y="0.0" type="line" smooth="yes"/>
      <point x="880.8" y="0.0"/>
      <point x="1120.0" y="139.8"/>
      <point x="1120.0" y="399.8" type="curve" smooth="yes"/>
      <point x="1120.0" y="586.6"/>
      <point x="932.0" y="758.6"/>
      <point x="745.6" y="728.6" type="curve"/>
      <point x="908.6" y="938.4"/>
      <point x="989.6" y="1008.6"/>
      <point x="989.6" y="1099.8" type="curve" smooth="yes"/>
      <point x="989.6" y="1275.0"/>
      <point x="804.6" y="1399.4"/>
      <point x="603.8" y="1399.4" type="curve" smooth="yes"/>
      <point x="337.0" y="1399.4"/>
      <point x="120.0" y="1182.4"/>
      <point x="120.0" y="915.6" type="curve" smooth="yes"/>
    </contour>
  </outline>
</glyph>
<glyph name="endash" format="2">
  <advance width="1240.0"/>
  <unicode hex="2013"/>
  <outline>
    <contour>
      <point x="120.0" y="705.0" type="line"/>
      <point x="120.0" y="495.0" type="line"/>
      <point x="1120.0" y="495.0" type="line"/>
      <point x="1120.0" y="705.0" type="line"/>
    </contour>
  </outline>
</glyph>
<glyph name="quoteleft" format="2">
  <advance width="372.0"/>
  <unicode hex="2018"/>
  <unicode hex="02BB"/>
  <outline>
    <contour>
      <point x="60.0" y="878.0" type="line"/>
      <point x="270.0" y="878.0" type="line"/>
      <point x="332.0" y="1400.0" type="line"/>
      <point x="192.0" y="1400.0" type="line"/>
    </contour>
  </outline>
</glyph>
<glyph name="quoteright" format="2">
  <advance width="372.0"/>
  <unicode hex="2019"/>
  <unicode hex="2032"/>
  <outline>
    <contour>
      <point x="40.0" y="878.0" type="line"/>
      <point x="180.0" y="878.0" type="line"/>
      <point x="312.0" y="1400.0" type="line"/>
      <point x="102.0" y="1400.0" type="line"/>
    </contour>
  </outline>
</glyph>
<glyph name="dagger" format="2">
  <advance width="836.0"/>
  <unicode hex="2020"/>
  <outline>
    <contour>
      <point x="80.0" y="1052.8" type="line"/>
      <point x="313.0" y="1052.8" type="line"/>
      <point x="313.0" y="575.0" type="line"/>
      <point x="523.0" y="575.0" type="line"/>
      <point x="523.0" y="1052.8" type="line"/>
      <point x="756.0" y="1052.8" type="line"/>
      <point x="756.0" y="1262.8" type="line"/>
      <point x="523.0" y="1262.8" type="line"/>
      <point x="523.0" y="1500.0" type="line"/>
      <point x="313.0" y="1500.0" type="line"/>
      <point x="313.0" y="1262.8" type="line"/>
      <point x="80.0" y="1262.8" type="line"/>
    </contour>
  </outline>
</glyph>
<glyph name="daggerdbl" format="2">
  <advance width="836.0"/>
  <unicode hex="2021"/>
  <outline>
    <contour>
      <point x="80.0" y="747.0" type="line"/>
      <point x="313.0" y="747.0" type="line"/>
      <point x="313.0" y="560.0" type="line"/>
      <point x="523.0" y="560.0" type="line"/>
      <point x="523.0" y="747.0" type="line"/>
      <point x="756.0" y="747.0" type="line"/>
      <point x="756.0" y="955.0" type="line"/>
      <point x="523.0" y="955.0" type="line"/>
      <point x="523.0" y="1115.0" type="line"/>
      <point x="756.0" y="1115.0" type="line"/>
      <point x="756.0" y="1325.0" type="line"/>
      <point x="523.0" y="1325.0" type="line"/>
      <point x="523.0" y="1500.0" type="line"/>
      <point x="313.0" y="1500.0" type="line"/>
      <point x="313.0" y="1325.0" type="line"/>
      <point x="80.0" y="1325.0" type="line"/>
      <point x="80.0" y="1115.0" type="line"/>
      <point x="313.0" y="1115.0" type="line"/>
      <point x="313.0" y="955.0" type="line"/>
      <point x="80.0" y="955.0" type="line"/>
    </contour>
  </outline>
</glyph>
<glyph name="bullet" format="2">
  <advance width="455.0"/>
  <unicode hex="2022"/>
  <outline>
    <contour>
      <point x="226.6" y="452.8" type="curve" smooth="yes"/>
      <point x="309.0" y="452.8"/>
      <point x="375.0" y="517.4"/>
      <point x="375.0" y="600.6" type="curve" smooth="yes"/>
      <point x="375.0" y="681.8"/>
      <point x="309.0" y="747.8"/>
      <point x="226.6" y="747.8" type="curve" smooth="yes"/>
      <point x="144.6" y="747.8"/>
      <point x="80.0" y="681.8"/>
      <point x="80.0" y="600.6" type="curve" smooth="yes"/>
      <point x="80.0" y="517.4"/>
      <point x="144.6" y="452.8"/>
    </contour>
  </outline>
</glyph>
<glyph name="perthousand" format="2">
  <advance width="2038.0"/>
  <unicode hex="2030"/>
  <outline>
    <contour>
      <point x="191.8" y="0.0" type="line"/>
      <point x="434.0" y="0.0" type="line"/>
      <point x="1242.0" y="1400.0" type="line"/>
      <point x="999.8" y="1400.0" type="line"/>
    </contour>
    <contour>
      <point x="360.6" y="812.8" type="curve"/>
      <point x="510.8" y="812.8"/>
      <point x="640.4" y="933.8"/>
      <point x="640.4" y="1092.0" type="curve"/>
      <point x="640.4" y="1246.6"/>
      <point x="514.4" y="1372.4"/>
      <point x="360.6" y="1372.4" type="curve"/>
      <point x="209.6" y="1372.4"/>
      <point x="80.0" y="1251.6"/>
      <point x="80.0" y="1092.0" type="curve"/>
      <point x="80.0" y="936.0"/>
      <point x="207.4" y="812.8"/>
    </contour>
    <contour>
      <point x="360.6" y="960.0" type="curve"/>
      <point x="286.6" y="960.0"/>
      <point x="227.8" y="1018.6"/>
      <point x="227.8" y="1092.0" type="curve"/>
      <point x="227.8" y="1166.0"/>
      <point x="286.6" y="1224.6"/>
      <point x="360.6" y="1224.6" type="curve"/>
      <point x="433.8" y="1224.6"/>
      <point x="492.6" y="1166.0"/>
      <point x="492.6" y="1092.0" type="curve"/>
      <point x="492.6" y="1018.6"/>
      <point x="433.8" y="960.0"/>
    </contour>
    <contour>
      <point x="1051.0" y="26.799999999999997" type="curve"/>
      <point x="1205.6" y="26.799999999999997"/>
      <point x="1331.6" y="153.4"/>
      <point x="1331.6" y="306.6" type="curve"/>
      <point x="1331.6" y="456.8"/>
      <point x="1210.6" y="587.8"/>
      <point x="1051.0" y="587.8" type="curve"/>
      <point x="901.4" y="587.8"/>
      <point x="770.6" y="465.4"/>
      <point x="770.6" y="306.6" type="curve"/>
      <point x="770.6" y="158.4"/>
      <point x="895.0" y="26.799999999999997"/>
    </contour>
    <contour>
      <point x="1051.0" y="174.0" type="curve"/>
      <point x="978.4" y="174.0"/>
      <point x="918.4" y="234.0"/>
      <point x="918.4" y="306.6" type="curve"/>
      <point x="918.4" y="380.0"/>
      <point x="978.4" y="440.0"/>
      <point x="1051.0" y="440.0" type="curve"/>
      <point x="1124.4" y="440.0"/>
      <point x="1184.4" y="380.0"/>
      <point x="1184.4" y="306.6" type="curve"/>
      <point x="1184.4" y="234.0"/>
      <point x="1124.4" y="174.0"/>
    </contour>
    <contour>
      <point x="1677.4" y="26.799999999999997" type="curve"/>
      <point x="1832.0" y="26.799999999999997"/>
      <point x="1958.0" y="153.4"/>
      <point x="1958.0" y="306.6" type="curve"/>
      <point x="1958.0" y="456.8"/>
      <point x="1837.0" y="587.8"/>
      <point x="1677.4" y="587.8" type="curve"/>
      <point x="1527.8" y="587.8"/>
      <point x="1397.0" y="465.4"/>
      <point x="1397.0" y="306.6" type="curve"/>
      <point x="1397.0" y="158.4"/>
      <point x="1521.4" y="26.799999999999997"/>
    </contour>
    <contour>
      <point x="1677.4" y="174.0" type="curve"/>
      <point x="1604.8" y="174.0"/>
      <point x="1544.8" y="234.0"/>
      <point x="1544.8" y="306.6" type="curve"/>
      <point x="1544.8" y="380.0"/>
      <point x="1604.8" y="440.0"/>
      <point x="1677.4" y="440.0" type="curve"/>
      <point x="1750.8" y="440.0"/>
      <point x="1810.8" y="380.0"/>
      <point x="1810.8" y="306.6" type="curve"/>
      <point x="1810.8" y="234.0"/>
      <point x="1750.8" y="174.0"/>
    </contour>
  </outline>
</glyph>
<glyph name="primeReversed" format="2">
  <advance width="512.0"/>
  <unicode hex="2035"/>
  <outline>
    <contour>
      <point x="252.0" y="878.0" type="line"/>
      <point x="392.0" y="878.0" type="line"/>
      <point x="330.0" y="1400.0" type="line"/>
      <point x="120.0" y="1400.0" type="line"/>
    </contour>
  </outline>
</glyph>
<glyph name="guilsinglleft" format="2">
  <advance width="737.5"/>
  <unicode hex="2039"/>
  <outline>
    <contour>
      <point x="420.0" y="261.0" type="line"/>
      <point x="637.8" y="261.0" type="line"/>
      <point x="338.6" y="601.0" type="line"/>
      <point x="637.8" y="939.0" type="line"/>
      <point x="420.0" y="939.0" type="line"/>
      <point x="120.0" y="601.0" type="line"/>
    </contour>
  </outline>
</glyph>
<glyph name="guilsinglright" format="2">
  <advance width="737.5"/>
  <unicode hex="203A"/>
  <outline>
    <contour>
      <point x="100.0" y="261.0" type="line"/>
      <point x="317.8" y="261.0" type="line"/>
      <point x="617.8" y="601.0" type="line"/>
      <point x="317.8" y="939.0" type="line"/>
      <point x="100.0" y="939.0" type="line"/>
      <point x="398.6" y="601.0" type="line"/>
    </contour>
  </outline>
</glyph>
<glyph name="fraction" format="2">
  <advance width="985.5"/>
  <unicode hex="2044"/>
  <unicode hex="2215"/>
  <outline>
    <contour>
      <point x="0.0" y="0.0" type="line"/>
      <point x="177.8" y="0.0" type="line"/>
      <point x="985.8" y="1400.0" type="line"/>
      <point x="808.0" y="1400.0" type="line"/>
    </contour>
  </outline>
</glyph>
<glyph name="zerosuperior" format="2">
  <advance width="648.0"/>
  <unicode hex="2070"/>
  <outline>
    <contour>
      <point x="324.0" y="798.0" type="curve"/>
      <point x="463.0" y="798.0"/>
      <point x="576.0" y="941.4"/>
      <point x="576.0" y="1133.4" type="curve"/>
      <point x="576.0" y="1324.0"/>
      <point x="463.0" y="1468.0"/>
      <point x="324.0" y="1468.0" type="curve"/>
      <point x="185.0" y="1468.0"/>
      <point x="72.0" y="1324.0"/>
      <point x="72.0" y="1133.4" type="curve"/>
      <point x="72.0" y="941.4"/>
      <point x="185.0" y="798.0"/>
    </contour>
    <contour>
      <point x="324.0" y="922.8" type="curve"/>
      <point x="249.8" y="922.8"/>
      <point x="204.0" y="1033.4"/>
      <point x="204.0" y="1133.4" type="curve"/>
      <point x="204.0" y="1225.6"/>
      <point x="245.4" y="1343.8"/>
      <point x="324.0" y="1343.8" type="curve"/>
      <point x="396.8" y="1343.8"/>
      <point x="444.0" y="1231.8"/>
      <point x="444.0" y="1133.4" type="curve"/>
      <point x="444.0" y="1045.4"/>
      <point x="399.4" y="922.8"/>
    </contour>
  </outline>
</glyph>
<glyph name="foursuperior" format="2">
  <advance width="687.75"/>
  <unicode hex="2074"/>
  <outline>
    <contour>
      <point x="349.0" y="818.0" type="line"/>
      <point x="481.0" y="818.0" type="line"/>
      <point x="481.0" y="923.8" type="line"/>
      <point x="543.6" y="923.8" type="line"/>
      <point x="543.6" y="1055.8" type="line"/>
      <point x="481.0" y="1055.8" type="line"/>
      <point x="481.0" y="1449.0" type="line"/>
      <point x="328.4" y="1449.0" type="line"/>
      <point x="96.0" y="1082.6" type="line"/>
      <point x="96.0" y="923.8" type="line"/>
      <point x="349.0" y="923.8" type="line"/>
    </contour>
    <contour>
      <point x="226.6" y="1055.8" type="line"/>
      <point x="359.4" y="1266.2" type="line"/>
      <point x="359.4" y="1055.8" type="line"/>
    </contour>
  </outline>
</glyph>
<glyph name="fivesuperior" format="2">
  <advance width="692.5"/>
  <unicode hex="2075"/>
  <outline>
    <contour>
      <point x="315.4" y="798.0" type="curve" smooth="yes"/>
      <point x="443.8" y="798.0"/>
      <point x="548.8" y="889.6"/>
      <point x="548.8" y="1017.4" type="curve" smooth="yes"/>
      <point x="548.8" y="1164.4"/>
      <point x="434.8" y="1256.0"/>
      <point x="267.2" y="1245.8" type="curve"/>
      <point x="271.4" y="1332.0" type="line"/>
      <point x="495.4" y="1332.0" type="line"/>
      <point x="495.4" y="1449.0" type="line"/>
      <point x="151.4" y="1449.0" type="line"/>
      <point x="119.8" y="1098.6" type="line"/>
      <point x="190.8" y="1113.8"/>
      <point x="267.6" y="1119.0"/>
      <point x="315.4" y="1116.8" type="curve" smooth="yes"/>
      <point x="371.0" y="1113.6"/>
      <point x="416.8" y="1072.2"/>
      <point x="416.8" y="1017.4" type="curve" smooth="yes"/>
      <point x="416.8" y="963.8"/>
      <point x="371.0" y="922.8"/>
      <point x="315.4" y="922.8" type="curve" smooth="yes"/>
      <point x="260.8" y="922.8"/>
      <point x="216.0" y="963.8"/>
      <point x="216.0" y="1017.4" type="curve"/>
      <point x="84.0" y="1017.4" type="line"/>
      <point x="84.0" y="889.6"/>
      <point x="188.4" y="798.0"/>
    </contour>
  </outline>
</glyph>
<glyph name="sixsuperior" format="2">
  <advance width="706.0"/>
  <unicode hex="2076"/>
  <outline>
    <contour>
      <point x="329.0" y="798.0" type="curve" smooth="yes"/>
      <point x="454.2" y="798.0"/>
      <point x="562.0" y="885.2"/>
      <point x="562.0" y="1017.6" type="curve" smooth="yes"/>
      <point x="562.0" y="1136.4"/>
      <point x="473.2" y="1234.8"/>
      <point x="342.6" y="1245.0" type="curve"/>
      <point x="460.0" y="1446.0" type="line"/>
      <point x="306.4" y="1446.0" type="line"/>
      <point x="120.8" y="1126.8"/>
      <point x="96.0" y="1093.4"/>
      <point x="96.0" y="1019.0" type="curve" smooth="yes"/>
      <point x="96.0" y="890.6"/>
      <point x="196.6" y="798.0"/>
    </contour>
    <contour>
      <point x="329.0" y="922.8" type="curve" smooth="yes"/>
      <point x="280.4" y="922.8"/>
      <point x="234.4" y="951.4"/>
      <point x="229.4" y="1007.4" type="curve" smooth="yes"/>
      <point x="223.4" y="1063.0"/>
      <point x="263.6" y="1118.6"/>
      <point x="329.0" y="1118.6" type="curve" smooth="yes"/>
      <point x="378.0" y="1118.6"/>
      <point x="423.6" y="1083.0"/>
      <point x="428.2" y="1028.6" type="curve" smooth="yes"/>
      <point x="434.6" y="969.6"/>
      <point x="388.0" y="922.8"/>
    </contour>
  </outline>
</glyph>
<glyph name="sevensuperior" format="2">
  <advance width="658.25"/>
  <unicode hex="2077"/>
  <outline>
    <contour>
      <point x="148.8" y="818.0" type="line"/>
      <point x="300.0" y="818.0" type="line"/>
      <point x="586.4" y="1318.4" type="line"/>
      <point x="586.4" y="1447.2" type="line"/>
      <point x="120.0" y="1447.2" type="line"/>
      <point x="120.0" y="1315.2" type="line"/>
      <point x="433.8" y="1315.2" type="line"/>
    </contour>
  </outline>
</glyph>
<glyph name="eightsuperior" format="2">
  <advance width="619.875"/>
  <unicode hex="2078"/>
  <outline>
    <contour>
      <point x="308.6" y="798.0" type="curve" smooth="yes"/>
      <point x="428.8" y="798.0"/>
      <point x="523.8" y="879.6"/>
      <point x="523.8" y="997.8" type="curve" smooth="yes"/>
      <point x="523.8" y="1058.2"/>
      <point x="498.8" y="1111.8"/>
      <point x="459.4" y="1149.6" type="curve"/>
      <point x="490.6" y="1183.2"/>
      <point x="510.0" y="1230.8"/>
      <point x="510.0" y="1278.6" type="curve" smooth="yes"/>
      <point x="510.0" y="1390.8"/>
      <point x="419.4" y="1469.4"/>
      <point x="308.6" y="1469.4" type="curve" smooth="yes"/>
      <point x="199.0" y="1469.4"/>
      <point x="109.8" y="1390.8"/>
      <point x="109.8" y="1278.6" type="curve" smooth="yes"/>
      <point x="109.8" y="1230.8"/>
      <point x="129.8" y="1183.2"/>
      <point x="160.4" y="1149.6" type="curve"/>
      <point x="121.6" y="1111.8"/>
      <point x="96.0" y="1058.2"/>
      <point x="96.0" y="997.8" type="curve" smooth="yes"/>
      <point x="96.0" y="879.6"/>
      <point x="191.6" y="798.0"/>
    </contour>
    <contour>
      <point x="308.6" y="921.4" type="curve" smooth="yes"/>
      <point x="264.6" y="921.4"/>
      <point x="228.0" y="953.8"/>
      <point x="228.0" y="997.8" type="curve" smooth="yes"/>
      <point x="228.0" y="1043.2"/>
      <point x="264.6" y="1079.8"/>
      <point x="308.6" y="1079.8" type="curve" smooth="yes"/>
      <point x="355.2" y="1079.8"/>
      <point x="391.8" y="1043.2"/>
      <point x="391.8" y="997.8" type="curve" smooth="yes"/>
      <point x="391.8" y="953.8"/>
      <point x="355.2" y="921.4"/>
    </contour>
    <contour>
      <point x="308.6" y="1211.8" type="curve" smooth="yes"/>
      <point x="272.8" y="1211.8"/>
      <point x="241.8" y="1242.8"/>
      <point x="241.8" y="1278.6" type="curve" smooth="yes"/>
      <point x="241.8" y="1317.6"/>
      <point x="272.8" y="1343.8"/>
      <point x="308.6" y="1343.8" type="curve" smooth="yes"/>
      <point x="347.6" y="1343.8"/>
      <point x="378.0" y="1317.6"/>
      <point x="378.0" y="1278.6" type="curve" smooth="yes"/>
      <point x="378.0" y="1242.8"/>
      <point x="347.6" y="1211.8"/>
    </contour>
  </outline>
</glyph>
<glyph name="ninesuperior" format="2">
  <advance width="658.375"/>
  <unicode hex="2079"/>
  <outline>
    <contour>
      <point x="172.6" y="818.0" type="line"/>
      <point x="324.6" y="818.0" type="line"/>
      <point x="504.8" y="1128.4" type="line"/>
      <point x="518.4" y="1153.2"/>
      <point x="525.4" y="1178.4"/>
      <point x="526.6" y="1203.8" type="curve" smooth="yes"/>
      <point x="560.8" y="1338.8"/>
      <point x="455.8" y="1468.0"/>
      <point x="305.6" y="1468.0" type="curve" smooth="yes"/>
      <point x="194.8" y="1468.0"/>
      <point x="100.2" y="1398.6"/>
      <point x="84.0" y="1290.2" type="curve" smooth="yes"/>
      <point x="45.6" y="1161.6"/>
      <point x="146.6" y="1019.2"/>
      <point x="289.6" y="1022.0" type="curve"/>
    </contour>
    <contour>
      <point x="305.6" y="1146.0" type="curve" smooth="yes"/>
      <point x="266.0" y="1146.0"/>
      <point x="214.2" y="1171.8"/>
      <point x="206.4" y="1230.6" type="curve" smooth="yes"/>
      <point x="197.4" y="1288.6"/>
      <point x="239.8" y="1343.8"/>
      <point x="305.6" y="1343.8" type="curve" smooth="yes"/>
      <point x="349.2" y="1343.8"/>
      <point x="396.4" y="1312.8"/>
      <point x="404.8" y="1264.4" type="curve" smooth="yes"/>
      <point x="413.8" y="1202.0"/>
      <point x="366.8" y="1146.0"/>
    </contour>
  </outline>
</glyph>
<glyph name="zeroinferior" format="2">
  <advance width="648.0"/>
  <unicode hex="2080"/>
  <outline>
    <contour>
      <point x="324.0" y="-31.0" type="curve"/>
      <point x="463.0" y="-31.0"/>
      <point x="576.0" y="119.0"/>
      <point x="576.0" y="311.0" type="curve"/>
      <point x="576.0" y="501.2"/>
      <point x="463.0" y="652.4"/>
      <point x="324.0" y="652.4" type="curve"/>
      <point x="185.0" y="652.4"/>
      <point x="72.0" y="501.2"/>
      <point x="72.0" y="311.0" type="curve"/>
      <point x="72.0" y="119.0"/>
      <point x="185.0" y="-31.0"/>
    </contour>
    <contour>
      <point x="324.0" y="101.0" type="curve"/>
      <point x="249.8" y="101.0"/>
      <point x="204.0" y="211.6"/>
      <point x="204.0" y="311.0" type="curve"/>
      <point x="204.0" y="402.8"/>
      <point x="245.4" y="520.4"/>
      <point x="324.0" y="520.4" type="curve"/>
      <point x="396.8" y="520.4"/>
      <point x="444.0" y="408.4"/>
      <point x="444.0" y="311.0" type="curve"/>
      <point x="444.0" y="222.6"/>
      <point x="399.4" y="101.0"/>
    </contour>
  </outline>
</glyph>
<glyph name="oneinferior" format="2">
  <advance width="441.625"/>
  <unicode hex="2081"/>
  <outline>
    <contour>
      <point x="165.4" y="0.0" type="line"/>
      <point x="297.4" y="0.0" type="line"/>
      <point x="297.4" y="631.0" type="line"/>
      <point x="114.6" y="631.0" type="line"/>
      <point x="96.0" y="499.0" type="line"/>
      <point x="165.4" y="499.0" type="line"/>
    </contour>
  </outline>
</glyph>
<glyph name="twoinferior" format="2">
  <advance width="705.625"/>
  <unicode hex="2082"/>
  <outline>
    <contour>
      <point x="96.0" y="0.0" type="line"/>
      <point x="554.2" y="0.0" type="line"/>
      <point x="554.2" y="132.0" type="line"/>
      <point x="333.4" y="132.0" type="line"/>
      <point x="434.2" y="211.4"/>
      <point x="561.4" y="318.8"/>
      <point x="561.4" y="428.8" type="curve"/>
      <point x="561.4" y="556.8"/>
      <point x="458.2" y="657.8"/>
      <point x="330.2" y="657.8" type="curve"/>
      <point x="200.6" y="657.8"/>
      <point x="96.0" y="556.8"/>
      <point x="96.0" y="428.8" type="curve"/>
      <point x="228.0" y="428.8" type="line"/>
      <point x="228.0" y="485.6"/>
      <point x="273.4" y="525.8"/>
      <point x="330.2" y="525.8" type="curve"/>
      <point x="385.6" y="525.8"/>
      <point x="429.4" y="485.6"/>
      <point x="429.4" y="428.8" type="curve"/>
      <point x="384.4" y="299.6"/>
      <point x="204.4" y="193.6"/>
      <point x="96.0" y="119.0" type="curve"/>
    </contour>
  </outline>
</glyph>
<glyph name="threeinferior" format="2">
  <advance width="570.0"/>
  <unicode hex="2083"/>
  <outline>
    <contour>
      <point x="286.0" y="-31.0" type="curve" smooth="yes"/>
      <point x="401.8" y="-31.0"/>
      <point x="498.0" y="61.0"/>
      <point x="498.0" y="178.8" type="curve" smooth="yes"/>
      <point x="498.0" y="240.8"/>
      <point x="475.6" y="287.8"/>
      <point x="430.6" y="329.8" type="curve"/>
      <point x="460.0" y="359.2"/>
      <point x="480.4" y="407.6"/>
      <point x="480.4" y="458.8" type="curve" smooth="yes"/>
      <point x="480.4" y="567.8"/>
      <point x="391.6" y="652.4"/>
      <point x="281.0" y="652.4" type="curve" smooth="yes"/>
      <point x="171.4" y="652.4"/>
      <point x="82.6" y="567.8"/>
      <point x="82.6" y="458.8" type="curve"/>
      <point x="214.6" y="458.8" type="line"/>
      <point x="214.6" y="494.2"/>
      <point x="245.6" y="520.4"/>
      <point x="281.0" y="520.4" type="curve" smooth="yes"/>
      <point x="317.4" y="520.4"/>
      <point x="348.4" y="494.2"/>
      <point x="348.4" y="458.8" type="curve" smooth="yes"/>
      <point x="348.4" y="413.6"/>
      <point x="317.6" y="371.8"/>
      <point x="236.2" y="371.8" type="curve"/>
      <point x="236.2" y="278.4" type="line"/>
      <point x="321.0" y="278.4"/>
      <point x="366.0" y="231.8"/>
      <point x="366.0" y="178.8" type="curve" smooth="yes"/>
      <point x="366.0" y="132.8"/>
      <point x="330.6" y="101.0"/>
      <point x="286.0" y="101.0" type="curve" smooth="yes"/>
      <point x="239.4" y="101.0"/>
      <point x="204.0" y="132.8"/>
      <point x="204.0" y="178.8" type="curve"/>
      <point x="72.0" y="178.8" type="line"/>
      <point x="72.0" y="61.0"/>
      <point x="168.8" y="-31.0"/>
    </contour>
  </outline>
</glyph>
<glyph name="fourinferior" format="2">
  <advance width="687.75"/>
  <unicode hex="2084"/>
  <outline>
    <contour>
      <point x="349.0" y="0.0" type="line"/>
      <point x="481.0" y="0.0" type="line"/>
      <point x="481.0" y="105.8" type="line"/>
      <point x="543.6" y="105.8" type="line"/>
      <point x="543.6" y="237.8" type="line"/>
      <point x="481.0" y="237.8" type="line"/>
      <point x="481.0" y="631.0" type="line"/>
      <point x="328.4" y="631.0" type="line"/>
      <point x="96.0" y="264.6" type="line"/>
      <point x="96.0" y="105.8" type="line"/>
      <point x="349.0" y="105.8" type="line"/>
    </contour>
    <contour>
      <point x="226.6" y="237.8" type="line"/>
      <point x="359.4" y="448.2" type="line"/>
      <point x="359.4" y="237.8" type="line"/>
    </contour>
  </outline>
</glyph>
<glyph name="fiveinferior" format="2">
  <advance width="692.5"/>
  <unicode hex="2085"/>
  <outline>
    <contour>
      <point x="315.4" y="-31.0" type="curve"/>
      <point x="443.8" y="-31.0"/>
      <point x="548.8" y="66.8"/>
      <point x="548.8" y="195.8" type="curve"/>
      <point x="548.8" y="324.8"/>
      <point x="461.6" y="426.0"/>
      <point x="318.2" y="426.0" type="curve"/>
      <point x="267.2" y="423.6" type="line"/>
      <point x="271.4" y="507.8" type="line"/>
      <point x="495.4" y="507.8" type="line"/>
      <point x="495.4" y="625.6" type="line"/>
      <point x="151.4" y="625.6" type="line"/>
      <point x="118.4" y="281.4" type="line"/>
      <point x="315.4" y="294.0" type="line"/>
      <point x="371.0" y="294.0"/>
      <point x="416.8" y="250.4"/>
      <point x="416.8" y="195.8" type="curve"/>
      <point x="416.8" y="141.0"/>
      <point x="371.0" y="101.0"/>
      <point x="315.4" y="101.0" type="curve"/>
      <point x="260.8" y="101.0"/>
      <point x="216.0" y="141.0"/>
      <point x="216.0" y="195.8" type="curve"/>
      <point x="84.0" y="195.8" type="line"/>
      <point x="84.0" y="66.8"/>
      <point x="188.4" y="-31.0"/>
    </contour>
  </outline>
</glyph>
<glyph name="sixinferior" format="2">
  <advance width="682.0"/>
  <unicode hex="2086"/>
  <outline>
    <contour>
      <point x="329.0" y="-31.0" type="curve" smooth="yes"/>
      <point x="454.2" y="-31.0"/>
      <point x="562.0" y="63.4"/>
      <point x="562.0" y="195.4" type="curve" smooth="yes"/>
      <point x="562.0" y="314.6"/>
      <point x="473.2" y="413.6"/>
      <point x="342.6" y="422.8" type="curve"/>
      <point x="460.6" y="625.4" type="line"/>
      <point x="307.0" y="625.4" type="line"/>
      <point x="120.8" y="305.6"/>
      <point x="96.0" y="272.2"/>
      <point x="96.0" y="197.8" type="curve" smooth="yes"/>
      <point x="96.0" y="68.8"/>
      <point x="196.6" y="-31.0"/>
    </contour>
    <contour>
      <point x="329.0" y="101.0" type="curve" smooth="yes"/>
      <point x="280.4" y="101.0"/>
      <point x="234.4" y="129.2"/>
      <point x="229.4" y="185.6" type="curve" smooth="yes"/>
      <point x="224.8" y="240.8"/>
      <point x="263.6" y="296.4"/>
      <point x="329.0" y="296.4" type="curve" smooth="yes"/>
      <point x="378.0" y="296.4"/>
      <point x="423.6" y="261.2"/>
      <point x="428.2" y="206.4" type="curve" smooth="yes"/>
      <point x="434.6" y="147.4"/>
      <point x="388.0" y="101.0"/>
    </contour>
  </outline>
</glyph>
<glyph name="seveninferior" format="2">
  <advance width="658.25"/>
  <unicode hex="2087"/>
  <outline>
    <contour>
      <point x="145.8" y="0.0" type="line"/>
      <point x="297.6" y="0.0" type="line"/>
      <point x="586.4" y="502.2" type="line"/>
      <point x="586.4" y="631.0" type="line"/>
      <point x="120.0" y="631.0" type="line"/>
      <point x="120.0" y="499.0" type="line"/>
      <point x="433.8" y="499.0" type="line"/>
    </contour>
  </outline>
</glyph>
<glyph name="eightinferior" format="2">
  <advance width="619.875"/>
  <unicode hex="2088"/>
  <outline>
    <contour>
      <point x="308.6" y="-31.0" type="curve" smooth="yes"/>
      <point x="428.8" y="-31.0"/>
      <point x="523.8" y="57.8"/>
      <point x="523.8" y="175.6" type="curve" smooth="yes"/>
      <point x="523.8" y="236.0"/>
      <point x="498.8" y="290.6"/>
      <point x="459.4" y="327.4" type="curve"/>
      <point x="490.6" y="361.4"/>
      <point x="510.0" y="408.0"/>
      <point x="510.0" y="456.4" type="curve" smooth="yes"/>
      <point x="510.0" y="569.0"/>
      <point x="419.4" y="653.0"/>
      <point x="308.6" y="653.0" type="curve" smooth="yes"/>
      <point x="199.0" y="653.0"/>
      <point x="109.8" y="569.0"/>
      <point x="109.8" y="456.4" type="curve" smooth="yes"/>
      <point x="109.8" y="408.0"/>
      <point x="129.8" y="361.4"/>
      <point x="160.4" y="327.4" type="curve"/>
      <point x="121.6" y="290.6"/>
      <point x="96.0" y="236.0"/>
      <point x="96.0" y="175.6" type="curve" smooth="yes"/>
      <point x="96.0" y="57.8"/>
      <point x="191.6" y="-31.0"/>
    </contour>
    <contour>
      <point x="308.6" y="99.2" type="curve" smooth="yes"/>
      <point x="264.6" y="99.2"/>
      <point x="228.0" y="131.0"/>
      <point x="228.0" y="175.6" type="curve" smooth="yes"/>
      <point x="228.0" y="221.0"/>
      <point x="264.6" y="257.6"/>
      <point x="308.6" y="257.6" type="curve" smooth="yes"/>
      <point x="355.2" y="257.6"/>
      <point x="391.8" y="221.0"/>
      <point x="391.8" y="175.6" type="curve" smooth="yes"/>
      <point x="391.8" y="131.0"/>
      <point x="355.2" y="99.2"/>
    </contour>
    <contour>
      <point x="308.6" y="389.6" type="curve" smooth="yes"/>
      <point x="272.8" y="389.6"/>
      <point x="241.8" y="421.0"/>
      <point x="241.8" y="456.4" type="curve" smooth="yes"/>
      <point x="241.8" y="494.8"/>
      <point x="272.8" y="521.0"/>
      <point x="308.6" y="521.0" type="curve" smooth="yes"/>
      <point x="347.6" y="521.0"/>
      <point x="378.0" y="494.8"/>
      <point x="378.0" y="456.4" type="curve" smooth="yes"/>
      <point x="378.0" y="421.0"/>
      <point x="347.6" y="389.6"/>
    </contour>
  </outline>
</glyph>
<glyph name="nineinferior" format="2">
  <advance width="658.75"/>
  <unicode hex="2089"/>
  <outline>
    <contour>
      <point x="172.6" y="0.0" type="line"/>
      <point x="324.6" y="0.0" type="line"/>
      <point x="506.6" y="314.0" type="line"/>
      <point x="596.8" y="470.8"/>
      <point x="482.6" y="657.8"/>
      <point x="305.6" y="657.8" type="curve" smooth="yes"/>
      <point x="194.8" y="657.8"/>
      <point x="100.2" y="581.6"/>
      <point x="84.0" y="473.2" type="curve" smooth="yes"/>
      <point x="45.6" y="344.6"/>
      <point x="146.6" y="201.8"/>
      <point x="289.6" y="204.0" type="curve"/>
    </contour>
    <contour>
      <point x="305.6" y="329.0" type="curve" smooth="yes"/>
      <point x="266.0" y="329.0"/>
      <point x="214.2" y="353.8"/>
      <point x="206.4" y="412.6" type="curve" smooth="yes"/>
      <point x="197.4" y="470.6"/>
      <point x="239.8" y="525.8"/>
      <point x="305.6" y="525.8" type="curve" smooth="yes"/>
      <point x="349.2" y="525.8"/>
      <point x="396.4" y="494.8"/>
      <point x="404.8" y="446.4" type="curve" smooth="yes"/>
      <point x="413.8" y="384.6"/>
      <point x="366.8" y="329.0"/>
    </contour>
  </outline>
</glyph>
<glyph name="euro" format="2">
  <advance width="1135.75"/>
  <unicode hex="20AC"/>
  <outline>
    <contour>
      <point x="1055.6" y="-15.4" type="curve"/>
      <point x="1055.6" y="201.0" type="line"/>
      <point x="818.8" y="140.8"/>
      <point x="594.8" y="267.8"/>
      <point x="503.6" y="493.0" type="curve"/>
      <point x="793.0" y="493.0" type="line"/>
      <point x="793.0" y="640.8" type="line"/>
      <point x="461.4" y="640.8" type="line"/>
      <point x="460.0" y="757.0" type="line"/>
      <point x="793.0" y="757.0" type="line"/>
      <point x="793.0" y="904.8" type="line"/>
      <point x="502.8" y="904.8" type="line"/>
      <point x="589.8" y="1125.4"/>
      <point x="811.4" y="1261.8"/>
      <point x="1055.6" y="1199.6" type="curve"/>
      <point x="1055.6" y="1416.0" type="line"/>
      <point x="700.4" y="1478.0"/>
      <point x="372.0" y="1255.8"/>
      <point x="275.8" y="904.8" type="curve"/>
      <point x="80.0" y="904.8" type="line"/>
      <point x="80.0" y="757.0" type="line"/>
      <point x="249.4" y="757.0" type="line"/>
      <point x="249.4" y="640.8" type="line"/>
      <point x="80.0" y="640.8" type="line"/>
      <point x="80.0" y="493.0" type="line"/>
      <point x="275.8" y="493.0" type="line"/>
      <point x="373.0" y="148.0"/>
      <point x="696.0" y="-78.0"/>
    </contour>
  </outline>
</glyph>
<glyph name="leftArrow" format="2">
  <advance width="1394.5"/>
  <unicode hex="2190"/>
  <outline>
    <contour>
      <point x="599.6" y="230.4" type="line"/>
      <point x="748.0" y="378.8" type="line"/>
      <point x="481.8" y="645.0" type="line"/>
      <point x="1314.8" y="645.0" type="line"/>
      <point x="1314.8" y="855.0" type="line"/>
      <point x="481.8" y="855.0" type="line"/>
      <point x="748.0" y="1121.8" type="line"/>
      <point x="599.6" y="1269.6" type="line"/>
      <point x="80.0" y="750.0" type="line"/>
    </contour>
  </outline>
</glyph>
<glyph name="upArrow" format="2">
  <advance width="1200.25"/>
  <unicode hex="2191"/>
  <outline>
    <contour>
      <point x="495.8" y="131.6" type="line"/>
      <point x="705.8" y="131.6" type="line"/>
      <point x="705.8" y="965.8" type="line"/>
      <point x="972.0" y="699.8" type="line"/>
      <point x="1120.4" y="848.8" type="line"/>
      <point x="600.8" y="1368.4" type="line"/>
      <point x="80.0" y="848.8" type="line"/>
      <point x="229.0" y="699.8" type="line"/>
      <point x="495.8" y="965.8" type="line"/>
    </contour>
  </outline>
</glyph>
<glyph name="rightArrow" format="2">
  <advance width="1395.75"/>
  <unicode hex="2192"/>
  <outline>
    <contour>
      <point x="795.4" y="230.4" type="line"/>
      <point x="1315.6" y="750.0" type="line"/>
      <point x="795.4" y="1269.6" type="line"/>
      <point x="647.0" y="1121.8" type="line"/>
      <point x="912.4" y="855.0" type="line"/>
      <point x="80.0" y="855.0" type="line"/>
      <point x="80.0" y="645.0" type="line"/>
      <point x="912.4" y="645.0" type="line"/>
      <point x="647.0" y="378.8" type="line"/>
    </contour>
  </outline>
</glyph>
<glyph name="downArrow" format="2">
  <advance width="1199.0"/>
  <unicode hex="2193"/>
  <outline>
    <contour>
      <point x="598.8" y="132.8" type="line"/>
      <point x="1119.0" y="652.4" type="line"/>
      <point x="970.6" y="800.8" type="line"/>
      <point x="703.8" y="535.4" type="line"/>
      <point x="703.8" y="1367.8" type="line"/>
      <point x="493.8" y="1367.8" type="line"/>
      <point x="493.8" y="535.4" type="line"/>
      <point x="228.4" y="800.8" type="line"/>
      <point x="80.0" y="652.4" type="line"/>
    </contour>
  </outline>
</glyph>
<glyph name="leftRightArrow" format="2">
  <advance width="1790.75"/>
  <unicode hex="2194"/>
  <outline>
    <contour>
      <point x="599.6" y="230.4" type="line"/>
      <point x="748.0" y="378.8" type="line"/>
      <point x="481.8" y="645.0" type="line"/>
      <point x="1307.4" y="645.0" type="line"/>
      <point x="1042.0" y="378.8" type="line"/>
      <point x="1190.4" y="230.4" type="line"/>
      <point x="1710.6" y="750.0" type="line"/>
      <point x="1190.4" y="1269.6" type="line"/>
      <point x="1042.0" y="1121.8" type="line"/>
      <point x="1307.4" y="855.0" type="line"/>
      <point x="481.8" y="855.0" type="line"/>
      <point x="748.0" y="1121.8" type="line"/>
      <point x="599.6" y="1269.6" type="line"/>
      <point x="80.0" y="750.0" type="line"/>
    </contour>
  </outline>
</glyph>
<glyph name="upDownArrow" format="2">
  <advance width="1200.25"/>
  <unicode hex="2195"/>
  <outline>
    <contour>
      <point x="599.6" y="-65.6" type="line"/>
      <point x="1120.4" y="454.6" type="line"/>
      <point x="971.4" y="603.6" type="line"/>
      <point x="704.6" y="337.0" type="line"/>
      <point x="704.6" y="1163.0" type="line"/>
      <point x="971.4" y="897.0" type="line"/>
      <point x="1120.4" y="1046.0" type="line"/>
      <point x="599.6" y="1565.6" type="line"/>
      <point x="80.0" y="1046.0" type="line"/>
      <point x="228.4" y="897.0" type="line"/>
      <point x="494.6" y="1163.0" type="line"/>
      <point x="494.6" y="337.0" type="line"/>
      <point x="228.4" y="603.6" type="line"/>
      <point x="80.0" y="454.6" type="line"/>
    </contour>
  </outline>
</glyph>
<glyph name="northWestArrow" format="2">
  <advance width="1108.0"/>
  <unicode hex="2196"/>
  <outline>
    <contour>
      <point x="879.6" y="276.6" type="line"/>
      <point x="1028.0" y="424.4" type="line"/>
      <point x="439.0" y="1013.4" type="line"/>
      <point x="815.0" y="1013.4" type="line"/>
      <point x="815.0" y="1223.4" type="line"/>
      <point x="80.0" y="1223.4" type="line"/>
      <point x="80.0" y="488.4" type="line"/>
      <point x="290.0" y="488.4" type="line"/>
      <point x="290.0" y="865.6" type="line"/>
    </contour>
  </outline>
</glyph>
<glyph name="northEastArrow" format="2">
  <advance width="1107.25"/>
  <unicode hex="2197"/>
  <outline>
    <contour>
      <point x="228.4" y="277.0" type="line"/>
      <point x="817.4" y="864.6" type="line"/>
      <point x="817.4" y="488.0" type="line"/>
      <point x="1027.4" y="488.0" type="line"/>
      <point x="1027.4" y="1223.0" type="line"/>
      <point x="291.0" y="1223.0" type="line"/>
      <point x="291.0" y="1013.0" type="line"/>
      <point x="669.0" y="1013.0" type="line"/>
      <point x="80.0" y="425.4" type="line"/>
    </contour>
  </outline>
</glyph>
<glyph name="southEastArrow" format="2">
  <advance width="1107.25"/>
  <unicode hex="2198"/>
  <outline>
    <contour>
      <point x="292.4" y="277.0" type="line"/>
      <point x="1027.4" y="277.0" type="line"/>
      <point x="1027.4" y="1012.0" type="line"/>
      <point x="817.4" y="1012.0" type="line"/>
      <point x="817.4" y="635.4" type="line"/>
      <point x="228.4" y="1223.0" type="line"/>
      <point x="80.0" y="1074.6" type="line"/>
      <point x="669.0" y="487.0" type="line"/>
      <point x="292.4" y="487.0" type="line"/>
    </contour>
  </outline>
</glyph>
<glyph name="southWestArrow" format="2">
  <advance width="1107.25"/>
  <unicode hex="2199"/>
  <outline>
    <contour>
      <point x="80.0" y="277.0" type="line"/>
      <point x="815.0" y="277.0" type="line"/>
      <point x="815.0" y="487.0" type="line"/>
      <point x="438.4" y="487.0" type="line"/>
      <point x="1027.4" y="1074.6" type="line"/>
      <point x="879.0" y="1223.0" type="line"/>
      <point x="290.0" y="635.4" type="line"/>
      <point x="290.0" y="1012.0" type="line"/>
      <point x="80.0" y="1012.0" type="line"/>
    </contour>
  </outline>
</glyph>
<glyph name="partialdiff" format="2">
  <advance width="1165.25"/>
  <unicode hex="2202"/>
  <outline>
    <contour>
      <point x="583.4" y="-26.0" type="curve"/>
      <point x="877.0" y="-26.0"/>
      <point x="1085.4" y="198.0"/>
      <point x="1085.4" y="515.6" type="curve"/>
      <point x="1083.6" y="1048.4"/>
      <point x="785.0" y="1516.6"/>
      <point x="346.4" y="1516.6" type="curve"/>
      <point x="347.8" y="1306.6" type="line"/>
      <point x="608.4" y="1306.6"/>
      <point x="733.6" y="1085.4"/>
      <point x="791.8" y="888.6" type="curve"/>
      <point x="741.8" y="944.4"/>
      <point x="666.4" y="979.4"/>
      <point x="583.4" y="979.4" type="curve"/>
      <point x="306.0" y="979.4"/>
      <point x="80.0" y="754.0"/>
      <point x="80.0" y="476.0" type="curve"/>
      <point x="80.0" y="199.4"/>
      <point x="306.0" y="-26.0"/>
    </contour>
    <contour>
      <point x="583.4" y="184.0" type="curve"/>
      <point x="421.0" y="184.0"/>
      <point x="290.0" y="317.4"/>
      <point x="290.0" y="476.0" type="curve"/>
      <point x="290.0" y="635.4"/>
      <point x="419.8" y="769.4"/>
      <point x="583.4" y="769.4" type="curve"/>
      <point x="745.0" y="769.4"/>
      <point x="876.0" y="636.6"/>
      <point x="876.0" y="476.0" type="curve"/>
      <point x="876.0" y="318.6"/>
      <point x="746.8" y="184.0"/>
    </contour>
  </outline>
</glyph>
<glyph name="emptyset" format="2">
  <advance width="1160.0"/>
  <unicode hex="2205"/>
  <outline>
    <contour>
      <point x="350.6" y="-68.6" type="line"/>
      <point x="397.4" y="12.399999999999999" type="line"/>
      <point x="453.8" y="-12.0"/>
      <point x="514.6" y="-26.0"/>
      <point x="580.0" y="-26.0" type="curve" smooth="yes"/>
      <point x="856.0" y="-26.0"/>
      <point x="1080.0" y="210.0"/>
      <point x="1080.0" y="500.0" type="curve" smooth="yes"/>
      <point x="1080.0" y="659.8"/>
      <point x="1013.8" y="801.4"/>
      <point x="908.8" y="897.4" type="curve"/>
      <point x="959.8" y="985.4" type="line"/>
      <point x="810.0" y="1071.8" type="line"/>
      <point x="761.8" y="990.8" type="line"/>
      <point x="707.4" y="1014.6"/>
      <point x="644.6" y="1028.0"/>
      <point x="580.0" y="1028.0" type="curve" smooth="yes"/>
      <point x="304.0" y="1028.0"/>
      <point x="80.0" y="792.0"/>
      <point x="80.0" y="500.0" type="curve" smooth="yes"/>
      <point x="80.0" y="343.4"/>
      <point x="147.4" y="201.8"/>
      <point x="252.4" y="105.8" type="curve"/>
      <point x="201.4" y="17.8" type="line"/>
    </contour>
    <contour>
      <point x="356.0" y="283.4" type="line"/>
      <point x="306.8" y="334.6"/>
      <point x="275.0" y="406.8"/>
      <point x="275.0" y="488.6" type="curve" smooth="yes"/>
      <point x="275.0" y="712.4"/>
      <point x="473.4" y="881.4"/>
      <point x="666.8" y="822.4" type="curve"/>
    </contour>
    <contour>
      <point x="493.8" y="180.8" type="curve"/>
      <point x="804.6" y="719.8" type="line"/>
      <point x="853.0" y="667.4"/>
      <point x="885.0" y="593.8"/>
      <point x="885.0" y="511.4" type="curve" smooth="yes"/>
      <point x="885.0" y="290.6"/>
      <point x="693.6" y="120.0"/>
    </contour>
  </outline>
</glyph>
<glyph name="product" format="2">
  <advance width="1280.0"/>
  <unicode hex="220F"/>
  <outline>
    <contour>
      <point x="80.0" y="1400.0" type="line"/>
      <point x="80.0" y="1190.0" type="line"/>
      <point x="1200.0" y="1190.0" type="line"/>
      <point x="1200.0" y="1400.0" type="line"/>
    </contour>
    <contour>
      <point x="235.0" y="1257.6" type="line"/>
      <point x="235.0" y="0.0" type="line"/>
      <point x="445.0" y="0.0" type="line"/>
      <point x="445.0" y="1257.6" type="line"/>
    </contour>
    <contour>
      <point x="835.0" y="1257.6" type="line"/>
      <point x="835.0" y="0.0" type="line"/>
      <point x="1045.0" y="0.0" type="line"/>
      <point x="1045.0" y="1257.6" type="line"/>
    </contour>
  </outline>
</glyph>
<glyph name="summation" format="2">
  <advance width="933.75"/>
  <unicode hex="2211"/>
  <outline>
    <contour>
      <point x="80.0" y="0.0" type="line"/>
      <point x="873.6" y="0.0" type="line"/>
      <point x="873.6" y="210.0" type="line"/>
      <point x="316.6" y="210.0" type="line"/>
      <point x="565.4" y="698.0" type="line"/>
      <point x="316.6" y="1186.0" type="line"/>
      <point x="873.6" y="1186.0" type="line"/>
      <point x="873.6" y="1396.0" type="line"/>
      <point x="80.0" y="1396.0" type="line"/>
      <point x="80.0" y="1186.0" type="line"/>
      <point x="329.6" y="698.0" type="line"/>
      <point x="80.0" y="210.0" type="line"/>
    </contour>
  </outline>
</glyph>
<glyph name="radical" format="2">
  <advance width="1326.25"/>
  <unicode hex="221A"/>
  <outline>
    <contour>
      <point x="890.4" y="1400.0" type="line"/>
      <point x="470.8" y="251.0" type="line"/>
      <point x="302.6" y="708.0" type="line"/>
      <point x="80.0" y="708.0" type="line"/>
      <point x="338.0" y="0.0" type="line"/>
      <point x="602.4" y="0.0" type="line"/>
      <point x="1037.4" y="1190.0" type="line"/>
      <point x="1246.4" y="1190.0" type="line"/>
      <point x="1246.4" y="1400.0" type="line"/>
    </contour>
  </outline>
</glyph>
<glyph name="infinity" format="2">
  <advance width="1505.25"/>
  <unicode hex="221E"/>
  <outline>
    <contour>
      <point x="421.0" y="270.0" type="curve" smooth="yes"/>
      <point x="558.4" y="263.6"/>
      <point x="644.0" y="328.4"/>
      <point x="753.0" y="458.8" type="curve"/>
      <point x="863.0" y="328.4"/>
      <point x="946.6" y="270.0"/>
      <point x="1086.4" y="270.0" type="curve" smooth="yes"/>
      <point x="1286.4" y="276.6"/>
      <point x="1425.4" y="427.0"/>
      <point x="1425.4" y="620.6" type="curve" smooth="yes"/>
      <point x="1425.4" y="808.0"/>
      <point x="1298.0" y="966.4"/>
      <point x="1075.6" y="971.8" type="curve" smooth="yes"/>
      <point x="949.6" y="971.8"/>
      <point x="858.0" y="907.8"/>
      <point x="753.0" y="781.6" type="curve"/>
      <point x="648.0" y="908.0"/>
      <point x="561.8" y="971.8"/>
      <point x="421.0" y="971.8" type="curve" smooth="yes"/>
      <point x="220.4" y="966.4"/>
      <point x="80.0" y="813.4"/>
      <point x="80.0" y="620.6" type="curve" smooth="yes"/>
      <point x="80.0" y="438.0"/>
      <point x="210.8" y="290.0"/>
    </contour>
    <contour>
      <point x="420.0" y="462.8" type="curve" smooth="yes"/>
      <point x="334.6" y="467.6"/>
      <point x="271.4" y="533.8"/>
      <point x="271.4" y="620.6" type="curve" smooth="yes"/>
      <point x="271.4" y="698.4"/>
      <point x="328.6" y="771.4"/>
      <point x="420.0" y="777.6" type="curve" smooth="yes"/>
      <point x="508.4" y="780.4"/>
      <point x="562.6" y="712.4"/>
      <point x="635.8" y="620.6" type="curve"/>
      <point x="567.8" y="534.0"/>
      <point x="510.4" y="462.8"/>
    </contour>
    <contour>
      <point x="1086.8" y="462.8" type="curve" smooth="yes"/>
      <point x="1002.6" y="461.4"/>
      <point x="950.8" y="521.6"/>
      <point x="871.0" y="620.6" type="curve"/>
      <point x="945.8" y="713.6"/>
      <point x="998.4" y="779.0"/>
      <point x="1085.6" y="779.0" type="curve" smooth="yes"/>
      <point x="1176.6" y="773.6"/>
      <point x="1235.4" y="703.8"/>
      <point x="1235.4" y="620.6" type="curve" smooth="yes"/>
      <point x="1235.4" y="540.6"/>
      <point x="1177.0" y="469.0"/>
    </contour>
  </outline>
</glyph>
<glyph name="integral" format="2">
  <advance width="1009.5"/>
  <unicode hex="222B"/>
  <outline>
    <contour>
      <point x="325.8" y="-26.0" type="curve" smooth="yes"/>
      <point x="434.8" y="-25.4"/>
      <point x="529.8" y="29.6"/>
      <point x="557.8" y="161.8" type="curve"/>
      <point x="654.6" y="1185.6" type="line"/>
      <point x="658.8" y="1225.4"/>
      <point x="687.2" y="1253.4"/>
      <point x="722.6" y="1253.8" type="curve"/>
      <point x="762.8" y="1257.6"/>
      <point x="797.8" y="1233.6"/>
      <point x="803.6" y="1176.4" type="curve"/>
      <point x="928.8" y="1164.0" type="line"/>
      <point x="941.2" y="1299.4"/>
      <point x="832.2" y="1423.6"/>
      <point x="692.4" y="1426.0" type="curve" smooth="yes"/>
      <point x="580.8" y="1427.8"/>
      <point x="465.4" y="1347.4"/>
      <point x="450.4" y="1238.0" type="curve"/>
      <point x="352.8" y="209.4" type="line"/>
      <point x="346.8" y="168.0"/>
      <point x="314.8" y="142.8"/>
      <point x="273.2" y="144.0" type="curve" smooth="yes"/>
      <point x="229.8" y="147.0"/>
      <point x="220.4" y="180.6"/>
      <point x="217.8" y="223.6" type="curve"/>
      <point x="80.6" y="234.6" type="line"/>
      <point x="70.6" y="85.6"/>
      <point x="181.4" y="-25.4"/>
    </contour>
  </outline>
</glyph>
<glyph name="notequal" format="2">
  <advance width="1160.0"/>
  <unicode hex="2260"/>
  <outline>
    <contour>
      <point x="858.6" y="1182.0" type="line"/>
      <point x="640.8" y="1182.0" type="line"/>
      <point x="562.6" y="915.6" type="line"/>
      <point x="80.0" y="915.6" type="line"/>
      <point x="80.0" y="705.6" type="line"/>
      <point x="501.0" y="705.6" type="line"/>
      <point x="438.6" y="494.4" type="line"/>
      <point x="80.0" y="494.4" type="line"/>
      <point x="80.0" y="284.4" type="line"/>
      <point x="377.6" y="284.4" type="line"/>
      <point x="299.4" y="18.0" type="line"/>
      <point x="517.8" y="18.0" type="line"/>
      <point x="596.0" y="284.4" type="line"/>
      <point x="1080.0" y="284.4" type="line"/>
      <point x="1080.0" y="494.4" type="line"/>
      <point x="657.6" y="494.4" type="line"/>
      <point x="719.4" y="705.6" type="line"/>
      <point x="1080.0" y="705.6" type="line"/>
      <point x="1080.0" y="915.6" type="line"/>
      <point x="781.0" y="915.6" type="line"/>
    </contour>
  </outline>
</glyph>
<glyph name="lessequal" format="2">
  <advance width="1160.0"/>
  <unicode hex="2264"/>
  <outline>
    <contour>
      <point x="1080.0" y="335.8" type="line"/>
      <point x="1080.0" y="553.6" type="line"/>
      <point x="234.0" y="795.0" type="line"/>
      <point x="1080.0" y="1035.8" type="line"/>
      <point x="1080.0" y="1254.8" type="line"/>
      <point x="80.0" y="968.8" type="line"/>
      <point x="80.0" y="619.8" type="line"/>
    </contour>
    <contour>
      <point x="80.0" y="0.0" type="line"/>
      <point x="1080.0" y="0.0" type="line"/>
      <point x="1080.0" y="210.0" type="line"/>
      <point x="80.0" y="210.0" type="line"/>
    </contour>
  </outline>
</glyph>
<glyph name="greaterequal" format="2">
  <advance width="1160.0"/>
  <unicode hex="2265"/>
  <outline>
    <contour>
      <point x="80.0" y="350.8" type="line"/>
      <point x="1080.0" y="627.0" type="line"/>
      <point x="1080.0" y="976.0" type="line"/>
      <point x="80.0" y="1254.8" type="line"/>
      <point x="80.0" y="1035.8" type="line"/>
      <point x="926.0" y="802.8" type="line"/>
      <point x="80.0" y="568.6" type="line"/>
    </contour>
    <contour>
      <point x="80.0" y="0.0" type="line"/>
      <point x="1080.0" y="0.0" type="line"/>
      <point x="1080.0" y="210.0" type="line"/>
      <point x="80.0" y="210.0" type="line"/>
    </contour>
  </outline>
</glyph>
<glyph name="lozenge" format="2">
  <advance width="1011.0"/>
  <unicode hex="25CA"/>
  <outline>
    <contour>
      <point x="328.0" y="0.0" type="line"/>
      <point x="683.0" y="0.0" type="line"/>
      <point x="951.0" y="702.0" type="line"/>
      <point x="685.0" y="1400.0" type="line"/>
      <point x="326.0" y="1400.0" type="line"/>
      <point x="60.0" y="702.0" type="line"/>
    </contour>
    <contour>
      <point x="505.8" y="134.0" type="line"/>
      <point x="281.8" y="702.0" type="line"/>
      <point x="505.8" y="1270.0" type="line"/>
      <point x="731.8" y="702.0" type="line"/>
    </contour>
  </outline>
</glyph>
<glyph name="replacementCharacter" format="2">
  <advance width="1630.0"/>
  <unicode hex="FFFD"/>
  <outline>
    <contour>
      <point x="816.0" y="-26.0" type="curve" smooth="yes"/>
      <point x="888.0" y="-26.0"/>
      <point x="960.0" y="2.0"/>
      <point x="1014.0" y="56.0" type="curve" smooth="yes"/>
      <point x="1428.0" y="470.0" type="line" smooth="yes"/>
      <point x="1484.0" y="526.0"/>
      <point x="1510.0" y="598.0"/>
      <point x="1510.0" y="670.0" type="curve" smooth="yes"/>
      <point x="1510.0" y="742.0"/>
      <point x="1484.0" y="812.0"/>
      <point x="1428.0" y="868.0" type="curve" smooth="yes"/>
      <point x="1014.0" y="1282.0" type="line" smooth="yes"/>
      <point x="958.0" y="1338.0"/>
      <point x="888.0" y="1364.0"/>
      <point x="816.0" y="1364.0" type="curve" smooth="yes"/>
      <point x="744.0" y="1364.0"/>
      <point x="672.0" y="1338.0"/>
      <point x="616.0" y="1282.0" type="curve" smooth="yes"/>
      <point x="202.0" y="868.0" type="line" smooth="yes"/>
      <point x="148.0" y="814.0"/>
      <point x="120.0" y="742.0"/>
      <point x="120.0" y="670.0" type="curve" smooth="yes"/>
      <point x="120.0" y="598.0"/>
      <point x="146.0" y="526.0"/>
      <point x="202.0" y="470.0" type="curve" smooth="yes"/>
      <point x="616.0" y="56.0" type="line" smooth="yes"/>
      <point x="672.0" y="0.0"/>
      <point x="744.0" y="-26.0"/>
    </contour>
    <contour>
      <point x="821.8" y="275.0" type="curve" smooth="yes"/>
      <point x="780.8" y="275.0"/>
      <point x="747.6" y="307.6"/>
      <point x="747.6" y="350.0" type="curve" smooth="yes"/>
      <point x="747.6" y="389.6"/>
      <point x="780.8" y="422.8"/>
      <point x="821.8" y="422.8" type="curve" smooth="yes"/>
      <point x="863.4" y="422.8"/>
      <point x="895.4" y="389.6"/>
      <point x="895.4" y="350.0" type="curve" smooth="yes"/>
      <point x="895.4" y="307.6"/>
      <point x="863.4" y="275.0"/>
    </contour>
    <contour>
      <point x="743.4" y="515.0" type="line"/>
      <point x="743.4" y="517.0" type="line" smooth="yes"/>
      <point x="743.4" y="596.8"/>
      <point x="785.8" y="670.6"/>
      <point x="857.6" y="707.0" type="curve" smooth="yes"/>
      <point x="886.0" y="721.8"/>
      <point x="904.0" y="754.8"/>
      <point x="904.0" y="791.0" type="curve" smooth="yes"/>
      <point x="904.0" y="843.4"/>
      <point x="862.0" y="884.8"/>
      <point x="809.6" y="884.8" type="curve" smooth="yes"/>
      <point x="757.8" y="884.8"/>
      <point x="715.8" y="843.4"/>
      <point x="715.8" y="791.0" type="curve"/>
      <point x="568.0" y="791.0" type="line"/>
      <point x="568.0" y="924.0"/>
      <point x="676.0" y="1032.0"/>
      <point x="809.6" y="1032.0" type="curve" smooth="yes"/>
      <point x="942.6" y="1032.0"/>
      <point x="1051.8" y="924.0"/>
      <point x="1051.8" y="791.0" type="curve" smooth="yes"/>
      <point x="1051.8" y="700.0"/>
      <point x="1002.6" y="620.4"/>
      <point x="927.0" y="577.8" type="curve" smooth="yes"/>
      <point x="904.6" y="565.0"/>
      <point x="890.6" y="542.0"/>
      <point x="890.6" y="517.0" type="curve" smooth="yes"/>
      <point x="890.6" y="515.0" type="line"/>
    </contour>
  </outline>
</glyph>
